SplineFontDB: 1.0
FontName: DBThaiText-Bold
FullName: DBThaiText Bold
FamilyName: DBThaiText
Weight: Bold
Copyright: Typeface (c) The Monotype Corporation plc. Data (c) The Monotype Corporation plc/Type Solutions Inc. 1990-1992. All Rights Reserved\n\nModified by TLWG
Version: 1.1 : May 12, 2003
ItalicAngle: 0
UnderlinePosition: -50
UnderlineWidth: 60
Ascent: 800
Descent: 200
NeedsXUIDChange: 1
FSType: 0
PfmFamily: 33
TTFWeight: 700
TTFWidth: 5
Panose: 2 0 8 3 0 0 0 0 0 0
LineGap: 184
VLineGap: 0
ScriptLang: 2
 1 latn 1 dflt 
 1 thai 1 dflt 
LangName: 1033 "" "" "" "PfaEdit : DBThaiTextBold : 13-0-2003" 
Encoding: custom
UnicodeInterp: none
DisplaySize: -72
AntiAlias: 1
FitToEm: 1
WinInfo: 216 8 2
BeginPrivate: 3
BlueValues 31 [-31 0 726 753 786 805 959 976]
OtherBlues 11 [-260 -260]
ForceBold 4 true
EndPrivate
BeginChars: 293 258
StartChar: .notdef
Encoding: 0 -1 0
Width: 601
VWidth: 2048
Flags: HW
HStem: -32 79<123 522> 962 79<43 442>
VStem: 43 80<-32 962> 442 80<47 1041>
Fore
43 -32 m 1
 43 1041 l 1
 522 1041 l 1
 522 -32 l 1
 43 -32 l 1
123 47 m 1
 442 47 l 1
 442 962 l 1
 123 962 l 1
 123 47 l 1
EndSplineSet
EndChar
StartChar: exclam
Encoding: 33 33 3
Width: 213
Flags: HW
HStem: 0 94<72 168> 446 23<72 168 168 168>
VStem: 72 96<0 94 333 469>
Fore
97 133 m 1
 72 333 l 1
 72 469 l 1
 168 469 l 1
 168 333 l 1
 140 133 l 1
 97 133 l 1
72 94 m 1
 168 94 l 1
 168 0 l 1
 72 0 l 1
 72 94 l 1
EndSplineSet
EndChar
StartChar: quotedbl
Encoding: 34 34 4
Width: 303
VWidth: 2048
Flags: HW
HStem: 459 10G<30 126 174 271>
Fore
55 303 m 1
 30 392 l 1
 30 468 l 1
 126 468 l 1
 126 392 l 1
 98 303 l 1
 55 303 l 1
199 303 m 1
 174 392 l 1
 174 468 l 1
 271 468 l 5
 271 392 l 1
 242 303 l 1
 199 303 l 1
EndSplineSet
EndChar
StartChar: numbersign
Encoding: 35 35 5
Width: 357
Flags: HW
HStem: -19 23 92 73<2 60 142 193 277 338> 244 73
VStem: 2 353
Fore
129 447 m 1
 197 447 l 1
 172 316 l 1
 236 318 l 1
 261 447 l 1
 329 447 l 1
 304 316 l 1
 355 316 l 1
 355 244 l 1
 293 244 l 1
 277 165 l 1
 338 165 l 1
 338 92 l 1
 261 92 l 1
 241 -19 l 1
 172 -19 l 1
 193 92 l 1
 129 92 l 1
 107 -19 l 1
 40 -19 l 1
 60 92 l 1
 2 92 l 1
 2 165 l 1
 75 165 l 1
 90 244 l 1
 28 244 l 1
 28 316 l 1
 104 316 l 1
 129 447 l 1
158 244 m 1
 142 165 l 1
 208 165 l 1
 225 244 l 1
 158 244 l 1
EndSplineSet
EndChar
StartChar: dollar
Encoding: 36 36 6
Width: 357
Flags: HW
VStem: 157 42<-14 -14 56 182 276 390 457 492>
Fore
333 321 m 1
 250 321 l 1
 250 342 244 358 233 370 c 0
 220 381 209 388 199 390 c 1
 199 262 l 1
 243 251 277 235 302 215 c 0
 325 195 339 167 338 132 c 0
 338 103 332 79 322 61 c 0
 312 42 301 28 286 19 c 0
 271 9 257 1 240 -2 c 0
 223 -7 209 -10 199 -12 c 1
 199 -80 l 1
 156 -80 l 1
 157 -14 l 1
 149 -12 141 -11 134 -10 c 0
 127 -9 118 -6 107 -2 c 0
 96 1 86 5 78 10 c 0
 70 16 60 23 50 33 c 0
 26 58 15 92 15 133 c 1
 99 133 l 1
 101 116 104 103 108 93 c 0
 113 82 118 75 123 70 c 0
 129 66 134 62 141 60 c 0
 147 56 153 55 157 54 c 1
 157 198 l 1
 121 205 90 218 66 238 c 0
 40 260 26 288 26 323 c 0
 25 362 37 393 61 417 c 0
 84 441 115 453 157 457 c 1
 157 492 l 1
 199 492 l 1
 199 457 l 1
 281 451 327 406 333 321 c 1
157 276 m 1
 157 392 l 1
 124 386 107 365 106 330 c 1
 107 321 110 313 113 306 c 0
 116 299 121 294 129 289 c 0
 137 284 147 279 157 276 c 1
199 182 m 1
 199 56 l 1
 202 58 207 60 212 62 c 0
 219 64 226 68 232 71 c 0
 237 75 242 79 246 86 c 0
 250 93 252 101 253 111 c 0
 253 148 235 172 199 182 c 1
EndSplineSet
EndChar
StartChar: percent
Encoding: 37 37 7
Width: 571
Flags: HW
HStem: -8 461
VStem: 14 236<318 351> 320 235<93 125>
Fore
183 -11 m 1
 132 -11 l 1
 390 455 l 1
 440 455 l 1
 183 -11 l 1
320 110 m 0
 320 141 331 168 354 192 c 0
 376 216 405 227 437 227 c 0
 470 227 496 216 520 192 c 0
 544 168 555 142 555 110 c 0
 555 77 544 49 520 26 c 0
 496 3 469 -8 437 -8 c 0
 405 -8 377 2 354 26 c 0
 330 50 320 77 320 110 c 0
14 334 m 0
 14 367 25 394 49 418 c 0
 72 442 99 453 132 453 c 0
 165 453 192 442 215 418 c 0
 238 394 250 367 250 334 c 0
 250 302 238 273 215 251 c 0
 192 228 165 217 132 217 c 0
 99 217 72 228 49 251 c 0
 25 273 14 302 14 334 c 0
384 110 m 0
 384 95 390 82 400 71 c 0
 410 61 423 55 437 55 c 0
 452 55 466 61 476 71 c 0
 486 82 490 95 490 110 c 0
 490 124 485 137 475 147 c 0
 464 157 452 163 437 163 c 0
 423 163 410 157 400 147 c 0
 390 137 384 124 384 110 c 0
78 334 m 0
 78 320 84 307 94 297 c 0
 104 287 118 281 132 281 c 0
 147 281 159 287 170 297 c 0
 180 307 185 320 185 334 c 0
 185 349 181 363 171 374 c 0
 160 384 147 389 132 389 c 0
 118 389 104 384 94 374 c 0
 84 363 78 349 78 334 c 0
EndSplineSet
EndChar
StartChar: ampersand
Encoding: 38 38 8
Width: 463
Flags: HW
HStem: 0 241<342 411 342 342> 446 23<194 221>
VStem: 35 411
Fore
337 241 m 1
 411 241 l 1
 411 217 407 192 399 167 c 0
 391 142 379 121 364 104 c 1
 446 0 l 1
 342 0 l 1
 311 40 l 1
 290 23 272 9 258 1 c 0
 242 -7 219 -12 190 -12 c 0
 148 -14 111 -1 80 23 c 0
 50 46 35 79 35 123 c 0
 35 125 36 134 37 151 c 0
 41 172 49 189 60 203 c 0
 71 217 84 228 98 236 c 0
 112 244 124 252 136 259 c 1
 125 270 118 279 111 287 c 0
 104 295 98 305 93 318 c 0
 87 330 84 342 84 356 c 0
 84 371 87 386 95 401 c 0
 104 423 119 440 139 452 c 0
 159 463 182 469 207 469 c 0
 235 469 259 463 280 449 c 0
 301 435 313 415 318 391 c 0
 319 381 320 373 320 366 c 0
 320 340 313 320 301 303 c 0
 287 286 269 270 245 253 c 1
 314 166 l 1
 321 172 327 181 331 193 c 0
 337 206 339 218 339 228 c 0
 339 232 338 236 337 241 c 1
184 329 m 2
 205 304 l 1
 212 308 219 312 224 315 c 0
 228 319 233 322 236 328 c 0
 240 333 243 341 244 351 c 0
 244 365 242 376 237 384 c 0
 234 392 224 397 207 397 c 0
 185 397 173 389 170 374 c 1
 170 359 173 342 184 329 c 2
263 98 m 1
 177 205 l 1
 156 191 141 182 133 176 c 0
 123 167 118 154 118 136 c 0
 118 114 128 94 147 77 c 0
 159 67 173 61 188 61 c 0
 209 61 235 73 263 98 c 1
EndSplineSet
EndChar
StartChar: quotesingle
Encoding: 39 39 9
Width: 143
VWidth: 2048
Flags: HW
HStem: 459 10G<30 126>
Fore
55 303 m 1
 30 392 l 1
 30 468 l 1
 126 468 l 1
 126 392 l 1
 98 303 l 1
 55 303 l 1
EndSplineSet
EndChar
StartChar: parenleft
Encoding: 40 40 10
Width: 213
Flags: HW
HStem: 446 23<130 194 194 194>
VStem: 26 168
Fore
130 469 m 1
 194 469 l 1
 168 423 148 377 131 332 c 0
 114 286 106 242 106 198 c 0
 106 185 106 175 107 170 c 0
 110 118 119 64 136 9 c 0
 151 -46 171 -93 194 -130 c 1
 130 -130 l 1
 107 -90 93 -64 85 -50 c 0
 77 -35 68 -16 59 9 c 0
 50 33 43 58 37 82 c 0
 32 107 27 137 26 170 c 0
 26 200 29 231 36 260 c 0
 42 289 51 316 61 341 c 0
 71 366 81 388 92 405 c 0
 102 421 114 443 130 469 c 1
EndSplineSet
EndChar
StartChar: parenright
Encoding: 41 41 11
Width: 213
Flags: HW
HStem: 446 23<15 78 78 78>
VStem: 102 81<169 170>
Fore
15 469 m 1
 78 469 l 1
 111 418 136 371 155 327 c 0
 174 282 184 229 183 170 c 0
 182 110 172 60 156 19 c 0
 139 -21 113 -71 78 -130 c 1
 15 -130 l 1
 38 -93 59 -46 75 9 c 0
 90 63 99 116 102 170 c 0
 103 175 103 184 103 195 c 0
 103 219 101 242 96 266 c 0
 92 288 84 312 76 337 c 0
 67 363 59 385 49 405 c 0
 40 424 28 445 15 469 c 1
EndSplineSet
EndChar
StartChar: asterisk
Encoding: 42 42 12
Width: 249
Flags: HW
HStem: 446 23<97 147 147 147>
VStem: 97 50<390 469>
Fore
77 247 m 1
 35 282 l 1
 85 345 l 1
 15 370 l 1
 32 415 l 1
 97 390 l 1
 97 469 l 1
 147 469 l 1
 147 390 l 1
 212 415 l 1
 229 370 l 1
 159 345 l 1
 209 282 l 1
 168 247 l 1
 120 310 l 1
 77 247 l 1
EndSplineSet
EndChar
StartChar: plus
Encoding: 43 43 13
Width: 375
Flags: W
HStem: 191 77<32 149 226 344>
VStem: 149 77<73 191 268 385>
Fore
149 385 m 5
 226 385 l 5
 226 268 l 5
 344 268 l 5
 344 191 l 5
 226 191 l 5
 226 73 l 5
 149 73 l 5
 149 191 l 5
 32 191 l 5
 32 268 l 5
 149 268 l 5
 149 385 l 5
EndSplineSet
EndChar
StartChar: comma
Encoding: 44 44 14
Width: 220
Flags: HW
VStem: 64 105
Fore
170 49 m 0
 171 18 159 -8 138 -27 c 0
 116 -47 96 -59 75 -61 c 1
 67 -45 l 1
 81 -37 93 -31 101 -24 c 0
 110 -17 115 -6 118 9 c 1
 105 9 94 12 82 19 c 0
 71 26 66 38 64 58 c 0
 64 71 69 82 77 93 c 0
 85 102 96 106 110 106 c 0
 130 106 145 101 154 90 c 0
 164 80 170 66 170 49 c 0
EndSplineSet
EndChar
StartChar: hyphen
Encoding: 45 45 15
Width: 213
Flags: HW
HStem: 133 88<17 192>
VStem: 17 175<133 221>
Fore
17 221 m 1
 192 221 l 1
 192 133 l 1
 17 133 l 1
 17 221 l 1
EndSplineSet
EndChar
StartChar: period
Encoding: 46 46 16
Width: 160
Flags: HW
HStem: 0 23
VStem: 31 94<41 54>
Fore
78 0 m 0
 63 0 51 5 43 14 c 0
 35 23 31 34 31 47 c 0
 31 60 35 71 43 80 c 0
 51 89 63 94 78 94 c 0
 93 94 104 89 112 80 c 0
 120 72 124 61 124 47 c 0
 124 34 120 23 112 14 c 0
 104 5 93 0 78 0 c 0
EndSplineSet
EndChar
StartChar: slash
Encoding: 47 47 17
Width: 178
Flags: HW
HStem: -9 23
VStem: 1 175
Fore
137 460 m 1
 176 460 l 1
 42 -9 l 1
 1 -9 l 1
 137 460 l 1
EndSplineSet
EndChar
StartChar: zero
Encoding: 48 48 18
Width: 357
Flags: HW
HStem: -15 82<164 189>
VStem: 19 89<194 257> 242 90<195 257>
Fore
175 -15 m 0
 154 -15 132 -11 113 -3 c 0
 94 5 78 15 66 29 c 0
 35 68 19 133 19 226 c 0
 19 320 35 384 66 421 c 0
 78 436 94 446 113 454 c 0
 132 462 154 466 175 466 c 0
 224 466 261 451 286 421 c 0
 316 384 332 320 332 226 c 0
 332 133 316 68 286 29 c 0
 261 0 224 -15 175 -15 c 0
175 68 m 0
 203 68 221 78 229 98 c 0
 237 121 242 164 242 226 c 0
 242 288 237 330 229 354 c 0
 221 374 203 384 175 384 c 0
 163 384 151 382 141 376 c 0
 131 371 125 364 122 354 c 0
 113 331 108 288 108 226 c 0
 108 163 113 120 122 98 c 1
 128 78 146 68 175 68 c 0
EndSplineSet
EndChar
StartChar: one
Encoding: 49 49 19
Width: 357
Flags: HW
HStem: 0 23
VStem: 153 90<0 315 315 315>
Fore
243 455 m 1
 243 0 l 1
 153 0 l 1
 153 315 l 1
 44 315 l 1
 44 375 l 1
 61 375 80 377 99 382 c 0
 119 385 133 391 144 399 c 0
 168 416 182 435 183 455 c 1
 243 455 l 1
EndSplineSet
EndChar
StartChar: two
Encoding: 50 50 20
Width: 357
Flags: HW
HStem: 0 81<137 329>
VStem: 19 311
Fore
329 81 m 1
 329 0 l 1
 19 0 l 1
 21 32 27 59 35 82 c 0
 43 106 60 130 89 153 c 0
 110 170 136 186 162 207 c 0
 188 226 205 241 214 251 c 0
 231 272 240 294 240 316 c 0
 240 324 238 333 236 344 c 0
 234 359 227 372 215 380 c 0
 202 388 190 392 175 392 c 0
 171 392 165 391 159 390 c 0
 129 383 113 353 113 298 c 1
 26 298 l 1
 26 353 40 394 66 424 c 0
 92 452 132 469 185 467 c 0
 281 462 332 405 330 301 c 0
 329 257 289 210 220 162 c 0
 172 128 145 101 137 81 c 1
 329 81 l 1
EndSplineSet
EndChar
StartChar: three
Encoding: 51 51 21
Width: 357
Flags: HW
HStem: -15 23
VStem: 19 313
Fore
19 133 m 1
 105 133 l 1
 106 119 108 107 111 99 c 0
 113 92 118 84 123 78 c 0
 129 72 137 67 147 63 c 0
 159 60 173 58 189 58 c 1
 199 61 208 67 214 72 c 0
 232 89 241 108 241 132 c 0
 241 154 232 171 215 184 c 0
 198 197 173 203 140 203 c 1
 140 264 l 1
 165 264 185 269 202 277 c 0
 218 285 227 298 229 316 c 0
 231 325 232 332 232 336 c 0
 232 346 229 356 226 365 c 0
 221 374 215 381 206 386 c 0
 197 391 185 394 171 394 c 0
 145 396 128 386 120 372 c 0
 113 357 110 337 108 312 c 1
 26 312 l 1
 26 345 31 372 40 393 c 0
 49 415 68 434 97 451 c 0
 115 461 146 467 190 466 c 0
 226 466 254 455 273 438 c 0
 292 424 303 407 308 390 c 0
 314 373 318 351 318 327 c 1
 315 307 311 293 304 282 c 0
 296 271 284 259 267 244 c 1
 290 229 307 214 318 195 c 0
 328 179 333 153 332 119 c 0
 331 86 316 55 293 27 c 0
 268 -1 227 -15 172 -15 c 0
 148 -15 127 -11 107 -6 c 0
 88 0 69 14 52 35 c 0
 40 50 31 66 27 81 c 0
 23 97 20 114 19 133 c 1
EndSplineSet
EndChar
StartChar: four
Encoding: 52 52 22
Width: 357
Flags: HW
HStem: 0 23 101 73<80 198 288 336>
VStem: 198 90<0 101 174 364 364 364>
Fore
183 455 m 1
 288 455 l 1
 288 174 l 1
 336 174 l 1
 336 101 l 1
 288 101 l 1
 288 0 l 1
 198 0 l 1
 198 101 l 1
 16 101 l 1
 16 177 l 1
 183 455 l 1
198 364 m 1
 80 174 l 1
 198 174 l 1
 198 364 l 1
EndSplineSet
EndChar
StartChar: five
Encoding: 53 53 23
Width: 357
Flags: HW
HStem: -15 23 375 80<128 315 128 128>
VStem: 241 92<136 161>
Fore
17 119 m 1
 106 119 l 1
 107 107 110 98 113 90 c 0
 116 82 122 76 132 70 c 0
 142 64 156 61 174 61 c 0
 197 62 214 71 225 88 c 0
 235 105 241 124 241 148 c 0
 241 174 236 194 226 208 c 0
 211 226 191 236 164 235 c 0
 138 235 121 223 113 202 c 1
 31 202 l 1
 72 455 l 1
 315 455 l 1
 315 375 l 1
 128 375 l 1
 112 281 l 1
 129 292 144 298 154 302 c 0
 166 305 179 307 191 307 c 0
 206 307 223 305 240 299 c 0
 270 289 294 270 310 243 c 0
 324 216 332 185 332 153 c 0
 332 115 322 82 306 56 c 0
 293 35 277 19 257 8 c 0
 236 -5 209 -11 175 -15 c 1
 145 -15 123 -11 108 -6 c 0
 94 0 79 9 64 20 c 0
 50 33 40 44 32 56 c 0
 25 69 20 79 19 89 c 0
 18 98 17 108 17 119 c 1
EndSplineSet
EndChar
StartChar: six
Encoding: 54 54 24
Width: 357
Flags: HW
HStem: -15 23 395 71<179 189>
VStem: 249 85<138 162>
Fore
325 354 m 1
 242 354 l 1
 233 381 215 394 189 396 c 0
 170 396 155 391 142 382 c 0
 130 374 122 364 119 353 c 0
 112 336 108 315 108 292 c 0
 108 280 110 272 111 267 c 1
 123 277 136 286 150 292 c 0
 165 297 185 301 209 301 c 0
 250 301 282 282 307 246 c 0
 324 220 333 189 333 154 c 0
 333 123 329 97 319 76 c 0
 305 45 287 23 266 9 c 0
 243 -6 215 -14 181 -15 c 0
 145 -16 114 -5 88 16 c 0
 62 37 44 63 35 95 c 0
 25 132 20 176 20 227 c 0
 20 272 25 312 35 346 c 0
 46 381 64 410 89 433 c 0
 114 455 147 467 186 467 c 0
 197 467 206 467 211 466 c 0
 255 460 285 445 301 423 c 0
 315 400 324 377 325 354 c 1
118 191 m 0
 111 177 107 162 107 145 c 0
 107 121 113 102 124 86 c 0
 134 72 150 64 171 61 c 1
 194 61 211 68 224 81 c 0
 241 101 249 123 249 151 c 0
 249 173 244 190 235 205 c 0
 223 223 202 232 176 232 c 0
 164 231 153 227 142 220 c 0
 132 215 123 205 118 191 c 0
EndSplineSet
EndChar
StartChar: seven
Encoding: 55 55 25
Width: 357
Flags: HW
HStem: 0 23 375 80<19 244>
VStem: 19 320<385 455>
Fore
19 455 m 1
 339 455 l 1
 339 385 l 1
 315 357 294 328 275 298 c 0
 255 269 240 238 225 207 c 0
 211 175 200 142 191 108 c 0
 183 75 177 38 175 0 c 1
 85 0 l 1
 90 45 98 85 107 118 c 0
 115 150 127 181 139 209 c 0
 151 236 166 263 183 289 c 0
 200 316 220 345 244 375 c 1
 19 375 l 1
 19 455 l 1
EndSplineSet
EndChar
StartChar: eight
Encoding: 56 56 26
Width: 357
Flags: HW
HStem: -15 23 398 69<183 194>
VStem: 15 93<126 149>
Fore
314 64 m 1
 302 38 281 19 255 6 c 0
 228 -8 200 -16 170 -15 c 0
 140 -15 113 -7 87 8 c 0
 61 21 42 41 29 66 c 0
 19 85 15 106 15 132 c 0
 15 185 38 224 85 249 c 1
 68 262 55 276 45 289 c 0
 35 304 31 321 31 340 c 0
 31 360 35 380 45 398 c 0
 56 419 72 436 94 449 c 0
 115 461 140 467 166 467 c 0
 228 467 272 450 296 416 c 0
 315 390 324 365 324 339 c 0
 324 318 319 299 306 282 c 0
 294 266 279 254 262 249 c 1
 286 242 304 228 318 208 c 0
 331 188 338 165 338 139 c 0
 338 111 330 86 314 64 c 1
217 288 m 1
 227 294 234 302 238 312 c 0
 244 322 246 332 246 342 c 0
 246 357 242 368 233 377 c 0
 223 390 206 398 183 398 c 0
 159 399 141 392 129 381 c 0
 116 371 110 356 110 339 c 0
 110 321 116 305 129 292 c 0
 139 281 153 273 172 273 c 0
 193 272 209 278 217 288 c 1
223 81 m 0
 227 86 232 94 235 105 c 0
 238 116 241 128 241 139 c 0
 241 156 236 171 228 183 c 0
 217 201 200 211 176 212 c 0
 155 212 137 206 124 191 c 0
 113 179 107 160 107 137 c 0
 107 115 112 98 120 86 c 1
 134 70 151 60 171 60 c 0
 192 59 210 67 223 81 c 0
EndSplineSet
EndChar
StartChar: nine
Encoding: 57 57 27
Width: 357
Flags: HW
HStem: -15 71<154 172> 446 23<152 168>
VStem: 18 80<293 318>
Fore
24 106 m 1
 112 106 l 1
 112 95 116 84 127 72 c 0
 137 62 148 56 160 56 c 0
 195 56 219 71 231 99 c 0
 240 122 244 144 244 163 c 0
 244 173 243 181 240 188 c 1
 227 173 212 162 193 154 c 0
 184 150 174 148 163 148 c 0
 148 148 137 148 128 150 c 0
 84 158 52 184 34 226 c 0
 24 250 18 276 18 305 c 0
 18 340 25 368 38 392 c 0
 51 414 69 433 92 447 c 0
 113 462 138 469 166 469 c 0
 171 469 179 468 189 467 c 0
 199 467 214 463 231 457 c 0
 247 449 263 438 278 425 c 0
 293 411 303 396 307 379 c 1
 324 341 332 296 332 243 c 0
 332 207 329 173 322 140 c 0
 314 107 306 81 296 62 c 0
 279 32 259 10 234 0 c 0
 209 -10 184 -15 160 -15 c 0
 116 -15 82 -1 59 26 c 0
 35 54 24 80 24 106 c 1
221 372 m 1
 209 385 191 392 168 392 c 0
 149 392 132 383 115 365 c 1
 104 350 98 330 98 305 c 0
 98 280 105 261 120 246 c 0
 133 232 150 225 171 225 c 0
 191 225 208 233 221 247 c 0
 235 262 242 281 242 305 c 0
 242 320 240 334 235 347 c 0
 232 359 227 367 221 372 c 1
EndSplineSet
EndChar
StartChar: colon
Encoding: 58 58 28
Width: 195
Flags: HW
HStem: 0 23
VStem: 59 92<39 51 312 324>
Fore
104 0 m 0
 89 0 79 5 71 14 c 0
 63 21 59 33 59 45 c 0
 59 58 63 68 71 77 c 0
 79 86 89 90 104 90 c 0
 119 90 130 86 138 77 c 0
 146 69 150 58 150 45 c 0
 150 33 146 23 138 14 c 0
 130 5 119 0 104 0 c 0
104 273 m 0
 89 273 79 278 71 287 c 0
 63 296 59 306 59 319 c 0
 59 330 63 340 71 349 c 0
 79 358 89 363 104 363 c 0
 119 363 130 358 138 350 c 0
 146 341 150 331 150 319 c 0
 150 306 146 296 138 287 c 0
 130 278 119 273 104 273 c 0
EndSplineSet
EndChar
StartChar: semicolon
Encoding: 59 59 29
Width: 220
Flags: HW
VStem: 64 105
Fore
113 243 m 0
 97 243 85 247 77 258 c 0
 69 268 64 279 64 293 c 0
 64 306 69 318 77 328 c 0
 85 338 97 342 113 342 c 0
 130 342 142 338 150 328 c 0
 158 318 163 306 163 293 c 0
 163 279 158 268 150 258 c 0
 141 247 129 243 113 243 c 0
170 49 m 0
 171 18 159 -8 138 -27 c 0
 116 -47 96 -59 75 -61 c 1
 67 -45 l 1
 81 -37 93 -31 101 -24 c 0
 110 -17 115 -6 118 9 c 1
 105 9 94 12 82 19 c 0
 71 26 66 38 64 58 c 0
 64 71 69 82 77 93 c 0
 85 102 96 106 110 106 c 0
 130 106 145 101 154 90 c 0
 164 80 170 66 170 49 c 0
EndSplineSet
EndChar
StartChar: less
Encoding: 60 60 30
Width: 375
Flags: W
DStem: 26 191 138 229 340 73 340 157 340 385 340 301 26 268 138 229
Fore
26 191 m 5
 26 268 l 5
 340 385 l 5
 340 301 l 5
 138 229 l 5
 340 157 l 5
 340 73 l 5
 26 191 l 5
EndSplineSet
EndChar
StartChar: equal
Encoding: 61 61 31
Width: 375
Flags: W
HStem: 112 79<32 344> 268 76<32 344>
Fore
32 344 m 5
 344 344 l 5
 344 268 l 5
 32 268 l 5
 32 344 l 5
32 191 m 5
 344 191 l 5
 344 112 l 5
 32 112 l 5
 32 191 l 5
EndSplineSet
EndChar
StartChar: greater
Encoding: 62 62 32
Width: 375
Flags: W
DStem: 26 301 26 385 227 229 340 268 227 229 340 191 26 157 26 73
Fore
26 385 m 5
 340 268 l 5
 340 191 l 5
 26 73 l 5
 26 157 l 5
 227 229 l 5
 26 301 l 5
 26 385 l 5
EndSplineSet
EndChar
StartChar: question
Encoding: 63 63 33
Width: 393
Flags: HW
HStem: 0 94<154 250>
VStem: 154 96<0 94>
Fore
236 129 m 1
 158 129 l 1
 158 162 164 188 176 209 c 0
 189 228 207 249 233 268 c 0
 253 282 264 305 263 334 c 0
 263 354 255 368 243 379 c 0
 231 389 216 394 199 394 c 0
 180 394 163 388 149 373 c 0
 136 358 129 338 129 310 c 1
 42 310 l 1
 42 365 58 410 90 445 c 1
 119 468 153 479 193 479 c 0
 218 479 241 476 262 468 c 0
 284 460 301 450 313 437 c 0
 342 409 357 375 357 334 c 0
 357 308 351 285 341 266 c 0
 339 261 336 255 330 249 c 0
 324 242 319 237 314 234 c 0
 308 229 304 225 298 221 c 0
 293 217 286 212 279 207 c 0
 261 193 249 183 244 173 c 0
 238 162 236 147 236 129 c 1
154 0 m 1
 154 94 l 1
 250 94 l 1
 250 0 l 1
 154 0 l 1
EndSplineSet
EndChar
StartChar: at
Encoding: 64 64 34
Width: 626
Flags: HW
HStem: -88 56<301 333> 426 53<316 349>
VStem: 17 63<157 168>
Fore
414 328 m 1
 471 328 l 1
 417 133 l 1
 417 123 418 114 420 107 c 0
 421 99 426 94 432 90 c 0
 435 89 440 88 446 88 c 0
 458 88 467 90 475 96 c 1
 487 102 499 111 510 123 c 0
 521 137 529 148 532 158 c 0
 545 184 551 210 551 238 c 0
 551 254 549 269 545 284 c 0
 541 301 531 319 514 340 c 0
 497 362 478 377 459 390 c 0
 421 414 376 426 322 426 c 0
 305 426 287 424 268 420 c 0
 245 416 221 403 195 384 c 0
 171 365 149 342 131 319 c 0
 97 275 80 223 80 165 c 0
 80 148 84 132 88 116 c 0
 94 99 98 85 106 71 c 0
 114 59 121 49 129 41 c 0
 159 9 200 -12 251 -25 c 0
 270 -29 290 -32 312 -32 c 0
 355 -32 399 -24 444 -8 c 1
 462 -59 l 1
 424 -78 373 -88 308 -88 c 0
 287 -88 270 -87 255 -85 c 0
 234 -81 215 -78 197 -72 c 0
 177 -67 158 -58 137 -43 c 0
 115 -29 94 -11 73 12 c 0
 56 33 43 56 33 82 c 0
 23 108 17 133 17 155 c 0
 17 181 19 203 24 224 c 0
 27 244 34 264 44 285 c 0
 53 305 64 324 77 341 c 0
 96 367 120 393 150 418 c 0
 181 442 212 458 247 468 c 0
 273 476 301 479 331 479 c 0
 385 479 434 467 476 442 c 0
 547 400 590 347 603 285 c 0
 607 267 609 249 609 232 c 0
 609 199 602 170 590 144 c 0
 568 98 541 68 507 51 c 0
 489 42 470 37 450 37 c 0
 435 37 423 40 410 43 c 0
 393 47 379 60 366 80 c 1
 345 62 327 50 313 44 c 0
 299 38 286 35 271 35 c 0
 260 35 245 40 227 47 c 0
 209 55 195 67 185 81 c 0
 172 103 165 124 165 147 c 0
 165 151 165 159 167 170 c 0
 176 223 200 263 235 292 c 0
 268 320 299 333 330 333 c 0
 338 333 346 332 353 330 c 0
 380 323 397 310 403 289 c 1
 414 328 l 1
275 87 m 1
 297 87 315 93 329 105 c 1
 346 118 358 136 367 160 c 0
 377 185 382 208 382 228 c 0
 381 258 366 277 339 286 c 0
 334 287 331 288 328 288 c 0
 318 288 306 285 296 279 c 0
 285 273 275 264 264 254 c 0
 254 244 246 231 240 214 c 0
 233 197 227 180 227 163 c 0
 226 144 232 127 241 113 c 0
 249 99 260 90 275 87 c 1
EndSplineSet
EndChar
StartChar: A
Encoding: 65 65 35
Width: 463
Flags: HW
HStem: 0 23 94 80<179 298> 446 23<180 292 292 292>
VStem: 17 435<0 0>
Fore
292 469 m 1
 452 0 l 1
 354 0 l 1
 321 94 l 1
 148 94 l 1
 115 0 l 1
 17 0 l 1
 180 469 l 1
 292 469 l 1
236 356 m 1
 179 174 l 1
 298 174 l 1
 236 356 l 1
EndSplineSet
EndChar
StartChar: B
Encoding: 66 66 36
Width: 463
Flags: HW
HStem: 0 80<149 262 262 264> 201 80<149 259 259 264> 389 80<149 149 149 261 261 263>
VStem: 53 96<80 201 281 389>
Fore
53 0 m 1
 53 469 l 1
 261 469 l 2
 278 469 298 466 321 460 c 0
 342 454 360 445 373 433 c 1
 386 423 397 411 402 401 c 0
 405 397 407 388 410 375 c 0
 414 362 415 351 416 346 c 0
 416 329 412 313 405 296 c 0
 398 279 386 263 371 250 c 1
 385 240 398 225 408 208 c 0
 418 190 425 171 427 151 c 1
 427 124 424 102 416 82 c 0
 408 63 396 46 379 32 c 0
 353 10 315 0 264 0 c 2
 53 0 l 1
149 389 m 1
 149 281 l 1
 259 281 l 2
 279 281 295 286 306 296 c 0
 318 306 323 319 323 334 c 0
 322 371 302 389 263 389 c 2
 149 389 l 1
149 201 m 1
 149 80 l 1
 262 80 l 2
 281 80 298 84 313 92 c 0
 328 99 336 118 334 146 c 0
 334 168 328 183 315 190 c 0
 303 198 286 201 264 201 c 2
 149 201 l 1
EndSplineSet
EndChar
StartChar: C
Encoding: 67 67 37
Width: 463
Flags: HW
HStem: -15 23 453 23<190 268>
VStem: 28 412
Fore
347 160 m 1
 441 160 l 1
 441 137 435 113 423 89 c 0
 410 64 394 45 377 31 c 0
 363 18 342 8 318 0 c 0
 293 -9 267 -15 240 -15 c 0
 186 -16 144 0 108 28 c 0
 73 58 50 97 37 148 c 0
 32 170 28 198 28 231 c 0
 28 266 32 295 40 320 c 0
 70 424 138 476 243 476 c 0
 294 476 336 463 370 440 c 0
 415 409 438 366 441 310 c 1
 348 310 l 1
 347 320 344 332 337 346 c 0
 329 359 318 371 301 381 c 0
 284 391 260 397 231 396 c 0
 209 396 191 386 174 373 c 0
 157 358 145 341 137 321 c 0
 129 302 123 275 122 240 c 0
 121 220 123 202 125 186 c 0
 127 171 130 156 137 141 c 0
 150 111 172 88 198 76 c 0
 211 70 224 68 235 68 c 0
 247 68 261 70 276 73 c 0
 305 81 323 94 331 108 c 0
 339 123 345 141 347 160 c 1
EndSplineSet
EndChar
StartChar: D
Encoding: 68 68 38
Width: 463
Flags: HW
HStem: 0 80<146 223 223 247> 389 80<146 146 146 233>
VStem: 50 96<80 389> 340 97<236 266>
Fore
50 0 m 1
 50 469 l 1
 268 469 l 2
 285 469 303 466 321 459 c 0
 338 452 356 441 373 424 c 0
 390 408 403 386 417 359 c 0
 429 333 437 298 437 255 c 0
 437 217 433 183 425 154 c 0
 417 124 406 101 394 82 c 0
 377 56 358 37 334 23 c 0
 311 8 286 0 261 0 c 2
 50 0 l 1
146 389 m 1
 146 80 l 1
 223 80 l 2
 271 80 305 102 324 144 c 0
 334 167 340 200 340 243 c 0
 340 289 331 323 316 346 c 0
 305 363 294 374 280 380 c 0
 267 385 251 389 233 389 c 2
 146 389 l 1
EndSplineSet
EndChar
StartChar: E
Encoding: 69 69 39
Width: 428
Flags: HW
HStem: 0 80<147 401> 201 80<147 372> 389 80<147 390 147 147>
VStem: 51 96<80 201 281 389>
Fore
51 469 m 1
 390 469 l 1
 390 389 l 1
 147 389 l 1
 147 281 l 1
 372 281 l 1
 372 201 l 1
 147 201 l 1
 147 80 l 1
 401 80 l 1
 401 0 l 1
 51 0 l 1
 51 469 l 1
EndSplineSet
EndChar
StartChar: F
Encoding: 70 70 40
Width: 393
Flags: HW
HStem: 0 23 201 80<144 349> 389 80<144 376 144 144>
VStem: 47 96<0 201 281 389>
Fore
47 469 m 1
 376 469 l 1
 376 389 l 1
 144 389 l 1
 144 281 l 1
 349 281 l 1
 349 201 l 1
 144 201 l 1
 144 0 l 1
 47 0 l 1
 47 469 l 1
EndSplineSet
EndChar
StartChar: G
Encoding: 71 71 41
Width: 499
Flags: HW
HStem: -15 23 172 80<269 376> 397 79<240 265>
VStem: 27 93<213 244> 269 188<172 252>
Fore
269 172 m 1
 269 252 l 1
 457 252 l 1
 457 -2 l 1
 399 -2 l 1
 388 56 l 1
 375 42 364 29 354 21 c 1
 344 11 328 3 307 -3 c 0
 287 -11 262 -16 234 -15 c 0
 212 -15 194 -10 181 -6 c 1
 166 -3 155 2 145 8 c 0
 134 14 125 20 116 28 c 0
 107 36 101 42 97 45 c 0
 75 68 58 95 45 128 c 0
 33 160 27 195 27 231 c 0
 27 280 38 327 62 368 c 0
 85 410 118 442 160 460 c 0
 186 471 216 476 250 476 c 0
 280 476 307 472 333 466 c 0
 359 459 382 445 403 425 c 0
 434 394 452 359 457 320 c 1
 368 320 l 1
 360 346 347 365 327 377 c 0
 306 390 282 397 254 397 c 0
 225 397 198 388 172 371 c 1
 155 356 142 336 133 310 c 0
 125 285 120 258 120 229 c 0
 120 195 125 168 136 148 c 0
 162 97 197 69 243 63 c 1
 292 63 325 79 349 107 c 0
 364 127 374 147 376 172 c 1
 269 172 l 1
EndSplineSet
EndChar
StartChar: H
Encoding: 72 72 42
Width: 463
Flags: HW
HStem: 0 23 212 80<140 325> 446 23<44 140 140 140 325 423 423 423>
VStem: 44 96<0 212 293 469> 325 97<0 212 212 212 293 469>
Fore
44 0 m 1
 44 469 l 1
 140 469 l 1
 140 293 l 1
 325 293 l 1
 325 469 l 1
 423 469 l 1
 423 0 l 1
 325 0 l 1
 325 212 l 1
 140 212 l 1
 140 0 l 1
 44 0 l 1
EndSplineSet
EndChar
StartChar: I
Encoding: 73 73 43
Width: 178
Flags: HW
HStem: 0 23 446 23<41 137 137 137>
VStem: 41 96<0 469>
Fore
137 469 m 1
 137 0 l 1
 41 0 l 1
 41 469 l 1
 137 469 l 1
EndSplineSet
EndChar
StartChar: J
Encoding: 74 74 44
Width: 357
Flags: HW
HStem: -15 23 446 23<216 312 312 312>
VStem: 16 96<120 125 125 173> 216 96<119 469>
Fore
216 469 m 1
 312 469 l 1
 312 112 l 2
 312 80 301 53 279 29 c 0
 255 2 220 -14 175 -15 c 0
 133 -16 101 -9 79 2 c 0
 64 10 52 20 43 33 c 0
 34 45 27 59 24 73 c 0
 19 88 16 103 16 120 c 2
 16 173 l 1
 112 173 l 1
 112 125 l 2
 112 111 115 97 122 85 c 0
 129 72 144 66 166 67 c 0
 184 67 197 73 205 84 c 0
 212 94 216 105 216 119 c 2
 216 469 l 1
EndSplineSet
EndChar
StartChar: K
Encoding: 75 75 45
Width: 463
Flags: HW
HStem: 0 23 446 23<47 144 144 144 328 442 442 442>
VStem: 47 96<0 150 263 469>
Fore
47 0 m 1
 47 469 l 1
 144 469 l 1
 144 263 l 1
 328 469 l 1
 442 469 l 1
 257 266 l 1
 461 0 l 1
 345 0 l 1
 193 203 l 1
 144 150 l 1
 144 0 l 1
 47 0 l 1
EndSplineSet
EndChar
StartChar: L
Encoding: 76 76 46
Width: 393
Flags: HW
HStem: 0 80<148 372> 446 23<51 148 148 148>
VStem: 51 97<80 469>
Fore
51 469 m 1
 148 469 l 1
 148 80 l 1
 372 80 l 1
 372 0 l 1
 51 0 l 1
 51 469 l 1
EndSplineSet
EndChar
StartChar: M
Encoding: 77 77 47
Width: 535
Flags: HW
HStem: 0 23 446 23<42 183 183 183 358 499 499 499>
VStem: 42 97<0 380> 402 97<0 380 380 380>
Fore
319 0 m 1
 223 0 l 1
 139 380 l 1
 139 0 l 1
 42 0 l 1
 42 469 l 1
 183 469 l 1
 271 108 l 1
 358 469 l 1
 499 469 l 1
 499 0 l 1
 402 0 l 1
 402 380 l 1
 319 0 l 1
EndSplineSet
EndChar
StartChar: N
Encoding: 78 78 48
Width: 463
Flags: HW
HStem: 0 23 446 23<44 139 139 139 329 425 425 425>
VStem: 44 96<0 327> 329 96<147 469>
Fore
44 469 m 1
 139 469 l 1
 329 147 l 1
 329 469 l 1
 425 469 l 1
 425 0 l 1
 330 0 l 1
 140 327 l 1
 140 0 l 1
 44 0 l 1
 44 469 l 1
EndSplineSet
EndChar
StartChar: O
Encoding: 79 79 49
Width: 499
Flags: HW
HStem: -15 84<234 269> 392 85<234 262>
VStem: 26 93<218 244> 384 93<218 244>
Fore
477 231 m 0
 477 197 470 163 458 129 c 0
 445 94 429 66 408 44 c 0
 371 5 319 -15 252 -15 c 0
 185 -15 133 5 95 44 c 0
 73 66 58 94 45 129 c 0
 33 163 26 197 26 231 c 0
 26 266 33 301 45 333 c 0
 58 367 73 396 95 418 c 0
 133 458 185 477 252 477 c 0
 271 477 289 475 308 471 c 0
 328 467 346 460 363 451 c 0
 380 443 394 432 408 418 c 0
 429 396 445 367 458 333 c 0
 470 301 477 266 477 231 c 0
252 69 m 0
 286 69 314 79 338 101 c 0
 353 114 365 132 373 156 c 0
 381 180 384 205 384 231 c 0
 384 257 381 281 373 305 c 0
 365 329 353 347 338 360 c 0
 314 382 286 392 252 392 c 0
 217 392 189 382 165 360 c 0
 150 347 139 329 131 306 c 0
 123 282 119 257 119 231 c 0
 119 205 123 180 131 157 c 0
 139 133 150 114 165 101 c 0
 189 79 217 69 252 69 c 0
EndSplineSet
EndChar
StartChar: P
Encoding: 80 80 50
Width: 428
Flags: HW
HStem: 0 23 167 80<146 253 253 260> 389 80<146 146 146 249>
VStem: 49 97<0 167 247 389>
Fore
49 0 m 1
 49 469 l 1
 258 469 l 2
 286 469 313 463 337 455 c 0
 362 446 381 426 394 393 c 0
 402 374 407 351 407 323 c 0
 407 293 402 268 394 251 c 0
 368 195 323 167 260 167 c 2
 146 167 l 1
 146 0 l 1
 49 0 l 1
146 389 m 1
 146 247 l 1
 253 247 l 2
 277 247 294 261 306 287 c 0
 306 289 307 295 310 304 c 0
 312 312 313 320 313 328 c 0
 313 337 312 345 310 353 c 0
 302 376 281 389 249 389 c 2
 146 389 l 1
EndSplineSet
EndChar
StartChar: Q
Encoding: 81 81 51
Width: 499
Flags: HW
HStem: -15 84<236 263> 392 85<236 269>
VStem: 28 92<218 244> 386 93<215 244>
Fore
428 66 m 1
 479 17 l 1
 429 -35 l 1
 375 17 l 1
 339 -5 298 -15 253 -15 c 0
 188 -15 136 5 97 44 c 0
 76 66 60 94 47 128 c 0
 35 160 28 195 28 231 c 0
 28 267 35 302 47 334 c 0
 60 367 76 396 97 418 c 0
 136 458 188 477 253 477 c 0
 285 477 314 472 341 462 c 0
 368 452 391 437 409 418 c 0
 432 394 449 366 461 333 c 0
 473 301 479 266 479 231 c 0
 479 200 475 171 466 141 c 0
 457 113 444 87 428 66 c 1
307 81 m 1
 259 127 l 1
 308 180 l 1
 362 129 l 1
 376 155 386 189 386 231 c 0
 386 258 382 282 374 306 c 0
 366 329 354 347 339 360 c 0
 316 382 288 392 253 392 c 0
 219 392 191 382 167 360 c 0
 153 347 141 329 133 305 c 0
 125 281 120 257 120 231 c 0
 120 205 125 181 133 157 c 0
 141 133 153 114 167 101 c 0
 191 79 219 69 253 69 c 0
 273 69 292 73 307 81 c 1
EndSplineSet
EndChar
StartChar: R
Encoding: 82 82 52
Width: 463
Flags: HW
HStem: 0 23 185 80<148 261> 389 80<148 148 148 278>
VStem: 51 97<0 185 266 389> 319 96
Fore
51 0 m 1
 51 469 l 1
 312 469 l 2
 327 469 341 466 357 460 c 0
 372 454 385 445 397 435 c 0
 408 424 416 410 419 394 c 0
 420 389 423 382 424 376 c 0
 425 371 426 365 427 357 c 0
 428 350 429 345 429 339 c 0
 429 324 427 311 424 299 c 0
 418 280 411 267 401 257 c 0
 392 246 379 236 360 226 c 1
 364 224 368 220 375 217 c 0
 381 214 386 210 392 206 c 0
 397 201 401 195 405 188 c 0
 409 180 411 171 412 160 c 0
 414 155 414 138 415 110 c 0
 416 82 417 64 417 56 c 0
 417 45 418 37 421 32 c 0
 425 26 429 21 435 17 c 1
 435 0 l 1
 331 0 l 1
 323 16 319 31 319 44 c 2
 319 138 l 1
 318 148 315 157 311 165 c 0
 305 172 298 177 290 181 c 0
 282 184 272 185 261 185 c 2
 148 185 l 1
 148 0 l 1
 51 0 l 1
148 389 m 1
 148 266 l 1
 279 266 l 2
 293 266 306 271 319 284 c 0
 331 296 337 313 337 336 c 0
 337 371 318 389 278 389 c 2
 148 389 l 1
EndSplineSet
EndChar
StartChar: S
Encoding: 83 83 53
Width: 428
Flags: HW
HStem: -16 79 400 76<179 215>
VStem: 20 388<139 139>
Fore
392 325 m 1
 301 325 l 1
 301 338 297 350 290 362 c 0
 284 373 273 382 259 390 c 0
 244 397 226 400 205 400 c 0
 151 400 123 382 120 346 c 0
 120 331 122 321 125 315 c 0
 130 310 138 304 149 299 c 1
 153 296 160 293 175 289 c 0
 190 285 207 282 228 278 c 0
 249 275 261 271 267 270 c 0
 320 261 357 245 377 224 c 0
 398 202 408 175 408 141 c 0
 408 118 402 94 392 71 c 0
 382 49 367 31 348 18 c 0
 316 -3 268 -15 201 -16 c 0
 186 -16 167 -12 144 -7 c 0
 121 -1 102 7 86 18 c 0
 66 33 50 51 40 72 c 0
 29 94 23 116 20 139 c 1
 114 139 l 1
 114 122 121 105 134 90 c 0
 153 72 182 63 223 63 c 0
 237 63 251 66 266 70 c 0
 280 73 290 79 297 85 c 0
 308 95 314 108 314 127 c 0
 314 141 310 154 299 164 c 0
 293 172 282 177 270 182 c 0
 257 186 238 191 216 195 c 0
 194 199 175 202 159 206 c 0
 142 209 128 212 115 217 c 0
 98 223 84 231 71 241 c 0
 59 251 49 266 42 282 c 0
 34 301 31 322 31 347 c 1
 35 386 52 418 80 442 c 0
 108 464 151 476 207 476 c 0
 234 476 262 473 292 466 c 0
 320 459 346 442 365 417 c 0
 384 392 392 362 392 325 c 1
EndSplineSet
EndChar
StartChar: T
Encoding: 84 84 54
Width: 393
Flags: HW
HStem: 0 23 389 80<9 151 247 384 247 247>
VStem: 151 96<0 389>
Fore
9 469 m 1
 384 469 l 1
 384 389 l 1
 247 389 l 1
 247 0 l 1
 151 0 l 1
 151 389 l 1
 9 389 l 1
 9 469 l 1
EndSplineSet
EndChar
StartChar: U
Encoding: 85 85 55
Width: 463
Flags: HW
HStem: -15 84<220 251> 446 23<49 146 146 146 324 420 420 420>
VStem: 49 97<146 469> 324 96<145 146 146 469>
Fore
324 469 m 1
 420 469 l 1
 420 146 l 2
 420 80 392 32 332 5 c 0
 302 -9 269 -15 236 -15 c 0
 203 -15 174 -9 146 1 c 1
 81 36 49 85 49 146 c 2
 49 469 l 1
 146 469 l 1
 146 145 l 2
 146 123 153 106 165 92 c 0
 177 77 200 69 234 69 c 0
 268 69 292 77 305 92 c 0
 318 106 324 124 324 145 c 2
 324 469 l 1
EndSplineSet
EndChar
StartChar: V
Encoding: 86 86 56
Width: 428
Flags: HW
HStem: 0 23 446 23<16 112 112 112 319 416 416 416>
VStem: 16 400<469 469>
Fore
319 469 m 1
 416 469 l 1
 257 0 l 1
 174 0 l 1
 16 469 l 1
 112 469 l 1
 216 115 l 1
 319 469 l 1
EndSplineSet
EndChar
StartChar: W
Encoding: 87 87 57
Width: 606
Flags: HW
HStem: 0 23 446 23<8 111 111 111 253 355 355 355 497 599 599 599>
VStem: 8 591<469 469>
Fore
8 469 m 1
 111 469 l 1
 183 118 l 1
 253 469 l 1
 355 469 l 1
 425 113 l 1
 497 469 l 1
 599 469 l 1
 468 0 l 1
 381 0 l 1
 303 357 l 1
 226 0 l 1
 139 0 l 1
 8 469 l 1
EndSplineSet
EndChar
StartChar: X
Encoding: 88 88 58
Width: 428
Flags: HW
HStem: 0 23 446 23<21 134 134 134 303 416 416 416>
VStem: 15 405<0 0>
Fore
21 469 m 1
 134 469 l 1
 217 318 l 1
 303 469 l 1
 416 469 l 1
 271 240 l 1
 419 0 l 1
 306 0 l 1
 217 159 l 1
 128 0 l 1
 15 0 l 1
 163 236 l 1
 21 469 l 1
EndSplineSet
EndChar
StartChar: Y
Encoding: 89 89 59
Width: 428
Flags: HW
HStem: 0 23 446 23<17 124 124 124 310 418 418 418>
VStem: 172 96<0 174>
Fore
310 469 m 1
 418 469 l 1
 268 174 l 1
 268 0 l 1
 172 0 l 1
 172 174 l 1
 17 469 l 1
 124 469 l 1
 220 267 l 1
 310 469 l 1
EndSplineSet
EndChar
StartChar: Z
Encoding: 90 90 60
Width: 393
Flags: HW
HStem: 0 80<132 372> 389 80<19 19 372 372>
VStem: 19 353<0 80 389 469>
Fore
19 469 m 1
 372 469 l 1
 372 389 l 1
 132 80 l 1
 372 80 l 1
 372 0 l 1
 19 0 l 1
 19 80 l 1
 259 388 l 1
 19 389 l 1
 19 469 l 1
EndSplineSet
EndChar
StartChar: bracketleft
Encoding: 91 91 61
Width: 213
Flags: HW
HStem: -130 67<127 198> 405 64<127 198 127 127>
VStem: 43 84<-63 405>
Fore
198 405 m 1
 127 405 l 1
 127 -63 l 1
 198 -63 l 1
 198 -130 l 1
 43 -130 l 1
 43 469 l 1
 198 469 l 1
 198 405 l 1
EndSplineSet
EndChar
StartChar: backslash
Encoding: 92 92 62
Width: 178
Flags: HW
HStem: -14 23
VStem: -8 193
Fore
-8 455 m 1
 41 455 l 1
 185 -14 l 1
 138 -14 l 1
 -8 455 l 1
EndSplineSet
EndChar
StartChar: bracketright
Encoding: 93 93 63
Width: 213
Flags: HW
HStem: -130 67<11 82> 405 64<11 82>
VStem: 82 85<-63 405 405 405>
Fore
11 405 m 1
 11 469 l 1
 167 469 l 1
 167 -130 l 1
 11 -130 l 1
 11 -63 l 1
 82 -63 l 1
 82 405 l 1
 11 405 l 1
EndSplineSet
EndChar
StartChar: asciicircum
Encoding: 94 94 64
Width: 375
Flags: HW
VStem: 40 296<174 174>
Fore
40 174 m 1
 147 447 l 1
 226 447 l 1
 336 174 l 1
 263 174 l 1
 188 366 l 1
 112 174 l 1
 40 174 l 1
EndSplineSet
EndChar
StartChar: underscore
Encoding: 95 95 65
Width: 357
Flags: HW
HStem: -129 45<-15 372>
VStem: -15 386<-129 -84>
Fore
372 -84 m 1
 372 -129 l 1
 -15 -129 l 1
 -15 -84 l 1
 372 -84 l 1
EndSplineSet
EndChar
StartChar: grave
Encoding: 96 96 66
Width: 261
VWidth: 2048
Flags: HW
HStem: 379 89<28 229>
Fore
229 379 m 5
 151 379 l 1
 28 468 l 1
 156 468 l 1
 229 379 l 5
EndSplineSet
EndChar
StartChar: a
Encoding: 97 97 67
Width: 357
Flags: HW
HStem: -15 23 233 121
VStem: 17 320
Fore
337 0 m 1
 242 0 l 1
 235 9 232 20 232 35 c 1
 219 23 205 11 185 1 c 0
 166 -9 140 -15 107 -15 c 1
 47 -8 16 28 17 93 c 0
 17 121 27 146 42 165 c 0
 56 184 82 197 119 202 c 1
 149 203 179 209 209 218 c 1
 224 225 232 238 232 258 c 0
 232 268 227 276 217 281 c 0
 207 287 192 289 172 289 c 0
 149 288 133 282 125 272 c 0
 118 262 114 249 113 233 c 1
 28 233 l 1
 29 313 77 354 172 354 c 0
 207 354 234 349 254 341 c 0
 296 325 316 293 316 244 c 2
 316 53 l 2
 316 38 323 25 337 12 c 1
 337 0 l 1
232 145 m 2
 232 164 l 1
 220 158 205 154 184 150 c 0
 164 148 151 147 148 146 c 0
 136 144 127 139 119 131 c 0
 111 123 106 113 106 102 c 0
 106 99 107 95 108 89 c 0
 111 84 114 78 118 73 c 0
 121 69 128 66 136 63 c 0
 144 61 154 60 168 60 c 1
 193 63 210 73 218 88 c 0
 227 103 232 121 232 145 c 2
EndSplineSet
EndChar
StartChar: b
Encoding: 98 98 68
Width: 393
Flags: HW
HStem: -15 77 446 23<38 128 128 128>
VStem: 38 89<0 35 157 180 301 469> 279 90<158 180>
Fore
38 0 m 1
 38 469 l 1
 128 469 l 1
 128 301 l 1
 145 336 179 354 227 354 c 0
 285 353 325 327 347 276 c 0
 363 238 370 205 370 174 c 0
 370 141 360 105 344 66 c 0
 334 46 324 31 312 19 c 1
 301 7 287 -1 271 -7 c 0
 255 -12 237 -15 217 -15 c 0
 181 -14 151 3 128 35 c 1
 128 0 l 1
 38 0 l 1
203 276 m 0
 177 276 157 262 144 236 c 0
 132 215 128 192 128 168 c 0
 128 145 132 122 144 101 c 0
 157 75 177 62 203 62 c 0
 231 62 251 75 263 101 c 0
 273 122 279 145 279 168 c 0
 279 192 273 215 263 236 c 0
 257 251 247 261 237 267 c 0
 226 272 215 276 203 276 c 0
EndSplineSet
EndChar
StartChar: c
Encoding: 99 99 69
Width: 357
Flags: HW
HStem: -15 23 331 23<171 183>
VStem: 21 314
Fore
336 218 m 1
 250 218 l 1
 244 242 236 258 226 264 c 0
 216 271 202 276 183 276 c 0
 153 277 132 259 121 225 c 0
 120 221 120 218 119 214 c 0
 118 209 118 202 116 193 c 0
 115 184 114 175 114 166 c 0
 114 150 115 136 119 123 c 0
 125 98 133 81 144 73 c 0
 154 66 167 61 184 60 c 0
 200 60 214 63 225 71 c 0
 235 79 244 96 250 122 c 1
 336 122 l 1
 336 102 329 81 316 62 c 0
 304 43 292 27 280 17 c 0
 267 6 253 -2 240 -7 c 0
 225 -11 205 -15 179 -15 c 0
 145 -16 116 -8 95 7 c 0
 72 21 56 40 45 61 c 0
 34 82 26 102 25 121 c 0
 23 133 21 149 21 168 c 0
 21 205 27 234 37 255 c 0
 50 284 63 305 78 320 c 0
 93 334 107 344 123 347 c 0
 138 350 158 354 183 354 c 0
 225 355 255 346 275 334 c 0
 293 323 307 306 319 281 c 0
 330 255 336 235 336 218 c 1
EndSplineSet
EndChar
StartChar: d
Encoding: 100 100 70
Width: 393
Flags: HW
HStem: -15 23 277 77<172 186> 446 23<260 350 350 350>
VStem: 260 90<-2 35 35 35 158 181 301 469>
Fore
350 469 m 1
 350 -2 l 1
 260 -2 l 1
 260 35 l 1
 249 18 235 7 219 -1 c 0
 202 -9 186 -15 171 -15 c 0
 151 -16 133 -12 118 -7 c 0
 102 -1 88 7 76 19 c 0
 64 31 54 46 45 66 c 0
 29 101 19 132 19 163 c 0
 18 203 26 241 41 275 c 0
 63 325 103 353 160 354 c 0
 211 354 245 336 260 301 c 1
 260 469 l 1
 350 469 l 1
185 277 m 0
 159 277 139 263 124 237 c 1
 114 215 110 192 110 170 c 0
 110 148 114 124 124 101 c 1
 139 75 159 62 185 62 c 0
 211 62 231 75 245 101 c 1
 255 123 260 146 260 170 c 0
 260 193 257 216 245 237 c 0
 232 263 211 277 185 277 c 0
EndSplineSet
EndChar
StartChar: e
Encoding: 101 101 71
Width: 357
Flags: HW
HStem: -15 23 146 61<105 244> 279 75<181 191>
VStem: 15 322<146 153>
Fore
337 146 m 1
 105 146 l 1
 105 121 108 103 116 90 c 0
 125 78 136 70 147 66 c 0
 159 61 174 59 192 59 c 1
 206 62 217 67 227 73 c 0
 236 81 242 89 244 98 c 1
 333 98 l 1
 328 77 316 56 299 40 c 0
 282 23 262 9 240 0 c 0
 217 -10 195 -15 174 -15 c 0
 144 -15 114 -6 84 11 c 1
 69 21 55 34 45 49 c 0
 34 63 26 79 21 95 c 0
 18 111 16 124 15 137 c 0
 15 168 16 193 18 211 c 0
 25 253 37 284 56 305 c 0
 75 327 94 340 114 346 c 0
 133 351 154 354 175 354 c 0
 207 354 234 348 257 334 c 0
 278 322 295 305 307 286 c 0
 316 271 324 255 328 240 c 0
 332 223 334 208 336 194 c 0
 337 181 337 165 337 146 c 1
105 207 m 1
 244 207 l 1
 244 225 240 241 231 255 c 0
 221 270 205 279 181 279 c 0
 155 280 137 272 124 258 c 0
 112 243 105 226 105 207 c 1
EndSplineSet
EndChar
StartChar: f
Encoding: 102 102 72
Width: 213
Flags: HW
HStem: 0 23 281 60<9 58 148 201> 446 23<142 199 199 199>
VStem: 58 90<0 281 341 377>
Fore
9 281 m 1
 9 341 l 1
 58 341 l 1
 58 382 l 2
 58 409 64 431 79 446 c 0
 94 461 114 469 142 469 c 2
 199 469 l 1
 199 401 l 1
 167 401 l 2
 155 401 148 393 148 377 c 2
 148 341 l 1
 201 341 l 1
 201 281 l 1
 148 281 l 1
 148 0 l 1
 58 0 l 1
 58 281 l 1
 9 281 l 1
EndSplineSet
EndChar
StartChar: g
Encoding: 103 103 73
Width: 393
Flags: HW
HStem: -141 199 272 81<171 177>
VStem: 263 85<-12 -9 -9 36 36 36 296 348>
Fore
263 348 m 1
 348 348 l 1
 348 -9 l 2
 348 -31 342 -51 332 -70 c 0
 322 -88 310 -103 293 -114 c 0
 266 -132 219 -142 153 -141 c 0
 118 -140 88 -128 64 -107 c 0
 41 -88 28 -66 28 -41 c 1
 122 -41 l 1
 122 -60 140 -73 175 -79 c 1
 200 -79 221 -72 238 -59 c 0
 255 -45 263 -29 263 -12 c 2
 263 36 l 1
 253 25 244 16 236 9 c 0
 228 1 218 -5 208 -8 c 0
 198 -12 184 -15 170 -15 c 0
 146 -15 128 -12 114 -7 c 0
 101 -1 86 9 70 24 c 0
 60 34 51 47 44 62 c 0
 36 77 31 93 27 110 c 0
 24 127 21 144 21 163 c 0
 21 192 26 220 35 246 c 0
 44 273 56 295 73 312 c 0
 99 340 132 354 171 354 c 0
 183 354 194 353 205 349 c 0
 212 346 220 341 227 337 c 0
 233 331 238 327 243 321 c 0
 249 315 255 306 263 296 c 1
 263 348 l 1
184 272 m 0
 157 272 136 260 120 234 c 1
 108 210 103 186 103 165 c 0
 103 144 107 121 120 97 c 0
 133 71 156 58 184 58 c 0
 212 58 235 71 249 97 c 0
 260 119 264 141 264 165 c 0
 264 190 259 212 249 234 c 1
 233 260 211 272 184 272 c 0
EndSplineSet
EndChar
StartChar: h
Encoding: 104 104 74
Width: 393
Flags: HW
HStem: 0 23 446 23<43 127 127 127>
VStem: 43 90<0 203> 258 90<0 220 220 228>
Fore
127 469 m 1
 127 303 l 1
 149 337 185 354 234 354 c 0
 264 354 292 346 314 330 c 0
 337 314 348 289 348 254 c 2
 348 0 l 1
 258 0 l 1
 258 220 l 2
 258 235 254 246 250 257 c 0
 244 266 233 271 214 275 c 1
 191 275 172 269 157 258 c 0
 141 245 133 227 133 203 c 2
 133 0 l 1
 43 0 l 1
 43 469 l 1
 127 469 l 1
EndSplineSet
EndChar
StartChar: i
Encoding: 105 105 75
Width: 178
Flags: HW
HStem: 0 23 389 80<43 133>
VStem: 43 90<0 348 389 469>
Fore
43 389 m 1
 43 469 l 1
 133 469 l 1
 133 389 l 1
 43 389 l 1
43 0 m 1
 43 348 l 1
 133 348 l 1
 133 0 l 1
 43 0 l 1
EndSplineSet
EndChar
StartChar: j
Encoding: 106 106 76
Width: 178
Flags: HW
HStem: -141 23 389 80<45 134>
VStem: 45 89<-42 348 389 469>
Fore
45 389 m 1
 45 469 l 1
 134 469 l 1
 134 389 l 1
 45 389 l 1
45 -42 m 2
 45 348 l 1
 134 348 l 1
 134 -64 l 2
 134 -76 132 -86 128 -96 c 0
 123 -106 118 -115 110 -122 c 0
 102 -130 93 -134 82 -136 c 0
 61 -139 35 -141 2 -141 c 1
 2 -67 l 1
 18 -67 29 -66 36 -62 c 0
 42 -59 45 -52 45 -42 c 2
EndSplineSet
EndChar
StartChar: k
Encoding: 107 107 77
Width: 357
Flags: HW
HStem: 0 23 446 23<38 128 128 128>
VStem: 38 89<0 108 212 469>
Fore
38 469 m 1
 128 469 l 1
 128 212 l 1
 242 348 l 1
 345 348 l 1
 227 216 l 1
 353 0 l 1
 246 0 l 1
 165 149 l 1
 128 108 l 1
 128 0 l 1
 38 0 l 1
 38 469 l 1
EndSplineSet
EndChar
StartChar: l
Encoding: 108 108 78
Width: 178
Flags: HW
HStem: 0 23 446 23<43 133 133 133>
VStem: 43 90<0 469>
Fore
43 469 m 1
 133 469 l 1
 133 0 l 1
 43 0 l 1
 43 469 l 1
EndSplineSet
EndChar
StartChar: m
Encoding: 109 109 79
Width: 571
Flags: HW
HStem: 0 23 333 23<403 418>
VStem: 38 89<0 214 296 348> 240 89<0 214> 440 90<0 240 240 242>
Fore
128 0 m 1
 38 0 l 1
 38 348 l 1
 128 348 l 1
 128 296 l 1
 142 318 158 332 173 340 c 0
 188 349 209 354 236 354 c 1
 258 351 272 347 282 340 c 0
 292 333 304 321 319 303 c 1
 330 320 344 333 358 342 c 0
 373 351 391 356 415 356 c 0
 420 356 428 355 441 354 c 0
 501 346 530 308 530 242 c 2
 530 0 l 1
 440 0 l 1
 440 240 l 2
 440 261 424 273 394 277 c 1
 373 277 357 270 346 257 c 0
 334 242 329 228 329 214 c 2
 329 0 l 1
 240 0 l 1
 240 240 l 1
 234 263 218 276 190 277 c 0
 173 277 158 271 146 260 c 0
 133 250 128 234 128 214 c 2
 128 0 l 1
EndSplineSet
EndChar
StartChar: n
Encoding: 110 110 80
Width: 393
Flags: HW
HStem: 0 23 331 23<208 262>
VStem: 41 89<0 223 296 348> 261 90<0 214 214 224>
Fore
41 0 m 1
 41 348 l 1
 130 348 l 1
 130 296 l 1
 139 314 151 329 167 339 c 0
 183 349 200 354 217 354 c 0
 306 354 351 314 351 234 c 2
 351 0 l 1
 261 0 l 1
 261 214 l 2
 261 235 258 251 250 263 c 0
 242 276 224 281 195 281 c 1
 172 278 156 271 146 260 c 0
 137 250 130 237 130 223 c 2
 130 0 l 1
 41 0 l 1
EndSplineSet
EndChar
StartChar: o
Encoding: 111 111 81
Width: 393
Flags: HW
HStem: -16 78<180 208> 277 77<180 208>
VStem: 23 90<158 182>
Fore
194 -16 m 0
 146 -16 105 -1 73 27 c 0
 56 43 45 63 36 89 c 0
 28 114 23 141 23 170 c 0
 23 198 27 225 36 251 c 0
 44 277 56 297 73 312 c 0
 104 340 145 354 194 354 c 0
 244 354 284 340 314 312 c 0
 331 296 345 276 354 251 c 0
 362 226 366 199 366 170 c 0
 366 141 362 114 354 89 c 0
 345 63 331 43 314 27 c 0
 284 -1 243 -16 194 -16 c 0
194 277 m 0
 166 277 145 264 130 238 c 0
 119 217 113 194 113 170 c 0
 113 146 119 123 130 102 c 0
 145 76 166 62 194 62 c 0
 221 62 243 76 259 102 c 1
 270 125 276 148 276 170 c 0
 276 193 271 216 259 238 c 0
 244 266 221 277 194 277 c 0
EndSplineSet
EndChar
StartChar: p
Encoding: 112 112 82
Width: 393
Flags: HW
HStem: -141 23 275 79<213 216>
VStem: 37 89<-141 36 157 177 296 348>
Fore
37 348 m 1
 127 348 l 1
 127 296 l 1
 132 303 137 310 145 318 c 0
 151 325 157 331 164 337 c 0
 170 341 177 346 186 349 c 0
 195 353 207 354 219 354 c 0
 259 354 292 340 318 312 c 0
 333 295 346 273 355 247 c 0
 364 220 368 192 368 163 c 0
 368 134 364 108 356 85 c 0
 348 60 337 40 321 24 c 0
 306 9 292 -1 277 -7 c 0
 263 -12 245 -15 221 -15 c 0
 206 -15 192 -12 182 -8 c 0
 172 -5 163 1 155 8 c 0
 147 14 138 24 127 36 c 1
 127 -141 l 1
 37 -141 l 1
 37 348 l 1
203 275 m 0
 177 275 156 261 141 235 c 1
 131 210 127 188 127 167 c 0
 127 147 131 124 141 99 c 1
 156 73 177 60 203 60 c 0
 229 60 249 73 263 99 c 1
 273 124 278 147 278 167 c 0
 278 188 273 210 263 235 c 1
 249 261 229 275 203 275 c 0
EndSplineSet
EndChar
StartChar: q
Encoding: 113 113 83
Width: 393
Flags: HW
HStem: -141 23 272 81
VStem: 18 90<152 176> 260 89<-141 36 36 36 151 177 296 347>
Fore
349 347 m 1
 349 -141 l 1
 260 -141 l 1
 260 36 l 1
 250 25 241 16 233 9 c 0
 225 1 215 -5 205 -8 c 0
 194 -12 181 -15 166 -15 c 0
 142 -15 123 -12 110 -7 c 0
 96 -1 81 8 66 24 c 0
 50 40 38 60 31 85 c 0
 23 110 18 136 18 163 c 0
 18 192 23 220 32 246 c 0
 41 272 53 295 69 312 c 0
 81 324 95 334 110 342 c 0
 124 350 144 354 167 354 c 0
 192 353 211 348 225 338 c 0
 238 329 250 315 260 296 c 1
 260 347 l 1
 349 347 l 1
184 272 m 0
 158 272 138 259 124 233 c 0
 114 211 108 189 108 164 c 0
 108 140 113 118 124 94 c 0
 137 68 158 54 184 54 c 0
 209 54 231 68 244 94 c 0
 255 115 260 139 260 164 c 0
 260 190 255 212 244 233 c 0
 231 259 210 272 184 272 c 0
EndSplineSet
EndChar
StartChar: r
Encoding: 114 114 84
Width: 249
Flags: HW
HStem: 0 23 331 23<224 237>
VStem: 41 89<0 197 281 348>
Fore
41 0 m 1
 41 348 l 1
 130 348 l 1
 130 281 l 1
 134 293 139 302 145 310 c 0
 150 318 159 325 174 336 c 0
 191 348 211 354 237 354 c 1
 237 262 l 1
 225 263 215 264 206 264 c 0
 186 264 170 260 157 250 c 0
 144 240 134 223 130 197 c 1
 130 0 l 1
 41 0 l 1
EndSplineSet
EndChar
StartChar: s
Encoding: 115 115 85
Width: 357
Flags: HW
HStem: -15 23 331 23<146 166>
VStem: 18 316<103 103>
Fore
18 103 m 1
 107 103 l 1
 111 90 116 81 124 75 c 0
 131 68 139 63 148 60 c 0
 158 56 171 53 185 53 c 0
 223 52 241 66 241 89 c 0
 241 97 238 103 235 108 c 0
 232 114 226 118 218 119 c 2
 106 151 l 2
 78 159 58 172 47 186 c 0
 37 201 32 217 32 236 c 0
 32 273 45 304 73 328 c 0
 95 345 127 354 166 354 c 0
 211 355 247 346 273 329 c 0
 295 315 310 301 316 286 c 0
 322 271 325 254 325 236 c 1
 238 236 l 1
 238 249 236 259 233 264 c 0
 228 270 219 276 205 280 c 0
 193 284 182 286 172 286 c 0
 157 286 144 282 132 276 c 0
 123 271 119 263 119 251 c 0
 119 238 125 232 139 228 c 2
 269 193 l 2
 280 190 290 184 301 176 c 0
 311 168 319 159 325 147 c 0
 331 134 334 122 334 108 c 0
 334 87 329 66 318 44 c 0
 305 23 286 7 259 -3 c 0
 249 -7 235 -9 218 -11 c 0
 201 -14 186 -15 172 -15 c 0
 139 -14 114 -9 95 -1 c 0
 46 20 20 55 18 103 c 1
EndSplineSet
EndChar
StartChar: t
Encoding: 116 116 86
Width: 213
Flags: HW
HStem: -15 23 281 60<9 53 144 193>
VStem: 53 90<76 86 86 281 341 436>
Fore
9 341 m 1
 53 341 l 1
 53 436 l 1
 144 436 l 1
 144 341 l 1
 193 341 l 1
 193 281 l 1
 144 281 l 1
 144 86 l 2
 144 66 148 55 158 55 c 2
 192 54 l 1
 192 -7 l 1
 179 -11 164 -15 149 -15 c 0
 132 -16 118 -14 107 -10 c 0
 77 -1 59 20 53 54 c 1
 53 281 l 1
 9 281 l 1
 9 341 l 1
EndSplineSet
EndChar
StartChar: u
Encoding: 117 117 87
Width: 393
Flags: HW
HStem: -15 23 325 23<37 127 127 127 258 348 348 348>
VStem: 37 89<121 132 132 348> 258 90<0 43 43 43 123 348>
Fore
348 348 m 1
 348 0 l 1
 258 0 l 1
 258 43 l 1
 245 24 233 9 220 1 c 0
 208 -7 191 -11 172 -15 c 1
 147 -14 125 -11 108 -7 c 0
 90 -2 75 9 61 27 c 0
 46 45 37 71 37 106 c 2
 37 348 l 1
 127 348 l 1
 127 132 l 2
 127 111 130 95 138 84 c 0
 146 71 164 66 192 66 c 1
 216 69 233 76 242 86 c 0
 251 96 258 108 258 123 c 2
 258 348 l 1
 348 348 l 1
EndSplineSet
EndChar
StartChar: v
Encoding: 118 118 88
Width: 357
Flags: HW
HStem: 0 23 325 23<9 104 104 104 250 345 345 345>
VStem: 9 336<348 348>
Fore
9 348 m 1
 104 348 l 1
 176 93 l 1
 250 348 l 1
 345 348 l 1
 224 0 l 1
 129 0 l 1
 9 348 l 1
EndSplineSet
EndChar
StartChar: w
Encoding: 119 119 89
Width: 499
Flags: HW
HStem: 0 23 325 23<3 96 96 96 201 295 295 295 399 493 493 493>
VStem: 3 489<348 348>
Fore
3 348 m 1
 96 348 l 1
 150 104 l 1
 201 348 l 1
 295 348 l 1
 345 104 l 1
 399 348 l 1
 493 348 l 1
 396 0 l 1
 303 0 l 1
 249 245 l 1
 193 0 l 1
 101 0 l 1
 3 348 l 1
EndSplineSet
EndChar
StartChar: x
Encoding: 120 120 90
Width: 357
Flags: HW
HStem: 0 23 325 23<14 122 122 122 236 342 342 342>
VStem: 10 333<0 0>
Fore
14 348 m 1
 122 348 l 1
 179 243 l 1
 236 348 l 1
 342 348 l 1
 229 174 l 1
 344 0 l 1
 236 0 l 1
 179 103 l 1
 118 0 l 1
 10 0 l 1
 124 174 l 1
 14 348 l 1
EndSplineSet
EndChar
StartChar: y
Encoding: 121 121 91
Width: 357
Flags: HW
HStem: -141 23 325 23<6 105 105 105 253 346 346 346>
VStem: 6 340<348 348>
Fore
6 348 m 1
 105 348 l 1
 181 95 l 1
 253 348 l 1
 346 348 l 1
 198 -72 l 1
 194 -87 185 -102 172 -116 c 0
 163 -127 146 -132 121 -136 c 0
 97 -139 75 -141 54 -141 c 1
 54 -68 l 1
 82 -68 101 -64 110 -59 c 0
 124 -51 131 -37 131 -20 c 0
 131 -12 130 -6 128 0 c 2
 6 348 l 1
EndSplineSet
EndChar
StartChar: z
Encoding: 122 122 92
Width: 320
Flags: HW
HStem: 0 73<125 301> 275 73<26 185>
VStem: 26 270<275 348>
Fore
26 348 m 1
 296 348 l 1
 296 275 l 1
 125 73 l 1
 301 73 l 1
 301 0 l 1
 14 0 l 1
 14 73 l 1
 185 275 l 1
 26 275 l 1
 26 348 l 1
EndSplineSet
EndChar
StartChar: braceleft
Encoding: 123 123 93
Width: 249
Flags: HW
HStem: 446 23<149 203 203 203>
VStem: 77 73<-38 -33 -33 104 233 235 235 372>
Fore
24 142 m 1
 24 202 l 1
 59 202 77 212 77 233 c 2
 77 381 l 2
 77 408 85 429 102 445 c 0
 119 461 134 469 149 469 c 2
 203 469 l 1
 203 406 l 1
 180 406 l 2
 167 406 158 403 155 398 c 0
 151 392 150 383 150 372 c 2
 150 235 l 2
 150 200 129 179 89 172 c 1
 106 170 120 164 132 156 c 0
 144 147 150 130 150 104 c 2
 150 -33 l 2
 150 -44 153 -52 156 -58 c 0
 159 -63 167 -67 180 -67 c 2
 203 -67 l 1
 203 -130 l 1
 149 -130 l 2
 134 -130 119 -122 102 -106 c 0
 85 -90 77 -69 77 -42 c 2
 77 105 l 2
 77 130 59 142 24 142 c 1
EndSplineSet
EndChar
StartChar: bar
Encoding: 124 124 94
Width: 179
Flags: HW
HStem: 446 23<64 115 115 115>
VStem: 64 51<-130 469>
Fore
115 469 m 1
 115 -130 l 1
 64 -130 l 1
 64 469 l 1
 115 469 l 1
EndSplineSet
EndChar
StartChar: braceright
Encoding: 125 125 95
Width: 249
Flags: HW
HStem: 446 23<46 101 101 106>
VStem: 99 75<-33 104 104 105 235 372 372 377>
Fore
226 202 m 1
 226 142 l 1
 210 142 198 140 189 134 c 0
 179 129 174 120 174 105 c 2
 174 -42 l 2
 174 -70 165 -92 148 -106 c 0
 131 -122 115 -130 101 -130 c 2
 46 -130 l 1
 46 -67 l 1
 70 -67 l 2
 84 -67 92 -63 95 -58 c 0
 98 -52 99 -44 99 -33 c 2
 99 104 l 2
 99 146 121 168 162 173 c 1
 145 174 130 180 118 188 c 0
 105 195 99 211 99 235 c 2
 99 372 l 2
 99 383 98 392 95 398 c 0
 92 403 84 407 70 407 c 2
 46 407 l 1
 46 469 l 1
 101 469 l 2
 111 469 121 466 132 460 c 0
 142 453 153 443 162 429 c 0
 170 416 174 400 174 381 c 2
 174 234 l 2
 174 212 191 202 226 202 c 1
EndSplineSet
EndChar
StartChar: asciitilde
Encoding: 126 126 96
Width: 375
Flags: HW
VStem: 38 295
Fore
84 112 m 1
 38 112 l 1
 43 145 54 170 72 186 c 0
 87 200 102 207 119 207 c 0
 131 207 144 202 156 195 c 2
 221 158 l 2
 235 150 246 146 255 146 c 0
 275 146 284 159 284 186 c 1
 333 186 l 1
 333 173 331 160 328 149 c 0
 324 138 315 125 303 113 c 0
 289 98 275 92 260 92 c 0
 247 92 232 96 214 106 c 2
 142 145 l 2
 132 150 122 154 114 154 c 0
 104 154 96 149 93 141 c 0
 89 133 86 124 84 112 c 1
EndSplineSet
EndChar
StartChar: uni0E10.descless
Encoding: 128 63232 97
Width: 357
Flags: HW
HStem: 0 23
VStem: 226 66<133 186 186 189>
Fore
220 0 m 1
 217 19 209 43 197 73 c 0
 185 103 179 118 177 118 c 1
 175 114 170 108 160 102 c 0
 151 96 138 93 121 93 c 0
 97 93 78 101 66 115 c 0
 52 130 45 147 45 168 c 0
 45 189 52 207 66 221 c 0
 79 236 97 244 121 245 c 0
 142 245 160 241 173 233 c 0
 185 224 194 209 201 189 c 0
 206 180 211 168 217 155 c 0
 223 141 226 134 226 133 c 2
 226 186 l 2
 226 215 223 233 216 241 c 0
 208 249 192 255 167 262 c 0
 141 269 115 276 88 280 c 0
 61 285 41 288 28 289 c 1
 28 314 l 1
 46 339 66 358 87 373 c 0
 107 386 131 393 159 393 c 0
 181 393 206 390 233 381 c 0
 259 373 277 367 287 367 c 0
 299 367 314 371 330 377 c 1
 330 377 331 371 334 358 c 0
 338 346 340 334 341 325 c 1
 320 319 302 315 287 315 c 0
 277 315 268 316 260 318 c 0
 252 320 240 324 224 330 c 0
 207 336 194 339 186 341 c 0
 179 344 170 345 160 345 c 0
 150 345 141 342 131 338 c 0
 121 333 114 329 113 325 c 1
 122 324 137 322 158 319 c 0
 179 315 194 312 205 308 c 0
 243 298 267 285 277 268 c 0
 287 251 292 224 292 189 c 2
 292 0 l 1
 220 0 l 1
121 138 m 0
 131 138 138 141 142 147 c 0
 148 153 150 159 150 168 c 0
 150 176 148 183 142 189 c 0
 138 194 131 198 121 198 c 0
 111 198 104 194 99 189 c 0
 94 183 92 176 92 168 c 0
 92 162 94 155 99 148 c 0
 105 142 112 139 121 138 c 0
EndSplineSet
EndChar
StartChar: uni0E34.left
Encoding: 129 63233 98
Width: 0
Flags: HW
VStem: -461 303
Fore
-299 614 m 0
 -271 614 -247 605 -228 591 c 0
 -210 579 -197 564 -188 547 c 0
 -179 530 -171 512 -167 493 c 0
 -163 472 -160 458 -158 450 c 1
 -170 453 -186 459 -210 466 c 0
 -234 471 -262 477 -293 481 c 0
 -314 485 -338 486 -366 486 c 0
 -388 486 -407 485 -424 484 c 0
 -441 483 -453 481 -461 480 c 1
 -455 519 -437 550 -408 575 c 0
 -379 601 -342 615 -299 614 c 0
-299 568 m 1
 -320 568 -338 565 -354 557 c 0
 -370 549 -380 541 -383 531 c 1
 -380 532 -373 532 -365 533 c 0
 -357 533 -348 533 -338 533 c 0
 -328 533 -315 532 -298 531 c 0
 -276 529 -258 525 -244 522 c 0
 -232 518 -223 514 -218 512 c 1
 -234 545 -261 564 -299 568 c 1
EndSplineSet
EndChar
StartChar: uni0E35.left
Encoding: 130 63234 99
Width: 0
Flags: HW
VStem: -208 60<589 657>
Fore
-286 616 m 0
 -264 616 -247 610 -235 605 c 0
 -221 598 -212 592 -208 589 c 1
 -208 657 l 1
 -148 657 l 1
 -148 501 l 1
 -147 501 -142 484 -136 450 c 1
 -148 453 -168 460 -197 468 c 0
 -225 476 -253 480 -279 484 c 0
 -301 487 -325 488 -354 488 c 0
 -371 488 -384 488 -396 487 c 0
 -406 486 -417 486 -428 485 c 0
 -440 484 -446 483 -447 483 c 1
 -444 506 -435 528 -420 549 c 0
 -406 571 -388 585 -364 598 c 0
 -341 609 -315 617 -286 616 c 0
-287 571 m 1
 -306 571 -323 567 -339 559 c 0
 -356 551 -366 542 -370 532 c 1
 -366 533 -360 533 -353 534 c 0
 -345 536 -333 536 -319 536 c 0
 -311 536 -299 534 -285 533 c 0
 -263 531 -245 528 -232 524 c 0
 -219 520 -210 516 -205 514 c 1
 -211 529 -220 540 -233 550 c 0
 -245 560 -263 567 -287 571 c 1
EndSplineSet
EndChar
StartChar: uni0E36.left
Encoding: 131 63235 100
Width: 0
Flags: HW
VStem: -470 312
Fore
-158 607 m 1
 -158 573 -168 551 -189 541 c 1
 -185 534 -179 523 -173 507 c 0
 -166 490 -162 471 -158 450 c 1
 -171 453 -191 460 -219 468 c 0
 -247 476 -276 480 -302 484 c 0
 -323 487 -348 488 -376 488 c 0
 -393 488 -407 488 -418 487 c 0
 -428 486 -440 486 -451 485 c 0
 -462 484 -469 483 -470 483 c 1
 -467 506 -458 528 -443 549 c 0
 -428 571 -410 585 -386 598 c 0
 -364 609 -338 616 -308 616 c 0
 -305 616 -301 616 -295 615 c 0
 -289 614 -287 614 -286 612 c 1
 -285 622 -279 633 -269 645 c 0
 -259 658 -244 663 -223 663 c 0
 -205 663 -190 658 -179 647 c 0
 -168 637 -162 624 -158 607 c 1
-310 571 m 1
 -329 571 -346 567 -362 559 c 0
 -379 551 -389 544 -392 533 c 1
 -389 534 -383 534 -375 536 c 0
 -367 536 -357 536 -347 536 c 0
 -337 536 -324 534 -307 533 c 0
 -286 531 -268 528 -254 524 c 0
 -242 520 -233 516 -227 514 c 1
 -234 529 -243 540 -255 550 c 0
 -268 560 -286 567 -310 571 c 1
-224 580 m 0
 -218 580 -214 582 -210 586 c 0
 -207 590 -205 594 -205 600 c 0
 -205 605 -207 609 -210 612 c 0
 -214 617 -218 619 -224 619 c 0
 -236 619 -243 612 -243 600 c 0
 -243 586 -236 580 -224 580 c 0
EndSplineSet
EndChar
StartChar: uni0E37.left
Encoding: 132 63236 101
Width: 0
Flags: HW
VStem: -205 56<586 657>
Fore
-205 586 m 1
 -205 657 l 1
 -148 657 l 1
 -148 501 l 1
 -147 501 -142 484 -136 450 c 1
 -148 453 -168 460 -197 468 c 0
 -225 476 -253 480 -279 484 c 0
 -301 487 -325 488 -354 488 c 0
 -371 488 -384 488 -396 487 c 0
 -406 486 -417 486 -428 485 c 0
 -440 484 -446 483 -447 483 c 1
 -434 537 -411 573 -381 590 c 0
 -350 607 -318 616 -284 616 c 1
 -284 657 l 1
 -231 657 l 1
 -231 602 l 1
 -227 602 -219 597 -205 586 c 1
-287 571 m 1
 -306 571 -323 567 -339 559 c 0
 -356 551 -366 542 -370 532 c 1
 -366 533 -360 533 -353 534 c 0
 -345 536 -333 536 -319 536 c 0
 -311 536 -299 534 -285 533 c 0
 -263 531 -245 528 -232 524 c 0
 -219 520 -210 516 -205 514 c 1
 -211 529 -220 540 -233 550 c 0
 -245 560 -263 567 -287 571 c 1
EndSplineSet
EndChar
StartChar: ellipsis
Encoding: 133 8230 102
Width: 593
VWidth: 2048
Flags: HW
HStem: -14 11G<82 123>
VStem: 44 119<35 41> 228 119<33 41> 415 119<33 35>
Fore
348 35 m 4
 348 8 329 -8 290 -14 c 5
 253 -14 233 2 228 34 c 5
 228 68 249 85 289 85 c 4
 306 85 321 79 332 70 c 4
 342 61 348 50 348 35 c 4
534 35 m 5
 534 8 515 -8 476 -14 c 5
 440 -14 419 2 415 34 c 5
 415 68 435 85 475 85 c 4
 492 85 506 79 519 70 c 5
 528 61 533 50 534 35 c 5
163 35 m 4
 163 2 142 -14 103 -14 c 4
 63 -14 44 2 44 35 c 4
 44 68 63 85 103 85 c 4
 142 85 163 68 163 35 c 4
EndSplineSet
EndChar
StartChar: uni0E48.low_left
Encoding: 134 63237 103
Width: 0
Flags: HW
HStem: 454 172<-233 -167>
VStem: -233 66<454 626>
Fore
-233 454 m 1
 -233 626 l 1
 -167 626 l 1
 -167 454 l 1
 -233 454 l 1
EndSplineSet
EndChar
StartChar: uni0E49.low_left
Encoding: 135 63238 104
Width: 0
Flags: HW
VStem: -362 276
Fore
-219 566 m 0
 -220 545 -224 530 -228 520 c 0
 -234 510 -237 504 -241 503 c 1
 -237 504 -233 504 -227 505 c 0
 -221 506 -216 508 -209 512 c 0
 -201 515 -194 519 -186 524 c 0
 -179 530 -173 536 -168 544 c 0
 -156 568 -149 591 -149 610 c 0
 -149 622 -149 631 -150 636 c 1
 -86 636 l 1
 -86 554 -113 498 -167 472 c 0
 -199 458 -235 450 -275 450 c 0
 -287 450 -297 450 -306 451 c 0
 -315 452 -321 453 -324 454 c 1
 -324 477 l 1
 -321 478 -315 481 -310 487 c 0
 -304 492 -299 497 -298 503 c 1
 -301 503 -307 505 -320 508 c 0
 -332 512 -341 520 -349 532 c 0
 -357 544 -362 557 -362 573 c 0
 -362 592 -355 608 -342 620 c 0
 -330 634 -313 641 -293 641 c 0
 -276 641 -262 637 -252 629 c 0
 -241 622 -233 612 -227 600 c 0
 -221 589 -219 577 -219 566 c 0
-293 549 m 0
 -286 549 -280 551 -277 556 c 0
 -273 560 -271 566 -271 572 c 0
 -271 577 -273 582 -277 586 c 0
 -280 591 -286 593 -293 593 c 0
 -299 593 -305 591 -308 586 c 0
 -313 582 -315 577 -315 572 c 0
 -315 566 -313 562 -308 556 c 0
 -305 551 -301 549 -293 549 c 0
EndSplineSet
EndChar
StartChar: uni0E4A.low_left
Encoding: 136 63239 105
Width: 0
Flags: HW
VStem: -426 292
Fore
-359 445 m 0
 -379 446 -394 454 -407 471 c 0
 -419 488 -427 508 -426 532 c 0
 -426 554 -418 571 -407 585 c 0
 -396 600 -380 607 -359 607 c 0
 -345 607 -334 605 -328 599 c 0
 -320 593 -315 590 -313 586 c 1
 -310 590 -305 593 -298 599 c 0
 -290 605 -281 607 -269 607 c 0
 -250 607 -234 601 -224 589 c 0
 -214 576 -209 560 -209 539 c 0
 -209 521 -214 504 -223 488 c 1
 -219 489 -215 493 -209 497 c 0
 -203 502 -198 507 -193 515 c 0
 -185 531 -181 547 -181 563 c 0
 -181 573 -182 583 -184 593 c 1
 -139 609 l 1
 -136 602 -134 591 -134 576 c 0
 -134 544 -142 516 -158 494 c 0
 -170 477 -185 466 -205 460 c 0
 -224 454 -247 452 -276 452 c 1
 -276 453 -276 455 -277 461 c 0
 -278 467 -278 470 -278 470 c 1
 -275 473 -269 479 -263 488 c 0
 -258 497 -254 510 -254 524 c 0
 -253 550 -262 563 -279 563 c 0
 -287 563 -293 560 -297 557 c 0
 -303 554 -306 550 -308 548 c 1
 -311 550 -315 554 -323 558 c 0
 -330 563 -338 565 -348 565 c 0
 -366 565 -375 557 -376 540 c 1
 -375 541 -372 541 -367 542 c 0
 -363 544 -358 545 -353 545 c 0
 -338 544 -327 539 -320 530 c 0
 -312 520 -308 507 -308 490 c 0
 -308 478 -313 468 -323 459 c 0
 -333 450 -345 445 -359 445 c 0
-360 511 m 0
 -371 511 -376 506 -376 496 c 0
 -376 493 -375 489 -372 486 c 0
 -368 483 -365 480 -360 480 c 0
 -356 480 -353 481 -349 485 c 0
 -347 488 -346 493 -346 496 c 0
 -346 499 -347 503 -349 506 c 0
 -353 510 -356 511 -360 511 c 0
EndSplineSet
EndChar
StartChar: uni0E4B.low_left
Encoding: 137 63240 106
Width: 0
Flags: HW
HStem: 519 60<-340 -275 -212 -147>
VStem: -275 62<454 519 579 643>
Fore
-275 519 m 1
 -340 519 l 1
 -340 579 l 1
 -275 579 l 1
 -275 643 l 1
 -212 643 l 1
 -212 579 l 1
 -147 579 l 1
 -147 519 l 1
 -212 519 l 1
 -212 454 l 1
 -275 454 l 1
 -275 519 l 1
EndSplineSet
EndChar
StartChar: uni0E4C.low_left
Encoding: 138 63241 107
Width: 0
Flags: HW
VStem: -313 250
Fore
-127 596 m 0
 -160 590 -193 588 -225 588 c 0
 -206 588 -191 582 -180 570 c 0
 -168 558 -160 544 -160 525 c 0
 -159 506 -166 489 -177 476 c 0
 -189 462 -205 454 -226 454 c 0
 -252 453 -273 461 -289 476 c 0
 -305 490 -313 511 -313 536 c 0
 -312 580 -294 609 -260 626 c 0
 -245 633 -224 637 -195 638 c 0
 -167 641 -148 644 -137 649 c 0
 -125 653 -120 664 -120 684 c 1
 -63 684 l 1
 -63 661 -68 642 -78 626 c 0
 -88 610 -105 600 -127 596 c 0
-229 542 m 0
 -236 542 -242 540 -246 537 c 1
 -250 532 -252 527 -252 521 c 0
 -252 515 -250 511 -246 506 c 0
 -242 502 -236 499 -229 499 c 0
 -223 499 -217 502 -214 506 c 0
 -210 510 -208 515 -208 521 c 0
 -208 536 -215 542 -229 542 c 0
EndSplineSet
EndChar
StartChar: uni0E48.low
Encoding: 139 63242 108
Width: 0
Flags: HW
HStem: 454 172<-120 -54>
VStem: -120 66<454 626>
Fore
-120 454 m 1
 -120 626 l 1
 -54 626 l 1
 -54 454 l 1
 -120 454 l 1
EndSplineSet
EndChar
StartChar: uni0E49.low
Encoding: 140 63243 109
Width: 0
Flags: HW
VStem: -289 275
Fore
-148 566 m 0
 -149 545 -151 529 -157 519 c 0
 -162 510 -165 504 -168 503 c 1
 -166 503 -160 504 -150 507 c 0
 -141 510 -131 513 -121 519 c 0
 -111 524 -103 533 -96 544 c 0
 -84 567 -77 590 -77 612 c 0
 -77 623 -77 631 -78 636 c 1
 -15 636 l 1
 -15 554 -42 498 -96 472 c 0
 -127 458 -163 450 -202 450 c 0
 -215 450 -225 450 -234 451 c 0
 -243 452 -249 453 -252 454 c 1
 -252 477 l 1
 -249 478 -243 481 -237 487 c 0
 -232 492 -227 497 -226 503 c 1
 -228 503 -236 505 -249 508 c 0
 -261 512 -270 520 -278 532 c 0
 -286 545 -289 558 -289 573 c 0
 -289 591 -282 607 -270 620 c 0
 -258 634 -241 641 -220 641 c 0
 -197 641 -179 633 -166 617 c 0
 -154 602 -148 585 -148 566 c 0
-221 549 m 0
 -215 549 -209 551 -205 556 c 0
 -201 562 -199 566 -199 572 c 0
 -199 577 -201 582 -205 586 c 0
 -209 591 -215 593 -221 593 c 0
 -228 593 -234 591 -237 586 c 0
 -242 582 -244 577 -244 572 c 0
 -244 566 -242 562 -237 556 c 0
 -234 551 -229 549 -221 549 c 0
EndSplineSet
EndChar
StartChar: uni0E4A.low
Encoding: 141 63244 110
Width: 0
Flags: HW
VStem: -339 318
Fore
-267 449 m 0
 -288 449 -306 459 -319 478 c 0
 -332 497 -340 519 -339 542 c 0
 -339 565 -331 584 -319 600 c 0
 -306 616 -288 624 -267 624 c 0
 -259 624 -251 623 -244 620 c 0
 -238 618 -233 616 -229 614 c 0
 -226 611 -224 609 -220 607 c 0
 -218 605 -217 602 -216 601 c 1
 -212 605 -207 609 -199 615 c 0
 -191 620 -181 624 -168 624 c 0
 -147 624 -131 617 -119 605 c 1
 -108 591 -103 573 -103 549 c 0
 -103 530 -108 511 -119 494 c 1
 -115 495 -111 498 -104 503 c 0
 -98 507 -92 514 -86 523 c 0
 -76 539 -71 558 -71 580 c 0
 -71 592 -73 605 -78 617 c 1
 -26 627 l 1
 -23 617 -21 605 -21 592 c 0
 -21 555 -31 524 -49 499 c 0
 -61 481 -77 469 -98 463 c 0
 -120 458 -146 454 -176 454 c 1
 -176 455 -176 458 -176 462 c 0
 -177 468 -177 471 -177 475 c 1
 -174 478 -168 485 -163 495 c 0
 -156 505 -153 518 -153 533 c 0
 -153 562 -162 576 -180 576 c 0
 -189 576 -197 574 -203 570 c 0
 -209 566 -214 563 -217 559 c 1
 -217 559 l 1
 -217 560 -218 562 -221 565 c 0
 -226 568 -231 571 -235 574 c 0
 -241 576 -247 577 -254 577 c 0
 -275 577 -285 568 -286 551 c 1
 -284 553 -280 554 -276 555 c 0
 -271 556 -266 557 -259 557 c 0
 -243 556 -232 550 -224 540 c 0
 -216 529 -211 514 -211 497 c 0
 -211 485 -217 473 -227 463 c 0
 -237 453 -251 449 -267 449 c 0
-261 521 m 0
 -272 521 -278 515 -278 505 c 0
 -278 494 -272 488 -261 488 c 0
 -250 488 -244 494 -244 505 c 0
 -244 510 -245 513 -247 516 c 0
 -251 520 -255 521 -261 521 c 0
EndSplineSet
EndChar
StartChar: uni0E4B.low
Encoding: 142 63245 111
Width: 0
Flags: HW
HStem: 519 60<-245 -179 -118 -52>
VStem: -179 61<454 519 579 643>
Fore
-179 519 m 1
 -245 519 l 1
 -245 579 l 1
 -179 579 l 1
 -179 643 l 1
 -118 643 l 1
 -118 579 l 1
 -52 579 l 1
 -52 519 l 1
 -118 519 l 1
 -118 454 l 1
 -179 454 l 1
 -179 519 l 1
EndSplineSet
EndChar
StartChar: uni0E4C.low
Encoding: 143 63246 112
Width: 0
Flags: HW
VStem: -250 250
Fore
-63 596 m 0
 -81 592 -99 591 -116 590 c 0
 -133 589 -149 588 -162 588 c 0
 -142 588 -128 582 -116 570 c 1
 -104 558 -97 544 -97 525 c 0
 -96 506 -103 489 -114 476 c 0
 -127 462 -142 455 -163 455 c 0
 -191 455 -212 463 -227 478 c 0
 -242 493 -251 512 -250 536 c 0
 -250 557 -244 575 -235 591 c 0
 -227 606 -214 618 -197 626 c 0
 -182 633 -160 637 -132 640 c 0
 -104 641 -85 644 -72 649 c 0
 -62 652 -56 664 -56 684 c 1
 0 684 l 1
 0 633 -21 603 -63 596 c 0
-166 544 m 0
 -173 544 -179 541 -183 537 c 0
 -186 532 -189 528 -189 522 c 0
 -189 516 -186 512 -183 506 c 0
 -180 502 -174 499 -166 499 c 0
 -159 499 -154 502 -150 506 c 0
 -147 511 -145 516 -145 522 c 0
 -145 528 -147 533 -150 538 c 1
 -155 541 -160 544 -166 544 c 0
EndSplineSet
EndChar
StartChar: uni0E0D.descless
Encoding: 144 63247 113
Width: 540
Flags: HW
HStem: 0 59<236 273 339 393>
VStem: 63 67<137 186 186 191> 273 66<59 279> 420 66<92 384>
Fore
486 384 m 1
 486 73 l 2
 486 52 483 36 477 26 c 0
 471 16 461 9 449 6 c 0
 436 2 417 0 393 0 c 2
 236 0 l 1
 236 59 l 1
 273 59 l 1
 273 289 l 2
 273 307 267 321 252 331 c 0
 237 341 217 346 193 347 c 0
 183 347 168 345 149 339 c 0
 130 333 115 325 107 315 c 1
 114 314 125 312 141 306 c 0
 156 302 171 295 184 285 c 1
 184 253 l 1
 172 253 160 250 148 242 c 0
 136 234 130 217 130 191 c 2
 130 137 l 1
 131 138 131 138 132 138 c 0
 136 138 l 0
 150 138 164 134 175 128 c 0
 185 121 194 112 200 101 c 0
 206 89 208 78 208 66 c 0
 208 53 206 42 200 31 c 0
 194 19 185 10 175 3 c 0
 164 -3 150 -7 136 -7 c 0
 113 -7 95 0 82 15 c 0
 70 28 63 45 63 67 c 2
 63 186 l 2
 63 208 66 225 71 237 c 0
 77 250 86 261 99 270 c 1
 94 272 85 276 72 279 c 0
 60 282 45 286 29 287 c 1
 29 308 l 1
 38 323 58 340 86 362 c 0
 115 383 156 393 209 393 c 0
 234 393 255 390 272 382 c 0
 289 374 303 365 312 354 c 0
 322 341 329 329 332 316 c 0
 337 303 339 290 339 279 c 2
 339 59 l 1
 393 59 l 2
 406 59 414 61 417 64 c 0
 419 68 420 77 420 92 c 2
 420 384 l 1
 486 384 l 1
137 35 m 0
 142 35 148 36 154 40 c 0
 158 43 162 46 164 51 c 0
 166 55 167 60 167 66 c 0
 167 75 165 82 159 88 c 0
 154 94 147 96 137 96 c 0
 127 96 120 93 114 87 c 0
 108 81 105 73 105 66 c 0
 105 58 108 51 114 45 c 0
 120 38 127 35 137 35 c 0
EndSplineSet
EndChar
StartChar: quoteleft
Encoding: 145 8216 114
Width: 160
VWidth: 2048
Flags: HW
Fore
18 434 m 4
 17 470 28 497 53 520 c 5
 78 542 102 556 125 558 c 5
 134 540 l 5
 115 530 103 522 96 516 c 5
 86 508 79 495 77 479 c 5
 90 479 104 475 116 468 c 4
 129 460 136 446 137 424 c 5
 137 410 132 398 122 384 c 5
 114 374 102 370 86 370 c 4
 63 370 46 375 36 386 c 5
 24 399 18 415 18 434 c 4
EndSplineSet
EndChar
StartChar: quoteright
Encoding: 146 8217 115
Width: 159
VWidth: 2048
Flags: HW
Fore
140 486 m 4
 148 451 141 421 120 396 c 5
 101 368 79 351 56 345 c 5
 45 360 l 5
 61 374 72 384 78 391 c 4
 87 400 92 414 90 431 c 5
 77 428 63 429 49 435 c 4
 36 441 26 453 21 473 c 4
 19 487 21 501 28 515 c 4
 35 528 46 534 62 537 c 4
 85 541 102 539 114 529 c 5
 128 519 137 505 140 486 c 4
EndSplineSet
EndChar
StartChar: quotedblleft
Encoding: 147 8220 116
Width: 323
VWidth: 2048
Flags: HW
Fore
17 432 m 4
 15 467 26 495 51 518 c 5
 75 541 98 555 121 558 c 5
 131 541 l 5
 113 530 101 522 93 516 c 4
 82 507 77 495 75 478 c 5
 89 478 102 475 115 468 c 4
 128 461 134 446 136 424 c 4
 137 409 132 397 122 384 c 4
 114 374 102 368 86 368 c 4
 63 367 47 374 36 385 c 4
 24 398 17 412 17 432 c 4
171 436 m 4
 168 470 180 498 205 522 c 5
 227 545 251 558 275 562 c 5
 284 545 l 5
 267 534 254 525 246 519 c 4
 236 511 231 498 228 481 c 5
 241 481 255 478 268 471 c 4
 280 463 287 449 289 427 c 4
 289 412 285 400 276 388 c 4
 268 377 255 372 240 372 c 4
 216 372 199 376 189 389 c 5
 177 400 171 416 171 436 c 4
EndSplineSet
EndChar
StartChar: quotedblright
Encoding: 148 8221 117
Width: 324
VWidth: 2048
Flags: HW
HStem: 539 11G<58 77 211 231>
Fore
287 472 m 4
 288 438 277 410 251 388 c 4
 227 365 203 353 180 349 c 5
 171 367 l 5
 189 376 201 385 209 391 c 4
 219 400 226 412 228 428 c 5
 214 428 201 433 189 440 c 4
 176 447 170 461 168 484 c 4
 168 498 173 511 183 522 c 4
 191 533 203 539 219 539 c 4
 242 539 259 532 269 520 c 5
 281 508 287 493 287 472 c 4
133 472 m 4
 136 438 123 410 97 388 c 5
 73 365 50 353 26 349 c 5
 17 367 l 5
 35 376 47 385 55 391 c 4
 66 399 71 411 75 428 c 5
 62 428 49 433 35 440 c 4
 23 447 16 462 15 484 c 4
 15 498 19 511 29 522 c 4
 37 533 50 539 66 539 c 4
 89 539 106 532 116 520 c 5
 128 510 133 494 133 472 c 4
EndSplineSet
EndChar
StartChar: bullet
Encoding: 149 8226 118
Width: 203
VWidth: 2048
Flags: HW
Fore
96 113 m 0
 62 113 35 124 16 146 c 0
 -3 167 -12 192 -12 221 c 0
 -12 241 -8 259 0 275 c 0
 10 292 23 306 37 315 c 0
 53 325 73 330 96 330 c 0
 120 330 140 325 156 315 c 0
 172 305 184 292 193 276 c 1
 201 259 205 241 205 221 c 0
 205 192 195 166 176 145 c 0
 158 124 131 113 96 113 c 0
EndSplineSet
EndChar
StartChar: endash
Encoding: 150 8211 119
Width: 601
VWidth: 2048
Flags: HW
HStem: 189 37<-37 602>
Fore
-37 226 m 1
 602 226 l 1
 602 189 l 1
 -37 189 l 1
 -37 226 l 1
EndSplineSet
EndChar
StartChar: emdash
Encoding: 151 8212 120
Width: 1203
VWidth: 2048
Flags: HW
HStem: 189 37<-73 1205>
Fore
-73 226 m 1
 1205 226 l 1
 1205 189 l 1
 -73 189 l 1
 -73 226 l 1
EndSplineSet
EndChar
StartChar: uni0E31.left
Encoding: 152 63248 121
Width: 0
Flags: HW
VStem: -330 328
Fore
-255 616 m 0
 -233 616 -216 609 -203 596 c 0
 -191 581 -185 564 -185 542 c 0
 -185 534 -186 528 -189 521 c 0
 -191 515 -193 511 -195 507 c 1
 -167 507 -141 514 -118 528 c 0
 -94 540 -73 566 -56 606 c 1
 -2 585 l 1
 -9 558 -23 534 -41 515 c 0
 -60 495 -80 479 -106 469 c 0
 -132 459 -160 453 -190 453 c 0
 -200 453 -208 453 -214 454 c 0
 -245 458 -272 468 -296 483 c 0
 -319 497 -331 516 -330 542 c 0
 -330 564 -322 581 -310 596 c 0
 -297 609 -279 616 -255 616 c 0
-255 516 m 0
 -246 516 -240 519 -235 524 c 0
 -231 530 -228 537 -228 544 c 0
 -228 551 -231 557 -235 563 c 0
 -240 568 -246 571 -255 571 c 0
 -264 571 -271 568 -276 563 c 0
 -280 557 -282 551 -282 544 c 0
 -282 537 -280 530 -276 524 c 0
 -271 519 -264 516 -255 516 c 0
EndSplineSet
EndChar
StartChar: uni0E4D.left
Encoding: 153 63249 122
Width: 0
Flags: HW
HStem: 454 153<-257 -233>
VStem: -322 153<521 541>
Fore
-245 607 m 0
 -221 607 -202 600 -189 584 c 0
 -175 570 -170 551 -170 531 c 0
 -170 511 -176 493 -190 477 c 0
 -203 462 -221 454 -245 454 c 0
 -269 454 -288 462 -302 477 c 0
 -315 493 -322 511 -322 531 c 0
 -322 551 -315 570 -302 584 c 0
 -289 599 -270 607 -245 607 c 0
-245 501 m 0
 -236 501 -229 504 -224 510 c 0
 -218 515 -216 523 -216 531 c 0
 -216 539 -218 546 -224 551 c 0
 -229 557 -236 560 -245 560 c 0
 -254 560 -261 558 -267 553 c 0
 -272 547 -275 539 -275 531 c 0
 -275 523 -272 515 -267 510 c 0
 -261 504 -254 501 -245 501 c 0
EndSplineSet
EndChar
StartChar: uni0E47.left
Encoding: 154 63250 123
Width: 0
Flags: HW
VStem: -418 279
Fore
-210 454 m 0
 -220 454 -231 457 -240 462 c 0
 -250 468 -259 475 -269 483 c 0
 -279 490 -287 497 -295 502 c 0
 -303 506 -311 508 -319 508 c 0
 -327 508 -332 503 -338 490 c 0
 -344 478 -346 464 -346 452 c 1
 -360 452 l 1
 -375 460 -389 475 -400 494 c 0
 -412 513 -418 533 -418 553 c 0
 -418 563 -417 572 -414 580 c 0
 -406 599 -396 611 -382 618 c 0
 -368 625 -349 628 -324 628 c 0
 -312 628 -303 628 -296 627 c 0
 -272 626 -255 625 -247 625 c 0
 -227 625 -212 628 -205 635 c 0
 -195 641 -191 654 -191 675 c 1
 -139 675 l 1
 -139 641 -148 617 -165 602 c 0
 -182 588 -210 580 -250 580 c 0
 -269 580 -285 581 -297 582 c 0
 -321 582 -338 579 -348 573 c 0
 -358 567 -363 554 -363 534 c 1
 -362 539 -357 545 -349 550 c 0
 -341 556 -330 559 -313 559 c 0
 -299 559 -288 557 -280 551 c 0
 -272 546 -267 541 -263 538 c 1
 -255 559 -238 571 -210 571 c 0
 -191 571 -176 565 -166 555 c 0
 -156 545 -151 530 -151 513 c 0
 -151 496 -157 481 -167 471 c 0
 -177 460 -192 454 -210 454 c 0
-210 495 m 0
 -205 495 -200 497 -197 501 c 0
 -193 504 -192 507 -192 513 c 0
 -192 518 -193 522 -197 525 c 0
 -200 529 -205 530 -210 530 c 0
 -216 530 -219 528 -223 524 c 0
 -226 521 -227 516 -227 513 c 0
 -227 508 -226 504 -223 501 c 0
 -219 497 -216 495 -210 495 c 0
EndSplineSet
EndChar
StartChar: uni0E48.left
Encoding: 155 63251 124
Width: 0
Flags: HW
HStem: 699 132<-231 -171>
VStem: -231 60<699 832>
Fore
-231 699 m 1
 -231 832 l 1
 -171 832 l 1
 -171 699 l 1
 -231 699 l 1
EndSplineSet
EndChar
StartChar: uni0E49.left
Encoding: 156 63252 125
Width: 0
Flags: HW
VStem: -315 232
Fore
-195 770 m 0
 -197 751 -199 738 -203 730 c 0
 -207 722 -210 716 -212 715 c 1
 -211 715 -206 716 -198 719 c 0
 -190 721 -182 724 -173 730 c 0
 -164 736 -157 742 -151 750 c 0
 -145 762 -140 773 -139 784 c 0
 -137 794 -136 809 -136 828 c 1
 -84 828 l 1
 -84 757 -106 710 -150 689 c 0
 -179 676 -209 670 -240 670 c 0
 -250 670 -259 671 -267 672 c 0
 -275 673 -280 673 -284 675 c 1
 -284 694 l 1
 -280 695 -277 698 -271 702 c 0
 -266 705 -263 710 -262 715 c 1
 -263 715 -270 716 -280 720 c 0
 -290 723 -299 730 -305 740 c 0
 -312 750 -315 762 -315 775 c 0
 -315 791 -310 805 -298 816 c 0
 -288 827 -273 833 -257 833 c 0
 -237 833 -221 826 -211 814 c 0
 -201 800 -195 785 -195 770 c 0
-258 755 m 0
 -245 755 -238 762 -238 774 c 0
 -238 780 -240 784 -243 788 c 0
 -246 791 -252 793 -258 793 c 0
 -263 793 -269 791 -272 788 c 0
 -276 784 -277 780 -277 774 c 0
 -277 770 -275 765 -271 760 c 0
 -268 757 -263 755 -258 755 c 0
EndSplineSet
EndChar
StartChar: uni0E4A.left
Encoding: 157 63253 126
Width: 0
Flags: HW
VStem: -367 278
Fore
-303 673 m 0
 -322 675 -337 683 -349 699 c 0
 -362 715 -367 734 -367 756 c 1
 -365 777 -358 794 -348 807 c 0
 -338 820 -322 827 -303 827 c 0
 -295 827 -287 826 -281 824 c 0
 -264 814 l 0
 -261 810 -259 808 -259 808 c 1
 -259 808 l 1
 -257 811 -252 815 -244 820 c 0
 -237 825 -228 827 -218 827 c 0
 -199 827 -184 822 -175 810 c 0
 -165 799 -160 783 -160 764 c 0
 -160 746 -165 729 -173 714 c 1
 -170 715 -166 719 -160 724 c 0
 -155 729 -149 734 -146 740 c 0
 -138 755 -133 770 -133 786 c 0
 -133 794 -134 805 -137 815 c 1
 -94 829 l 1
 -90 820 -89 810 -89 800 c 0
 -89 768 -97 741 -113 720 c 0
 -124 704 -139 694 -157 688 c 0
 -176 683 -199 680 -225 680 c 1
 -225 684 -225 686 -225 689 c 0
 -226 693 -226 695 -226 698 c 1
 -223 702 -218 707 -212 715 c 0
 -207 723 -205 734 -203 749 c 0
 -203 759 -205 768 -208 776 c 0
 -211 783 -217 786 -227 786 c 0
 -234 786 -240 784 -244 781 c 0
 -250 777 -253 775 -254 772 c 1
 -254 772 l 1
 -254 773 -255 774 -259 776 c 0
 -263 779 -268 781 -273 784 c 0
 -279 786 -286 788 -293 788 c 0
 -310 788 -319 780 -320 765 c 1
 -319 766 -315 766 -311 767 c 0
 -307 768 -303 768 -297 768 c 0
 -284 768 -273 764 -266 755 c 0
 -258 746 -254 733 -254 718 c 0
 -254 706 -259 696 -268 687 c 0
 -278 678 -289 673 -303 673 c 0
-304 736 m 0
 -314 736 -319 731 -319 722 c 0
 -319 712 -314 707 -304 707 c 0
 -294 707 -289 712 -289 722 c 0
 -289 731 -294 736 -304 736 c 0
EndSplineSet
EndChar
StartChar: uni0E4B.left
Encoding: 158 63254 127
Width: 0
Flags: HW
HStem: 728 52<-285 -228 -172 -115>
VStem: -228 56<679 728 780 829>
Fore
-228 728 m 1
 -285 728 l 1
 -285 780 l 1
 -228 780 l 1
 -228 829 l 1
 -172 829 l 1
 -172 780 l 1
 -115 780 l 1
 -115 728 l 1
 -172 728 l 1
 -172 679 l 1
 -228 679 l 1
 -228 728 l 1
EndSplineSet
EndChar
StartChar: uni0E4C.left
Encoding: 159 63255 128
Width: 0
Flags: HW
VStem: -356 212
Fore
-198 759 m 0
 -225 755 -245 755 -258 754 c 0
 -270 753 -278 753 -281 753 c 0
 -264 753 -252 748 -242 738 c 0
 -233 728 -226 715 -226 701 c 0
 -225 684 -231 669 -241 658 c 0
 -251 646 -264 640 -282 640 c 0
 -305 638 -323 646 -336 659 c 0
 -349 671 -356 687 -356 709 c 0
 -356 746 -341 772 -311 785 c 0
 -297 791 -279 796 -255 797 c 0
 -232 798 -216 801 -206 805 c 0
 -195 808 -191 818 -191 834 c 1
 -144 834 l 1
 -144 815 -148 798 -157 785 c 0
 -165 772 -179 762 -198 759 c 0
-286 715 m 0
 -298 715 -304 710 -304 697 c 0
 -304 685 -298 678 -286 678 c 0
 -273 678 -268 685 -268 697 c 0
 -268 702 -269 706 -272 710 c 0
 -276 713 -280 715 -286 715 c 0
EndSplineSet
EndChar
StartChar: uni0E01
Encoding: 161 3585 130
Width: 416
Flags: HW
HStem: 0 23 344 50<194 217>
VStem: 63 67<0 186 186 191> 297 66<0 261 261 267>
Fore
99 270 m 1
 94 272 85 276 72 279 c 0
 60 282 45 286 29 287 c 1
 29 308 l 1
 32 312 36 318 43 325 c 0
 50 333 61 342 76 354 c 0
 90 364 110 374 132 382 c 0
 154 390 180 393 209 393 c 0
 240 393 266 389 288 380 c 0
 311 370 329 356 342 337 c 0
 356 318 363 295 363 267 c 2
 363 0 l 1
 297 0 l 1
 297 261 l 2
 297 288 288 310 271 323 c 0
 253 338 231 344 203 344 c 0
 171 344 139 333 108 314 c 1
 112 313 116 312 123 311 c 0
 131 310 140 306 151 303 c 0
 163 298 174 293 184 285 c 1
 184 253 l 1
 172 253 160 250 148 242 c 0
 136 234 130 217 130 191 c 2
 130 0 l 1
 63 0 l 1
 63 186 l 2
 63 208 66 225 71 237 c 0
 77 250 86 261 99 270 c 1
EndSplineSet
EndChar
StartChar: uni0E02
Encoding: 162 3586 131
Width: 407
Flags: HW
HStem: 0 59<103 148 215 257> 218 176
VStem: 148 67<59 174 174 176> 287 67<92 384>
Fore
197 288 m 1
 197 307 192 321 183 330 c 0
 173 338 163 342 151 344 c 1
 154 340 157 334 160 327 c 0
 164 318 166 307 166 295 c 0
 165 272 158 254 145 240 c 0
 130 225 112 218 89 218 c 0
 66 218 47 226 33 241 c 0
 18 255 11 273 11 295 c 0
 11 316 17 334 28 349 c 0
 40 364 54 375 72 383 c 0
 90 391 110 394 129 394 c 0
 166 394 197 384 219 364 c 0
 242 344 253 320 253 293 c 0
 253 278 252 266 249 258 c 0
 245 249 240 240 234 231 c 0
 227 220 223 212 219 206 c 0
 216 198 215 189 215 176 c 2
 215 59 l 1
 257 59 l 2
 271 59 279 61 282 64 c 0
 286 69 287 78 287 92 c 2
 287 384 l 1
 354 384 l 1
 354 73 l 2
 354 43 347 24 332 15 c 0
 318 5 293 0 257 0 c 2
 103 0 l 1
 103 59 l 1
 148 59 l 1
 148 174 l 2
 148 188 150 199 154 208 c 0
 157 216 164 226 172 236 c 0
 180 246 185 254 189 260 c 0
 192 266 194 276 197 288 c 1
89 264 m 0
 99 264 106 268 112 273 c 0
 116 279 119 286 119 294 c 0
 119 302 116 310 112 315 c 0
 106 321 99 323 89 323 c 0
 80 323 73 320 68 314 c 0
 62 308 60 302 60 294 c 0
 60 286 62 279 68 273 c 0
 73 268 80 264 89 264 c 0
EndSplineSet
EndChar
StartChar: uni0E03
Encoding: 163 3587 132
Width: 450
Flags: HW
HStem: 0 59<146 192 258 301 301 308>
VStem: 192 66<59 232> 331 66<92 384>
Fore
103 167 m 0
 73 167 52 176 37 195 c 0
 23 214 15 237 15 267 c 0
 15 273 15 284 17 297 c 0
 19 319 28 336 41 350 c 0
 53 365 68 376 82 384 c 0
 98 392 111 396 120 396 c 1
 163 372 l 1
 211 396 l 1
 231 392 250 383 268 368 c 0
 286 354 295 337 295 318 c 0
 295 305 292 294 286 286 c 0
 280 278 273 271 267 263 c 0
 261 255 258 244 258 232 c 2
 258 59 l 1
 301 59 l 2
 315 59 323 61 327 64 c 0
 330 69 331 78 331 92 c 2
 331 384 l 1
 397 384 l 1
 397 92 l 2
 397 59 391 35 381 21 c 0
 371 7 348 0 314 0 c 2
 146 0 l 1
 146 59 l 1
 192 59 l 1
 192 237 l 2
 192 270 203 292 227 304 c 1
 235 310 240 314 240 320 c 0
 240 328 232 337 215 345 c 1
 163 320 l 1
 110 345 l 1
 97 342 88 337 81 329 c 0
 76 321 71 314 70 308 c 1
 71 310 75 312 79 313 c 0
 85 315 93 316 103 316 c 0
 118 316 131 313 142 306 c 0
 154 301 162 292 167 281 c 0
 173 271 177 259 177 245 c 0
 179 223 171 203 158 189 c 0
 145 174 127 167 103 167 c 0
102 212 m 0
 112 212 119 216 123 221 c 0
 129 227 131 234 131 242 c 0
 131 250 129 258 123 263 c 0
 119 269 112 271 102 271 c 0
 93 271 86 268 80 262 c 0
 75 257 72 250 72 242 c 0
 72 234 75 227 80 221 c 0
 86 216 93 212 102 212 c 0
EndSplineSet
EndChar
StartChar: uni0E04
Encoding: 164 3588 133
Width: 413
Flags: HW
HStem: 0 23 345 52<182 207>
VStem: 89 67<0 67 67 75> 294 66<0 258 258 261>
Fore
188 145 m 0
 184 145 177 146 170 147 c 0
 160 149 156 150 156 151 c 2
 156 0 l 1
 89 0 l 1
 89 67 l 2
 89 84 87 98 81 113 c 0
 76 127 68 142 58 159 c 0
 47 176 41 192 35 207 c 0
 29 221 27 237 27 257 c 0
 28 287 36 312 53 333 c 0
 69 355 89 371 115 381 c 0
 141 391 168 397 197 397 c 0
 225 397 251 392 277 382 c 0
 301 372 321 356 337 336 c 0
 351 315 359 290 359 261 c 2
 359 0 l 1
 294 0 l 1
 294 258 l 2
 294 286 284 307 264 322 c 0
 245 337 221 345 193 345 c 0
 164 345 139 337 118 321 c 0
 95 304 84 282 84 254 c 0
 84 238 86 224 92 209 c 0
 96 197 98 191 99 191 c 1
 99 191 99 191 99 192 c 0
 99 212 105 235 118 259 c 0
 129 282 153 296 188 297 c 0
 210 297 228 290 243 276 c 0
 257 261 263 243 263 221 c 0
 263 200 257 183 243 168 c 0
 229 154 211 146 188 145 c 0
188 191 m 0
 198 191 205 194 210 200 c 0
 215 206 217 212 217 221 c 0
 217 229 215 237 210 243 c 0
 205 249 198 251 188 251 c 0
 179 251 172 247 166 242 c 0
 160 236 158 229 158 221 c 0
 158 214 160 206 166 200 c 0
 172 194 179 191 188 191 c 0
EndSplineSet
EndChar
StartChar: uni0E05
Encoding: 165 3589 134
Width: 413
Flags: HW
HStem: 0 23
VStem: 89 67<0 67 67 75> 294 66<0 259 259 261>
Fore
142 391 m 1
 201 366 l 1
 264 391 l 1
 286 385 305 374 320 359 c 0
 334 345 345 329 350 311 c 0
 356 293 359 276 359 261 c 2
 359 0 l 1
 294 0 l 1
 294 259 l 2
 294 278 292 293 288 304 c 0
 285 314 275 324 260 333 c 1
 201 312 l 1
 145 337 l 1
 125 329 111 319 99 304 c 0
 89 289 84 272 84 254 c 0
 84 238 86 224 92 209 c 0
 96 197 98 191 99 191 c 1
 99 191 99 191 99 192 c 0
 99 212 105 235 118 259 c 0
 129 282 153 296 188 297 c 0
 210 297 228 290 243 276 c 0
 257 261 263 243 263 221 c 0
 263 200 257 183 243 168 c 0
 229 154 211 146 188 145 c 0
 184 145 177 146 170 147 c 0
 160 149 156 150 156 151 c 2
 156 0 l 1
 89 0 l 1
 89 67 l 2
 89 84 87 98 81 113 c 0
 76 127 68 142 58 159 c 0
 47 176 41 192 35 207 c 0
 29 221 27 237 27 257 c 0
 28 323 67 367 142 391 c 1
188 191 m 0
 198 191 205 194 210 200 c 0
 215 206 217 212 217 221 c 0
 217 229 215 237 210 243 c 0
 205 249 198 251 188 251 c 0
 179 251 172 247 166 242 c 0
 160 236 158 229 158 221 c 0
 158 214 160 206 166 200 c 0
 172 194 179 191 188 191 c 0
EndSplineSet
EndChar
StartChar: uni0E06
Encoding: 166 3590 135
Width: 517
Flags: HW
HStem: -8 23
VStem: 195 66<59 123 177 227> 398 66<0 3 107 384>
Fore
261 227 m 2
 261 177 l 1
 278 175 295 172 314 164 c 0
 332 157 349 146 365 136 c 0
 381 125 392 115 398 107 c 1
 398 384 l 1
 463 384 l 1
 463 0 l 1
 398 0 l 1
 398 6 392 19 381 38 c 0
 370 58 354 77 333 94 c 0
 313 111 289 120 261 123 c 1
 261 59 l 2
 261 40 254 24 242 11 c 0
 229 -1 212 -8 191 -8 c 0
 165 -8 144 1 129 18 c 0
 114 35 106 55 106 79 c 0
 106 104 114 125 130 145 c 0
 146 164 167 175 195 177 c 1
 195 234 l 2
 195 267 207 288 231 301 c 0
 238 304 243 310 243 315 c 0
 243 324 235 333 218 341 c 1
 166 316 l 1
 113 341 l 1
 101 339 92 333 84 324 c 0
 76 314 71 306 69 301 c 1
 71 303 76 305 82 307 c 0
 88 310 96 311 106 312 c 0
 128 312 146 305 159 292 c 0
 173 278 181 261 181 241 c 0
 182 219 174 201 159 186 c 0
 145 172 127 164 106 164 c 0
 77 165 55 174 41 191 c 0
 26 209 18 233 18 261 c 0
 18 275 19 285 20 293 c 0
 25 321 38 345 62 364 c 0
 85 382 105 391 123 391 c 1
 166 368 l 1
 215 391 l 1
 234 389 253 380 271 365 c 0
 289 350 298 333 298 314 c 0
 298 305 297 297 294 290 c 0
 290 285 286 278 280 271 c 0
 273 263 269 258 266 252 c 0
 262 246 261 237 261 227 c 2
165 53 m 0
 168 46 174 43 182 43 c 0
 191 43 195 49 195 59 c 2
 195 125 l 1
 185 124 176 119 168 110 c 0
 162 99 158 89 158 78 c 0
 158 70 160 61 165 53 c 0
104 208 m 0
 113 208 120 211 125 217 c 0
 131 223 133 229 133 238 c 0
 133 246 131 253 127 259 c 0
 121 264 114 268 104 268 c 0
 95 268 88 264 82 259 c 0
 77 253 75 246 75 238 c 0
 75 231 77 223 82 217 c 0
 88 211 95 208 104 208 c 0
EndSplineSet
EndChar
StartChar: uni0E07
Encoding: 167 3591 136
Width: 329
Flags: HW
HStem: -11 23
VStem: 210 66<67 241 241 241>
Fore
198 391 m 0
 220 391 240 384 254 371 c 0
 269 356 276 339 276 319 c 2
 276 55 l 2
 276 34 269 18 257 7 c 0
 242 -6 226 -11 207 -11 c 0
 176 -11 153 1 138 26 c 2
 11 241 l 1
 63 275 l 1
 72 260 85 238 102 210 c 0
 119 182 137 150 158 115 c 0
 179 80 189 62 189 61 c 0
 194 51 200 45 203 45 c 0
 207 45 210 52 210 67 c 2
 210 241 l 1
 210 241 209 241 207 241 c 0
 205 240 201 240 198 240 c 0
 174 240 156 247 141 262 c 0
 128 277 121 295 121 315 c 0
 121 336 128 354 141 368 c 0
 155 383 174 391 198 391 c 0
198 285 m 0
 208 285 215 288 219 294 c 0
 225 299 227 306 227 315 c 0
 227 323 225 331 219 337 c 0
 215 342 208 345 198 345 c 0
 189 345 182 341 176 336 c 0
 171 330 168 323 168 315 c 0
 168 307 171 299 176 294 c 0
 182 288 189 285 198 285 c 0
EndSplineSet
EndChar
StartChar: uni0E08
Encoding: 168 3592 137
Width: 389
Flags: HW
HStem: -5 23 338 53<159 195>
VStem: 270 66<63 77 77 262 262 264>
Fore
336 77 m 2
 336 44 329 21 315 11 c 0
 303 1 286 -5 264 -5 c 0
 246 -5 232 0 220 9 c 0
 208 17 200 31 194 50 c 0
 191 62 186 79 182 98 c 0
 176 118 174 128 173 128 c 1
 172 125 167 123 162 120 c 0
 155 116 146 115 133 115 c 0
 110 116 90 123 78 138 c 0
 64 153 58 171 58 191 c 0
 58 210 64 228 78 244 c 0
 90 259 110 267 133 267 c 0
 173 267 201 247 212 210 c 0
 242 110 255 59 255 58 c 0
 257 47 260 43 263 43 c 0
 267 43 270 50 270 63 c 2
 270 262 l 2
 270 289 262 308 245 320 c 0
 228 332 207 338 183 338 c 0
 136 338 96 316 63 275 c 1
 21 305 l 1
 56 363 111 391 185 391 c 0
 229 391 266 380 294 358 c 0
 322 337 336 305 336 264 c 2
 336 77 l 2
133 162 m 0
 144 162 150 164 156 170 c 0
 160 175 163 183 163 191 c 0
 163 199 160 207 156 212 c 0
 150 218 144 220 133 220 c 0
 123 220 116 217 112 211 c 0
 106 206 104 199 104 191 c 0
 104 183 106 176 112 171 c 0
 118 165 124 162 133 162 c 0
EndSplineSet
EndChar
StartChar: uni0E09
Encoding: 169 3593 138
Width: 449
Flags: HW
HStem: -8 23 340 53<195 220>
VStem: 104 66<102 111 111 111> 296 66<55 127 175 263 263 264>
Fore
94 261 m 0
 115 261 132 254 147 242 c 0
 162 229 170 212 170 193 c 2
 170 102 l 1
 183 121 201 136 225 148 c 0
 247 160 271 170 296 175 c 1
 296 263 l 2
 296 288 288 308 273 321 c 0
 258 334 235 340 205 340 c 0
 185 340 165 333 146 321 c 0
 127 308 110 294 95 276 c 1
 51 306 l 1
 68 332 90 353 118 370 c 0
 145 385 175 393 210 393 c 0
 257 393 294 382 321 359 c 0
 348 336 362 304 362 264 c 2
 362 175 l 1
 385 171 403 159 416 141 c 0
 428 123 436 102 435 76 c 0
 435 51 427 31 412 16 c 0
 398 0 380 -8 358 -8 c 0
 341 -8 328 -3 315 7 c 0
 303 17 296 33 296 54 c 2
 296 127 l 1
 261 118 232 101 208 77 c 0
 184 53 171 27 167 0 c 1
 104 0 l 1
 104 111 l 1
 103 111 102 111 99 110 c 0
 98 108 96 108 94 108 c 0
 70 110 52 118 38 132 c 0
 25 147 18 164 18 184 c 0
 18 205 26 223 38 237 c 0
 52 253 70 261 94 261 c 0
390 81 m 0
 390 94 388 104 382 112 c 0
 376 120 370 124 362 127 c 1
 362 55 l 1
 363 45 365 41 371 41 c 0
 374 42 377 44 381 47 c 0
 383 52 385 58 388 64 c 0
 389 70 390 76 390 81 c 0
95 155 m 0
 105 155 112 158 118 164 c 0
 122 170 124 176 124 185 c 0
 124 193 122 201 118 207 c 0
 112 212 105 215 95 215 c 0
 86 215 79 211 73 206 c 0
 68 200 66 193 66 185 c 0
 66 177 68 171 73 165 c 0
 79 158 86 155 95 155 c 0
EndSplineSet
EndChar
StartChar: uni0E0A
Encoding: 170 3594 139
Width: 415
Flags: HW
HStem: 0 59<113 160 226 264 264 272> 217 175
VStem: 160 66<59 170> 296 66<92 221 221 227>
Fore
207 289 m 0
 208 307 202 321 193 330 c 0
 184 340 174 345 164 346 c 1
 167 342 171 336 175 328 c 0
 179 318 181 307 181 296 c 0
 181 273 174 254 160 240 c 0
 147 225 128 217 103 217 c 0
 79 217 61 225 46 240 c 0
 32 254 25 273 25 296 c 0
 25 314 31 331 43 346 c 0
 54 360 69 372 86 380 c 0
 103 388 120 392 137 392 c 0
 165 392 191 386 212 374 c 0
 235 362 249 346 254 329 c 1
 263 329 278 334 298 346 c 0
 319 356 340 380 362 417 c 1
 409 386 l 1
 398 360 383 341 366 329 c 0
 349 316 336 308 327 305 c 1
 332 303 340 296 349 285 c 0
 357 273 362 254 362 227 c 2
 362 73 l 2
 362 52 359 36 355 26 c 0
 350 16 342 9 331 6 c 0
 320 2 303 0 279 0 c 2
 113 0 l 1
 113 59 l 1
 160 59 l 1
 160 176 l 2
 160 189 163 199 166 207 c 0
 170 215 175 224 183 234 c 0
 190 243 195 251 200 258 c 0
 203 264 207 275 207 289 c 0
104 264 m 0
 113 264 120 268 125 273 c 0
 131 279 133 286 133 294 c 0
 133 302 131 310 125 315 c 0
 120 321 113 323 104 323 c 0
 95 323 88 320 82 314 c 0
 77 308 75 302 75 294 c 0
 75 286 77 279 82 273 c 0
 88 268 95 264 104 264 c 0
261 281 m 1
 260 267 259 255 255 249 c 0
 252 242 249 235 243 228 c 0
 237 220 234 212 231 205 c 0
 227 197 226 184 226 170 c 2
 226 59 l 1
 264 59 l 2
 279 59 288 61 292 64 c 0
 295 69 296 78 296 92 c 2
 296 221 l 2
 296 245 292 261 282 269 c 0
 275 277 267 281 261 281 c 1
EndSplineSet
EndChar
StartChar: uni0E0B
Encoding: 171 3595 140
Width: 439
Flags: HW
HStem: 0 59<137 184 250 288 288 295>
VStem: 184 66<59 170> 321 66<92 221 221 227>
Fore
206 396 m 1
 220 394 237 386 254 373 c 0
 271 359 281 345 284 329 c 1
 292 330 306 336 325 348 c 0
 345 359 364 382 385 417 c 1
 434 386 l 1
 423 360 409 341 392 329 c 0
 375 316 362 308 353 305 c 1
 358 303 365 296 374 285 c 0
 382 272 386 253 386 227 c 2
 386 73 l 2
 386 43 381 23 371 14 c 0
 359 5 337 0 304 0 c 2
 137 0 l 1
 137 59 l 1
 184 59 l 1
 184 182 l 2
 184 194 186 205 190 212 c 0
 193 218 199 226 208 236 c 0
 216 245 221 253 226 260 c 0
 231 268 233 277 234 289 c 0
 234 304 233 315 229 323 c 0
 226 331 219 338 208 345 c 1
 157 320 l 1
 104 345 l 1
 92 342 81 337 76 329 c 0
 70 321 66 314 64 308 c 1
 66 310 69 312 73 313 c 0
 78 315 86 316 97 316 c 0
 112 316 124 313 137 306 c 0
 147 301 156 292 162 281 c 0
 167 271 172 259 172 245 c 0
 173 224 165 205 151 190 c 0
 138 175 120 167 97 167 c 0
 69 167 46 176 31 195 c 0
 16 215 8 238 8 267 c 0
 8 273 9 284 10 297 c 0
 14 316 21 334 34 349 c 0
 46 364 61 376 76 384 c 0
 92 392 104 396 113 396 c 1
 157 372 l 1
 165 375 175 381 188 386 c 0
 200 392 206 396 206 396 c 1
285 281 m 1
 284 269 281 259 278 252 c 0
 275 244 271 237 266 231 c 0
 261 223 258 215 254 206 c 0
 251 197 250 184 250 170 c 2
 250 59 l 1
 288 59 l 2
 303 59 312 61 315 64 c 0
 319 69 321 78 321 92 c 2
 321 221 l 2
 321 245 316 261 306 269 c 0
 298 277 290 281 285 281 c 1
95 212 m 0
 105 212 112 216 118 221 c 0
 122 227 124 234 124 242 c 0
 124 250 122 258 118 263 c 0
 112 269 105 271 95 271 c 0
 86 271 79 268 73 262 c 0
 68 257 66 250 66 242 c 0
 66 234 68 227 73 221 c 0
 79 216 86 212 95 212 c 0
EndSplineSet
EndChar
StartChar: uni0E0C
Encoding: 172 3596 141
Width: 540
Flags: HW
HStem: -7 23
VStem: 63 67<137 186 186 191> 273 66<144 279> 420 66<90 384>
Fore
339 45 m 2
 339 31 334 18 324 8 c 0
 314 -2 299 -7 280 -7 c 0
 261 -7 246 0 236 14 c 0
 226 27 221 45 221 67 c 0
 221 86 226 103 234 116 c 0
 242 129 254 138 273 144 c 1
 273 289 l 2
 273 307 267 321 252 331 c 0
 237 341 217 346 193 347 c 0
 183 347 168 345 149 339 c 0
 130 333 115 325 107 315 c 1
 114 314 125 312 141 306 c 0
 156 302 171 295 184 285 c 1
 184 253 l 1
 172 253 160 250 148 242 c 0
 136 234 130 217 130 191 c 2
 130 137 l 1
 131 138 131 138 132 138 c 0
 136 138 l 0
 150 138 164 134 175 128 c 0
 185 121 194 112 200 101 c 0
 206 89 208 78 208 66 c 0
 208 53 206 42 200 31 c 0
 194 19 185 10 175 3 c 0
 164 -3 150 -7 136 -7 c 0
 113 -7 95 0 82 15 c 0
 70 28 63 45 63 67 c 2
 63 186 l 2
 63 208 66 225 71 237 c 0
 77 250 86 261 99 270 c 1
 94 272 85 276 72 279 c 0
 60 282 46 286 29 287 c 1
 29 308 l 1
 38 323 58 340 86 362 c 0
 115 383 156 393 209 393 c 0
 234 393 255 390 272 382 c 0
 289 374 303 365 312 354 c 0
 322 341 329 329 332 316 c 0
 337 303 339 290 339 279 c 2
 339 140 l 1
 353 137 365 131 377 123 c 0
 390 115 400 110 407 104 c 0
 414 98 418 94 420 90 c 1
 420 384 l 1
 486 384 l 1
 486 0 l 1
 420 0 l 1
 415 12 406 29 392 50 c 0
 377 70 360 84 339 89 c 1
 339 45 l 2
137 35 m 0
 142 35 148 36 154 40 c 0
 158 43 162 46 164 51 c 0
 166 55 167 60 167 66 c 0
 167 75 165 82 159 88 c 0
 154 94 147 96 137 96 c 0
 127 96 120 93 114 87 c 0
 108 81 105 73 105 66 c 0
 105 58 108 51 114 45 c 0
 120 38 127 35 137 35 c 0
284 38 m 1
 284 101 l 1
 273 99 267 95 263 89 c 0
 260 84 258 75 258 62 c 0
 258 54 260 47 264 42 c 0
 268 36 272 33 277 33 c 0
 280 33 282 35 284 38 c 1
EndSplineSet
EndChar
StartChar: uni0E0D
Encoding: 173 3597 142
Width: 540
Flags: HW
HStem: 0 59<236 273 339 393>
VStem: 63 67<137 186 186 191> 273 66<59 279> 420 66<92 384>
Fore
486 384 m 1
 486 73 l 2
 486 52 483 36 477 26 c 0
 471 16 461 9 449 6 c 0
 436 2 417 0 393 0 c 2
 236 0 l 1
 236 59 l 1
 273 59 l 1
 273 289 l 2
 273 307 267 321 252 331 c 0
 237 341 217 346 193 347 c 0
 183 347 168 345 149 339 c 0
 130 333 115 325 107 315 c 1
 114 314 125 312 141 306 c 0
 156 302 171 295 184 285 c 1
 184 253 l 1
 172 253 160 250 148 242 c 0
 136 234 130 217 130 191 c 2
 130 137 l 1
 131 138 131 138 132 138 c 0
 136 138 l 0
 150 138 164 134 175 128 c 0
 185 121 194 112 200 101 c 0
 206 89 208 78 208 66 c 0
 208 53 206 42 200 31 c 0
 194 19 185 10 175 3 c 0
 164 -3 150 -7 136 -7 c 0
 113 -7 95 0 82 15 c 0
 70 28 63 45 63 67 c 2
 63 186 l 2
 63 208 66 225 71 237 c 0
 77 250 86 261 99 270 c 1
 94 272 85 276 72 279 c 0
 60 282 45 286 29 287 c 1
 29 308 l 1
 38 323 58 340 86 362 c 0
 115 383 156 393 209 393 c 0
 234 393 255 390 272 382 c 0
 289 374 303 365 312 354 c 0
 322 341 329 329 332 316 c 0
 337 303 339 290 339 279 c 2
 339 59 l 1
 393 59 l 2
 406 59 414 61 417 64 c 0
 419 68 420 77 420 92 c 2
 420 384 l 1
 486 384 l 1
355 -130 m 1
 370 -130 383 -123 398 -110 c 0
 412 -95 419 -66 419 -21 c 1
 484 -21 l 1
 484 -63 477 -96 462 -121 c 0
 447 -146 429 -163 408 -172 c 0
 386 -182 364 -186 340 -186 c 0
 320 -186 303 -184 289 -179 c 0
 263 -170 246 -158 236 -144 c 0
 226 -129 220 -111 221 -89 c 0
 221 -69 229 -52 242 -38 c 0
 254 -24 272 -17 295 -17 c 0
 319 -17 337 -24 349 -38 c 0
 360 -53 366 -71 366 -90 c 0
 366 -107 363 -121 355 -130 c 1
295 -120 m 0
 305 -120 313 -116 319 -111 c 0
 324 -105 327 -97 327 -89 c 0
 327 -81 324 -73 319 -68 c 0
 313 -62 305 -59 295 -59 c 0
 286 -59 278 -62 272 -68 c 0
 267 -73 264 -81 264 -89 c 0
 264 -97 268 -105 273 -111 c 0
 279 -116 286 -120 295 -120 c 0
137 35 m 0
 142 35 148 36 154 40 c 0
 158 43 162 46 164 51 c 0
 166 55 167 60 167 66 c 0
 167 75 165 82 159 88 c 0
 154 94 147 96 137 96 c 0
 127 96 120 93 114 87 c 0
 108 81 105 73 105 66 c 0
 105 58 108 51 114 45 c 0
 120 38 127 35 137 35 c 0
EndSplineSet
EndChar
StartChar: uni0E0E
Encoding: 174 3598 143
Width: 454
Flags: HW
HStem: -184 167
VStem: 334 66<-95 261 261 267>
Fore
272 -53 m 1
 287 -61 301 -68 311 -76 c 0
 322 -85 330 -92 334 -95 c 1
 334 261 l 2
 334 288 325 308 307 323 c 0
 290 337 268 344 241 344 c 0
 226 344 209 341 192 336 c 0
 175 331 160 324 146 314 c 1
 153 313 164 311 179 306 c 0
 193 303 207 295 221 285 c 1
 221 253 l 1
 210 253 199 250 186 242 c 0
 174 234 167 217 167 191 c 2
 167 69 l 2
 167 46 160 28 148 15 c 0
 136 0 118 -7 93 -8 c 1
 69 -7 50 0 37 15 c 0
 24 29 17 46 17 67 c 0
 17 88 24 106 37 121 c 0
 50 136 69 144 93 144 c 0
 95 144 97 144 98 144 c 0
 99 142 99 142 101 142 c 1
 101 186 l 2
 101 208 104 225 110 237 c 0
 115 250 124 261 137 270 c 1
 131 272 122 276 110 279 c 0
 97 282 82 286 66 287 c 1
 66 308 l 1
 69 312 73 318 80 325 c 0
 87 333 98 342 113 354 c 0
 128 364 147 374 168 382 c 0
 191 390 217 393 246 393 c 0
 276 393 302 389 325 379 c 0
 349 370 367 355 380 336 c 0
 393 316 400 293 400 267 c 2
 400 -184 l 1
 334 -184 l 1
 320 -164 305 -147 289 -134 c 0
 273 -122 262 -113 254 -108 c 1
 246 -129 233 -147 214 -162 c 0
 194 -176 171 -185 142 -184 c 0
 121 -184 102 -175 86 -159 c 0
 70 -145 62 -124 62 -101 c 0
 63 -75 72 -55 89 -41 c 0
 106 -26 129 -18 156 -17 c 0
 175 -17 195 -21 219 -29 c 1
 220 -26 221 -19 224 -11 c 0
 226 -3 228 7 231 21 c 1
 286 9 l 1
 285 -1 282 -14 280 -26 c 0
 277 -38 275 -47 272 -53 c 1
93 35 m 0
 103 35 111 38 116 45 c 0
 122 52 125 60 125 68 c 0
 125 77 123 85 118 92 c 0
 112 97 103 101 93 101 c 0
 82 101 75 97 69 92 c 0
 63 85 60 77 60 68 c 0
 60 60 63 52 69 45 c 0
 75 38 82 35 93 35 c 0
167 -124 m 0
 180 -119 188 -112 193 -103 c 0
 199 -95 202 -88 203 -82 c 1
 189 -76 173 -72 157 -72 c 0
 144 -72 133 -76 127 -81 c 0
 119 -87 115 -95 115 -104 c 0
 115 -106 116 -110 118 -114 c 0
 121 -124 130 -129 147 -129 c 0
 156 -129 163 -128 167 -124 c 0
EndSplineSet
EndChar
StartChar: uni0E0F
Encoding: 175 3599 144
Width: 454
Flags: HW
VStem: 334 66<-97 261 261 267>
Fore
295 -58 m 1
 334 -97 l 1
 334 261 l 2
 334 288 325 308 307 323 c 0
 290 337 268 344 241 344 c 0
 226 344 209 341 192 336 c 0
 175 331 160 324 146 314 c 1
 153 313 164 311 179 306 c 0
 193 303 207 295 221 285 c 1
 221 253 l 1
 210 253 199 250 186 242 c 0
 174 234 167 217 167 191 c 2
 167 69 l 2
 167 46 160 28 148 15 c 0
 136 0 118 -7 93 -8 c 1
 69 -7 50 0 37 15 c 0
 24 29 17 46 17 67 c 0
 17 88 24 106 37 121 c 0
 50 136 69 144 93 144 c 0
 95 144 97 144 98 144 c 0
 99 142 99 142 101 142 c 1
 101 186 l 2
 101 208 104 225 110 237 c 0
 115 250 124 261 137 270 c 1
 131 272 122 276 110 279 c 0
 97 282 82 286 66 287 c 1
 66 308 l 1
 69 312 73 318 80 325 c 0
 87 333 98 342 113 354 c 0
 128 364 147 374 168 382 c 0
 191 390 217 393 246 393 c 0
 276 393 302 389 325 379 c 0
 349 370 367 355 380 336 c 0
 393 316 400 293 400 267 c 2
 400 -184 l 1
 338 -184 l 1
 292 -129 l 1
 240 -184 l 1
 234 -173 228 -163 220 -153 c 0
 212 -142 207 -137 203 -133 c 1
 200 -141 193 -153 181 -165 c 0
 168 -179 150 -185 125 -185 c 0
 106 -185 89 -179 77 -164 c 0
 63 -149 56 -129 56 -104 c 1
 59 -84 67 -68 81 -56 c 0
 96 -45 113 -40 132 -40 c 0
 151 -40 170 -45 185 -55 c 1
 188 -50 191 -40 194 -25 c 0
 198 -11 201 3 202 19 c 1
 251 11 l 1
 243 -37 234 -70 226 -87 c 1
 228 -88 232 -92 235 -95 c 0
 238 -98 242 -103 245 -107 c 1
 253 -99 264 -89 277 -77 c 0
 289 -64 295 -59 295 -58 c 1
93 35 m 0
 103 36 111 40 115 46 c 0
 120 52 122 59 122 68 c 0
 122 77 120 85 114 92 c 0
 108 97 99 101 87 101 c 0
 77 99 70 96 64 90 c 0
 59 84 56 77 56 69 c 0
 56 59 60 51 67 45 c 1
 72 38 81 35 93 35 c 0
142 -133 m 0
 149 -130 155 -123 159 -115 c 0
 163 -107 165 -104 165 -103 c 1
 165 -103 l 1
 153 -93 141 -87 130 -87 c 0
 118 -87 108 -93 104 -105 c 1
 104 -127 112 -137 128 -137 c 0
 133 -137 138 -136 142 -133 c 0
EndSplineSet
EndChar
StartChar: uni0E10
Encoding: 176 3600 145
Width: 343
Flags: HW
VStem: 218 66<133 186 186 189>
Fore
214 0 m 1
 210 19 202 43 190 73 c 0
 179 103 172 118 171 118 c 0
 167 114 162 108 153 102 c 0
 144 96 130 93 113 93 c 0
 89 93 70 101 58 115 c 0
 44 130 37 147 37 168 c 0
 37 189 44 207 58 221 c 0
 71 236 89 244 113 245 c 0
 134 245 153 241 165 233 c 0
 177 224 186 209 194 189 c 0
 198 180 203 168 209 155 c 0
 215 141 218 134 218 133 c 2
 218 186 l 2
 218 207 217 221 214 231 c 0
 210 240 206 246 199 250 c 0
 192 253 180 257 160 262 c 0
 134 269 108 276 81 280 c 0
 54 285 34 288 21 289 c 1
 21 314 l 1
 32 329 43 342 56 355 c 0
 70 367 85 377 101 383 c 0
 115 390 133 393 153 393 c 0
 174 393 198 389 225 381 c 0
 252 372 270 367 280 367 c 0
 293 367 307 371 323 377 c 0
 324 377 325 371 329 358 c 0
 331 346 333 334 334 325 c 1
 313 319 295 315 280 315 c 0
 270 315 261 316 253 318 c 0
 245 320 233 324 217 330 c 0
 200 336 188 339 180 341 c 0
 171 344 162 345 153 345 c 0
 142 345 133 342 123 338 c 0
 113 333 107 329 106 325 c 1
 115 324 130 322 150 319 c 0
 171 315 186 311 197 308 c 0
 236 297 261 285 270 268 c 0
 279 251 284 224 284 189 c 2
 284 0 l 1
 214 0 l 1
215 -170 m 1
 233 -157 l 1
 233 -144 l 1
 232 -145 228 -145 225 -145 c 0
 205 -145 189 -138 177 -125 c 0
 166 -113 160 -97 160 -80 c 0
 160 -63 166 -47 179 -35 c 0
 190 -23 206 -16 225 -16 c 0
 244 -16 259 -21 271 -34 c 0
 284 -45 289 -60 289 -77 c 2
 289 -145 l 2
 289 -156 286 -165 279 -172 c 0
 272 -180 264 -186 254 -192 c 0
 244 -198 232 -206 217 -214 c 1
 173 -189 l 1
 134 -212 l 1
 104 -182 l 1
 94 -205 73 -217 43 -216 c 0
 26 -216 12 -208 1 -197 c 0
 -9 -184 -15 -170 -15 -151 c 0
 -15 -136 -8 -122 6 -112 c 0
 18 -102 33 -96 50 -96 c 0
 66 -96 80 -102 93 -112 c 1
 94 -106 96 -97 98 -82 c 0
 101 -68 102 -51 102 -32 c 1
 145 -32 l 1
 145 -53 144 -73 140 -93 c 0
 137 -112 131 -130 124 -145 c 1
 142 -163 l 2
 144 -163 148 -159 158 -154 c 0
 168 -148 173 -145 173 -144 c 1
 215 -170 l 1
49 -134 m 0
 41 -134 35 -137 32 -141 c 0
 28 -146 26 -151 26 -157 c 0
 26 -170 34 -176 49 -176 c 0
 56 -176 63 -173 69 -166 c 0
 73 -160 77 -155 78 -150 c 1
 76 -147 72 -144 68 -140 c 0
 62 -137 56 -134 49 -134 c 0
226 -106 m 0
 234 -106 240 -104 244 -98 c 0
 249 -94 251 -88 251 -81 c 0
 251 -75 249 -69 244 -63 c 0
 240 -58 234 -55 226 -55 c 0
 218 -55 211 -58 208 -63 c 0
 203 -69 201 -75 201 -81 c 0
 201 -88 203 -94 208 -98 c 0
 211 -104 218 -106 226 -106 c 0
114 139 m 0
 124 139 131 142 137 148 c 0
 141 154 144 160 144 168 c 0
 144 176 141 183 137 189 c 0
 131 194 124 198 114 198 c 0
 104 198 97 194 93 189 c 0
 87 183 85 176 85 168 c 0
 85 160 87 154 93 148 c 0
 98 142 105 139 114 139 c 0
EndSplineSet
EndChar
StartChar: uni0E11
Encoding: 177 3601 146
Width: 529
Flags: HW
HStem: 0 23
VStem: 184 66<158 234> 410 66<0 290 290 295>
Fore
250 234 m 2
 250 158 l 1
 316 321 l 2
 327 345 336 362 345 372 c 0
 354 382 371 386 396 386 c 0
 431 386 453 379 462 363 c 0
 471 347 476 324 476 295 c 2
 476 0 l 1
 410 0 l 1
 410 290 l 2
 410 308 409 320 408 325 c 0
 407 331 402 333 397 334 c 0
 391 334 386 332 383 329 c 0
 381 325 380 322 379 319 c 2
 246 0 l 1
 184 0 l 1
 184 237 l 2
 184 270 195 292 219 304 c 1
 227 310 232 314 232 320 c 0
 232 328 224 336 207 345 c 1
 155 320 l 1
 102 345 l 1
 89 342 80 337 73 329 c 0
 68 321 63 314 62 308 c 1
 63 310 67 312 71 313 c 0
 77 315 85 316 95 316 c 0
 110 316 123 313 134 306 c 0
 146 301 155 292 160 281 c 0
 166 270 168 258 170 245 c 0
 170 224 163 205 149 190 c 0
 136 175 118 167 95 167 c 0
 67 167 44 176 29 194 c 0
 15 212 7 236 7 266 c 0
 7 280 8 290 9 297 c 0
 12 316 20 334 33 350 c 0
 45 365 59 376 75 384 c 0
 89 392 102 396 112 396 c 1
 155 372 l 1
 203 396 l 1
 223 392 242 383 259 368 c 0
 276 354 285 337 285 318 c 0
 285 308 284 302 281 296 c 0
 278 292 273 286 268 279 c 0
 262 272 258 266 254 260 c 0
 251 254 250 245 250 234 c 2
94 212 m 0
 104 212 111 216 116 221 c 0
 121 227 123 234 123 242 c 0
 123 250 121 258 116 263 c 0
 111 269 104 271 94 271 c 0
 85 271 78 268 72 262 c 0
 67 257 64 250 64 242 c 0
 64 234 67 227 72 221 c 0
 78 216 85 212 94 212 c 0
EndSplineSet
EndChar
StartChar: uni0E12
Encoding: 178 3602 147
Width: 559
Flags: HW
HStem: -7 23
VStem: 293 66<144 261> 438 66<90 384>
Fore
130 80 m 1
 138 90 145 102 153 114 c 0
 159 124 167 136 175 147 c 1
 158 148 145 156 132 171 c 0
 120 185 114 203 114 223 c 0
 114 244 121 261 136 276 c 0
 150 290 168 297 191 297 c 0
 215 297 233 290 245 277 c 0
 258 262 267 244 267 221 c 0
 268 197 260 174 246 155 c 2
 142 0 l 1
 85 0 l 1
 85 40 81 70 76 89 c 0
 75 90 69 103 59 124 c 0
 47 146 38 167 32 188 c 0
 26 207 23 228 23 252 c 0
 24 284 37 313 62 339 c 0
 86 365 112 383 140 391 c 1
 201 365 l 1
 263 392 l 1
 302 373 327 355 339 337 c 0
 351 320 358 294 358 261 c 2
 358 140 l 1
 377 136 393 128 408 116 c 0
 423 105 433 96 438 90 c 1
 438 384 l 1
 504 384 l 1
 504 0 l 1
 437 0 l 1
 433 12 424 29 410 50 c 0
 397 70 380 84 358 89 c 1
 358 45 l 2
 358 31 353 18 342 8 c 0
 332 -2 319 -7 299 -7 c 0
 280 -7 266 0 255 14 c 0
 245 27 238 45 240 67 c 0
 240 86 245 103 253 116 c 0
 261 129 273 138 293 144 c 1
 293 270 l 2
 293 292 289 307 284 316 c 0
 278 325 270 333 260 339 c 1
 201 316 l 1
 140 339 l 1
 99 318 79 287 79 250 c 0
 79 223 89 188 111 145 c 0
 119 129 123 115 127 103 c 0
 129 92 130 84 130 80 c 1
302 38 m 1
 302 101 l 1
 285 98 277 86 277 62 c 0
 277 54 279 47 282 42 c 0
 287 36 292 33 295 33 c 0
 298 33 301 35 302 38 c 1
191 191 m 0
 201 191 208 194 212 200 c 0
 218 206 220 212 220 221 c 0
 220 229 218 237 212 243 c 0
 208 249 201 251 191 251 c 0
 182 251 175 247 170 242 c 0
 164 236 162 229 162 221 c 0
 162 214 164 206 170 200 c 0
 175 194 182 191 191 191 c 0
EndSplineSet
EndChar
StartChar: uni0E13
Encoding: 179 3603 148
Width: 558
Flags: HW
HStem: -8 23
VStem: 63 67<137 186 186 191> 273 66<120 279> 420 66<54 55 55 127 175 384>
Fore
273 0 m 1
 273 289 l 2
 273 307 267 321 252 331 c 0
 237 341 217 346 193 347 c 0
 183 347 168 345 149 339 c 0
 130 333 115 325 107 315 c 1
 114 314 125 312 141 306 c 0
 156 302 171 295 184 285 c 1
 184 253 l 1
 172 253 160 250 148 242 c 0
 136 234 130 217 130 191 c 2
 130 137 l 1
 131 138 131 138 132 138 c 0
 136 138 l 0
 150 138 164 134 175 128 c 0
 185 121 194 112 200 101 c 0
 206 89 208 78 208 66 c 0
 208 53 206 42 200 31 c 0
 194 19 185 10 175 3 c 0
 164 -3 150 -7 136 -7 c 0
 113 -7 95 0 82 15 c 0
 70 28 63 45 63 67 c 2
 63 186 l 2
 63 208 66 225 71 237 c 0
 77 250 86 261 99 270 c 1
 94 272 85 276 72 279 c 0
 60 282 46 286 29 287 c 1
 29 308 l 1
 38 323 58 340 86 362 c 0
 115 383 156 393 209 393 c 0
 234 393 255 390 272 382 c 0
 289 374 303 365 312 354 c 0
 322 341 329 329 332 316 c 0
 337 303 339 290 339 279 c 2
 339 120 l 1
 349 132 362 144 379 155 c 0
 396 166 409 173 420 175 c 1
 420 384 l 1
 486 384 l 1
 486 175 l 1
 510 171 528 159 541 141 c 0
 554 123 559 102 559 76 c 0
 559 51 551 31 537 16 c 0
 522 0 504 -8 483 -8 c 0
 466 -8 451 -3 438 7 c 0
 426 17 420 33 420 54 c 2
 420 127 l 1
 399 118 380 101 365 77 c 0
 350 53 340 28 337 0 c 1
 273 0 l 1
137 35 m 0
 142 35 148 36 154 40 c 0
 158 43 162 46 164 51 c 0
 166 55 167 60 167 66 c 0
 167 75 165 82 159 88 c 0
 154 94 147 96 137 96 c 0
 127 96 120 93 114 87 c 0
 108 81 105 73 105 66 c 0
 105 58 108 51 114 45 c 0
 120 38 127 35 137 35 c 0
514 81 m 0
 514 93 511 103 505 111 c 0
 499 119 493 124 486 127 c 1
 486 55 l 2
 486 45 488 41 494 41 c 0
 499 42 505 46 508 54 c 0
 512 62 514 71 514 81 c 0
EndSplineSet
EndChar
StartChar: uni0E14
Encoding: 180 3604 149
Width: 412
Flags: HW
HStem: 0 23 337 56<180 193>
VStem: 24 56<241 252> 293 66<0 261>
Fore
193 393 m 0
 249 392 290 380 318 354 c 0
 345 328 358 297 358 261 c 2
 358 0 l 1
 293 0 l 1
 293 267 l 2
 293 290 284 307 264 320 c 0
 245 331 223 337 195 337 c 0
 165 337 138 328 115 312 c 0
 92 295 80 273 80 244 c 0
 80 221 90 189 111 145 c 0
 119 129 123 115 127 103 c 0
 129 92 130 84 130 80 c 1
 138 90 145 102 153 113 c 0
 160 123 167 134 175 146 c 1
 158 147 145 155 132 170 c 0
 120 184 114 202 114 221 c 0
 114 243 121 260 136 275 c 0
 150 289 168 296 191 296 c 0
 215 296 233 289 245 276 c 0
 258 261 267 243 267 220 c 0
 268 194 260 173 246 154 c 2
 142 0 l 1
 85 0 l 1
 85 40 81 70 76 89 c 0
 75 93 69 104 59 124 c 0
 49 146 41 166 34 188 c 0
 28 208 24 229 24 252 c 0
 25 276 33 297 47 319 c 0
 61 340 80 358 106 373 c 0
 131 386 160 393 193 393 c 0
191 191 m 0
 201 191 208 194 212 200 c 0
 218 206 220 212 220 220 c 0
 220 228 218 236 212 242 c 0
 208 247 201 250 191 250 c 0
 182 250 175 246 170 241 c 0
 164 235 162 228 162 220 c 0
 162 212 164 206 170 200 c 0
 175 194 182 191 191 191 c 0
EndSplineSet
EndChar
StartChar: uni0E15
Encoding: 181 3605 150
Width: 412
Flags: HW
HStem: 0 23
VStem: 293 66<0 261>
Fore
358 0 m 1
 293 0 l 1
 293 270 l 2
 293 292 289 307 284 316 c 0
 278 325 270 333 260 339 c 1
 201 316 l 1
 140 339 l 1
 99 318 79 287 79 250 c 0
 79 223 89 188 111 145 c 0
 119 129 123 115 127 103 c 0
 129 92 130 84 130 80 c 1
 138 90 145 102 153 114 c 0
 159 124 167 136 175 147 c 1
 158 148 145 156 132 171 c 0
 120 185 114 203 114 223 c 0
 114 244 121 261 136 276 c 0
 150 290 168 297 191 297 c 0
 215 297 233 290 245 277 c 0
 258 262 267 244 267 221 c 0
 268 197 260 174 246 155 c 2
 142 0 l 1
 85 0 l 1
 85 40 81 70 76 89 c 0
 75 90 69 103 59 124 c 0
 47 146 38 167 32 188 c 0
 26 207 23 228 23 252 c 0
 24 284 37 313 62 339 c 0
 86 365 112 383 140 391 c 1
 201 365 l 1
 263 392 l 1
 302 373 327 355 339 337 c 0
 351 320 358 294 358 261 c 2
 358 0 l 1
191 191 m 0
 201 191 208 194 212 200 c 0
 218 206 220 212 220 221 c 0
 220 229 218 237 212 243 c 0
 208 249 201 251 191 251 c 0
 182 251 175 247 170 242 c 0
 164 236 162 229 162 221 c 0
 162 214 164 206 170 200 c 0
 175 194 182 191 191 191 c 0
EndSplineSet
EndChar
StartChar: uni0E16
Encoding: 182 3606 151
Width: 416
Flags: HW
HStem: -7 23 344 50<194 217>
VStem: 63 67<145 186 186 191> 297 66<0 261 261 267>
Fore
130 145 m 1
 139 145 l 2
 163 145 182 137 195 122 c 0
 209 106 216 88 216 69 c 0
 216 49 209 31 195 16 c 0
 182 1 163 -7 139 -7 c 0
 116 -7 98 1 85 16 c 0
 70 31 63 47 63 69 c 2
 63 186 l 2
 63 208 66 225 71 237 c 0
 77 250 86 261 99 270 c 1
 94 272 85 276 72 279 c 0
 60 282 45 286 29 287 c 1
 29 308 l 1
 32 312 36 318 43 325 c 0
 50 333 61 342 76 354 c 0
 90 364 110 374 132 382 c 0
 154 390 180 393 209 393 c 0
 240 393 266 389 288 380 c 0
 311 370 329 356 342 337 c 0
 356 318 363 295 363 267 c 2
 363 0 l 1
 297 0 l 1
 297 261 l 2
 297 288 288 310 271 323 c 0
 253 338 231 344 203 344 c 0
 171 344 139 333 108 314 c 1
 112 313 116 312 123 311 c 0
 131 310 140 306 151 303 c 0
 163 298 174 293 184 285 c 1
 184 253 l 1
 172 253 160 250 148 242 c 0
 136 234 130 217 130 191 c 2
 130 145 l 1
145 36 m 0
 154 37 160 41 166 46 c 0
 172 52 175 60 175 68 c 0
 175 78 172 86 166 93 c 0
 160 98 151 102 139 102 c 0
 129 101 122 97 118 92 c 0
 112 86 110 78 110 69 c 0
 110 61 113 53 119 46 c 0
 124 40 133 36 145 36 c 0
EndSplineSet
EndChar
StartChar: uni0E17
Encoding: 183 3607 152
Width: 452
Flags: HW
HStem: 0 23
VStem: 108 66<158 241 241 241> 334 66<0 290 290 295>
Fore
108 0 m 1
 108 241 l 1
 104 240 96 240 84 240 c 0
 64 242 49 251 37 266 c 0
 26 280 20 297 20 316 c 0
 20 337 27 355 41 370 c 0
 53 384 72 391 96 391 c 0
 121 391 140 383 154 368 c 0
 167 354 174 334 174 313 c 2
 174 158 l 1
 241 321 l 2
 251 346 260 363 269 373 c 0
 278 382 295 386 320 386 c 0
 356 386 379 379 386 363 c 0
 396 347 400 324 400 295 c 2
 400 0 l 1
 334 0 l 1
 334 290 l 2
 334 307 333 320 332 325 c 0
 331 331 327 333 321 334 c 0
 315 334 311 332 308 329 c 0
 305 325 304 322 303 319 c 2
 171 0 l 1
 108 0 l 1
96 285 m 0
 106 285 113 288 118 294 c 0
 123 299 125 306 125 315 c 0
 125 323 123 331 118 337 c 0
 113 342 106 345 96 345 c 0
 87 345 80 341 75 336 c 0
 69 330 67 323 67 315 c 0
 67 307 69 299 75 294 c 0
 80 288 87 285 96 285 c 0
EndSplineSet
EndChar
StartChar: uni0E18
Encoding: 184 3608 153
Width: 358
Flags: HW
HStem: 0 59<36 84 149 208 208 215>
VStem: 84 66<59 238> 238 66<92 188>
Fore
88 310 m 1
 92 310 95 310 98 311 c 0
 103 311 112 311 127 311 c 0
 193 311 243 298 275 273 c 0
 294 258 304 229 304 188 c 2
 304 73 l 2
 304 43 298 23 288 14 c 0
 278 5 255 0 221 0 c 2
 36 0 l 1
 36 59 l 1
 84 59 l 1
 84 238 l 1
 149 238 l 1
 149 59 l 1
 208 59 l 2
 223 59 231 61 234 64 c 0
 237 69 238 78 238 92 c 2
 238 189 l 2
 238 201 237 212 235 220 c 0
 233 228 226 236 216 244 c 0
 208 251 189 255 159 259 c 0
 129 262 97 264 63 264 c 0
 42 264 27 264 17 263 c 1
 17 303 l 1
 31 327 49 347 72 365 c 0
 96 383 125 392 158 392 c 0
 182 392 207 388 234 380 c 0
 261 371 279 366 287 366 c 0
 299 366 314 370 329 377 c 1
 344 329 l 1
 325 321 307 316 290 316 c 0
 276 316 254 321 225 330 c 0
 194 339 171 344 151 344 c 0
 133 344 119 339 108 331 c 0
 98 323 92 315 88 310 c 1
EndSplineSet
EndChar
StartChar: uni0E19
Encoding: 185 3609 154
Width: 446
Flags: HW
HStem: -8 23
VStem: 104 66<98 243 243 243> 296 66<55 127 175 384>
Fore
296 384 m 1
 362 384 l 1
 362 175 l 1
 385 171 403 159 416 141 c 0
 428 123 436 102 435 76 c 0
 435 51 427 31 412 16 c 0
 398 0 380 -8 358 -8 c 0
 341 -8 328 -3 315 7 c 0
 303 17 296 33 296 54 c 2
 296 127 l 1
 267 118 240 99 215 73 c 0
 189 47 173 23 167 0 c 1
 104 0 l 1
 104 243 l 1
 103 243 102 243 99 243 c 0
 98 242 96 242 94 242 c 0
 70 242 52 250 38 266 c 0
 25 280 18 298 18 318 c 0
 18 338 25 356 38 371 c 0
 52 385 70 393 94 393 c 0
 115 393 132 388 147 375 c 0
 162 362 170 345 170 325 c 2
 170 98 l 1
 184 118 202 133 226 147 c 0
 249 159 272 170 296 175 c 1
 296 384 l 1
95 287 m 0
 105 287 112 290 118 296 c 0
 122 302 124 308 124 318 c 0
 124 325 122 333 118 339 c 0
 112 345 105 347 95 347 c 0
 86 347 79 344 73 338 c 0
 68 332 66 325 66 318 c 0
 66 310 68 302 73 296 c 0
 79 290 86 287 95 287 c 0
390 81 m 0
 390 94 388 104 382 112 c 0
 376 120 370 124 362 127 c 1
 362 55 l 1
 363 45 365 41 371 41 c 0
 374 42 377 44 381 47 c 0
 383 52 385 58 388 64 c 0
 389 70 390 76 390 81 c 0
EndSplineSet
EndChar
StartChar: uni0E1A
Encoding: 186 3610 155
Width: 428
Flags: HW
HStem: 0 59<47 97 163 272>
VStem: 97 66<59 241 241 241> 307 67<92 384>
Fore
97 59 m 1
 97 241 l 1
 93 240 85 240 72 240 c 0
 53 242 37 251 26 266 c 0
 15 280 9 297 9 316 c 0
 9 329 11 341 17 354 c 0
 23 365 31 374 43 381 c 0
 54 388 68 391 85 391 c 0
 110 391 129 383 142 368 c 0
 156 354 163 334 163 313 c 2
 163 59 l 1
 272 59 l 2
 287 59 297 61 302 66 c 0
 305 69 307 78 307 92 c 2
 307 384 l 1
 374 384 l 1
 374 75 l 2
 374 45 366 26 350 16 c 0
 333 6 307 0 272 0 c 2
 47 0 l 1
 47 59 l 1
 97 59 l 1
85 285 m 0
 94 285 101 288 106 294 c 0
 112 299 114 306 114 315 c 0
 114 323 112 331 106 337 c 0
 101 342 94 345 85 345 c 0
 76 345 69 341 63 336 c 0
 58 330 55 323 55 315 c 0
 55 307 58 299 63 294 c 0
 69 288 76 285 85 285 c 0
EndSplineSet
EndChar
StartChar: uni0E1B
Encoding: 187 3611 156
Width: 428
Flags: HW
HStem: 0 59<47 97 163 272>
VStem: 97 66<59 241 241 241> 307 67<92 534>
Fore
97 59 m 1
 97 241 l 1
 93 240 85 240 72 240 c 0
 53 242 37 251 26 266 c 0
 15 280 9 297 9 316 c 0
 9 329 11 341 17 354 c 0
 23 365 31 374 43 381 c 0
 54 388 68 391 85 391 c 0
 110 391 129 383 142 368 c 0
 156 354 163 334 163 313 c 2
 163 59 l 1
 272 59 l 2
 287 59 297 61 302 66 c 0
 305 69 307 78 307 92 c 2
 307 534 l 1
 374 534 l 1
 374 75 l 2
 374 45 366 26 350 16 c 0
 333 6 307 0 272 0 c 2
 47 0 l 1
 47 59 l 1
 97 59 l 1
85 285 m 0
 94 285 101 288 106 294 c 0
 112 299 114 306 114 315 c 0
 114 323 112 331 106 337 c 0
 101 342 94 345 85 345 c 0
 76 345 69 341 63 336 c 0
 58 330 55 323 55 315 c 0
 55 307 58 299 63 294 c 0
 69 288 76 285 85 285 c 0
EndSplineSet
EndChar
StartChar: uni0E1C
Encoding: 188 3612 157
Width: 422
Flags: HW
HStem: 0 23
VStem: 54 66<130 241> 303 66<130 384>
Fore
116 0 m 1
 54 0 l 1
 54 313 l 2
 54 334 61 354 75 368 c 0
 88 383 107 391 132 391 c 0
 149 391 164 388 175 381 c 0
 185 374 194 365 200 354 c 0
 206 341 208 329 208 316 c 0
 208 297 202 280 191 266 c 0
 180 251 164 242 145 240 c 0
 132 240 124 240 120 241 c 1
 120 130 l 1
 211 224 l 1
 303 130 l 1
 303 384 l 1
 368 384 l 1
 368 0 l 1
 304 0 l 1
 304 31 296 54 281 71 c 2
 210 151 l 1
 138 71 l 2
 123 55 116 32 116 0 c 1
132 345 m 0
 123 345 116 341 111 336 c 0
 105 330 103 323 103 315 c 0
 103 307 105 299 111 294 c 0
 116 288 123 285 132 285 c 0
 141 285 148 288 154 294 c 0
 159 299 162 306 162 315 c 0
 162 323 159 331 154 337 c 0
 148 342 141 345 132 345 c 0
EndSplineSet
EndChar
StartChar: uni0E1D
Encoding: 189 3613 158
Width: 422
Flags: HW
HStem: 0 23
VStem: 54 66<130 241> 303 66<130 534>
Fore
116 0 m 1
 54 0 l 1
 54 313 l 2
 54 334 61 354 75 368 c 0
 88 383 107 391 132 391 c 0
 149 391 164 388 175 381 c 0
 185 374 194 365 200 354 c 0
 206 341 208 329 208 316 c 0
 208 297 202 280 191 266 c 0
 180 251 164 242 145 240 c 0
 132 240 124 240 120 241 c 1
 120 130 l 1
 211 224 l 1
 303 130 l 1
 303 534 l 1
 368 534 l 1
 368 0 l 1
 304 0 l 1
 304 31 296 54 281 71 c 2
 210 151 l 1
 138 71 l 2
 123 55 116 32 116 0 c 1
132 345 m 0
 123 345 116 341 111 336 c 0
 105 330 103 323 103 315 c 0
 103 307 105 299 111 294 c 0
 116 288 123 285 132 285 c 0
 141 285 148 288 154 294 c 0
 159 299 162 306 162 315 c 0
 162 323 159 331 154 337 c 0
 148 342 141 345 132 345 c 0
EndSplineSet
EndChar
StartChar: uni0E1E
Encoding: 190 3614 159
Width: 480
Flags: HW
HStem: 0 23
VStem: 94 67<176 241 241 241> 360 66<0 3 176 384>
Fore
160 176 m 1
 260 375 l 1
 360 176 l 1
 360 384 l 1
 426 384 l 1
 426 0 l 1
 360 0 l 1
 360 6 359 14 358 25 c 0
 357 35 355 44 351 52 c 2
 260 245 l 1
 167 52 l 2
 164 44 162 35 160 25 c 0
 159 14 159 6 158 0 c 1
 94 0 l 1
 94 241 l 1
 90 240 82 240 70 240 c 0
 51 242 35 251 24 266 c 0
 12 280 7 297 7 316 c 0
 7 329 9 341 15 354 c 0
 20 365 29 374 41 381 c 0
 52 388 66 391 82 391 c 0
 107 391 127 383 140 368 c 0
 154 354 160 334 160 313 c 2
 160 176 l 1
82 285 m 0
 92 285 98 288 104 294 c 0
 110 299 112 306 112 315 c 0
 112 323 110 331 104 337 c 0
 98 342 92 345 82 345 c 0
 73 345 67 341 61 336 c 0
 55 330 53 323 53 315 c 0
 53 307 55 299 61 294 c 0
 67 288 73 285 82 285 c 0
EndSplineSet
EndChar
StartChar: uni0E1F
Encoding: 191 3615 160
Width: 480
Flags: HW
HStem: 0 23
VStem: 94 67<176 241 241 241> 360 66<0 3 176 534>
Fore
160 176 m 1
 260 375 l 1
 360 176 l 1
 360 534 l 1
 426 534 l 1
 426 0 l 1
 360 0 l 1
 360 6 359 14 358 25 c 0
 357 35 355 44 351 52 c 2
 260 245 l 1
 167 52 l 2
 164 44 162 35 160 25 c 0
 159 14 159 6 158 0 c 1
 94 0 l 1
 94 241 l 1
 90 240 82 240 70 240 c 0
 51 242 35 251 24 266 c 0
 12 280 7 297 7 316 c 0
 7 329 9 341 15 354 c 0
 20 365 29 374 41 381 c 0
 52 388 66 391 82 391 c 0
 107 391 127 383 140 368 c 0
 154 354 160 334 160 313 c 2
 160 176 l 1
82 285 m 0
 92 285 98 288 104 294 c 0
 110 299 112 306 112 315 c 0
 112 323 110 331 104 337 c 0
 98 342 92 345 82 345 c 0
 73 345 67 341 61 336 c 0
 55 330 53 323 53 315 c 0
 53 307 55 299 61 294 c 0
 67 288 73 285 82 285 c 0
EndSplineSet
EndChar
StartChar: uni0E20
Encoding: 192 3616 161
Width: 452
Flags: HW
HStem: -8 23
VStem: 332 66<0 261 261 267>
Fore
90 144 m 0
 93 144 95 144 96 144 c 0
 97 142 97 142 98 142 c 1
 98 186 l 2
 98 208 102 225 107 237 c 0
 113 251 121 262 133 270 c 1
 128 272 119 276 106 279 c 0
 94 282 79 286 63 287 c 1
 63 308 l 1
 67 312 71 318 78 325 c 0
 85 333 96 342 111 354 c 0
 125 364 145 374 166 382 c 0
 189 390 215 393 244 393 c 0
 273 393 299 389 323 379 c 0
 347 370 365 355 377 336 c 0
 391 316 398 293 398 267 c 2
 398 0 l 1
 332 0 l 1
 332 261 l 2
 332 288 323 310 306 323 c 0
 288 338 266 344 238 344 c 0
 224 344 207 341 190 336 c 0
 173 331 158 324 144 314 c 1
 150 313 162 311 176 306 c 0
 191 303 205 295 219 285 c 1
 219 253 l 1
 208 253 197 250 184 242 c 0
 172 234 165 217 165 191 c 2
 165 69 l 2
 165 46 158 28 146 15 c 0
 133 0 115 -7 90 -8 c 1
 67 -7 47 0 35 15 c 0
 21 29 15 46 15 67 c 0
 15 88 21 106 35 121 c 0
 47 136 67 144 90 144 c 0
90 35 m 0
 101 35 110 38 115 45 c 0
 121 51 123 59 123 68 c 0
 123 89 112 101 90 101 c 0
 80 101 72 97 67 92 c 0
 61 85 58 77 58 68 c 0
 58 60 61 52 67 45 c 0
 72 38 80 35 90 35 c 0
EndSplineSet
EndChar
StartChar: uni0E21
Encoding: 193 3617 162
Width: 435
Flags: HW
HStem: -8 23
VStem: 113 66<55 59 59 123 177 241 241 241> 315 66<104 384>
Fore
315 384 m 1
 381 384 l 1
 381 0 l 1
 318 0 l 1
 314 14 306 29 294 47 c 0
 281 66 264 81 244 96 c 0
 224 111 202 120 179 123 c 1
 179 59 l 2
 179 37 173 20 160 10 c 0
 148 -1 133 -8 118 -8 c 0
 92 -9 70 0 54 16 c 0
 40 31 31 51 31 76 c 0
 29 104 38 128 53 147 c 0
 69 166 89 176 113 177 c 1
 113 241 l 1
 110 241 l 0
 108 240 106 240 104 240 c 0
 80 240 62 247 49 262 c 0
 35 277 28 295 28 315 c 0
 28 337 35 355 47 370 c 0
 61 384 80 391 104 391 c 0
 124 391 142 384 157 372 c 0
 172 359 179 342 179 323 c 2
 179 176 l 1
 218 171 250 160 272 144 c 0
 294 128 308 114 315 104 c 1
 315 384 l 1
104 285 m 0
 113 285 120 288 125 294 c 0
 131 299 133 306 133 315 c 0
 133 323 131 331 125 337 c 0
 120 342 113 345 104 345 c 0
 95 345 88 341 82 336 c 0
 77 330 75 323 75 315 c 0
 75 307 77 299 82 294 c 0
 88 288 95 285 104 285 c 0
113 127 m 1
 103 125 95 121 89 113 c 0
 84 105 80 94 80 81 c 0
 80 56 88 43 104 42 c 0
 110 42 113 46 113 55 c 2
 113 127 l 1
EndSplineSet
EndChar
StartChar: uni0E22
Encoding: 194 3618 163
Width: 403
Flags: HW
HStem: 0 59<120 247 247 255>
VStem: 282 67<92 384>
Fore
108 184 m 1
 90 190 76 202 64 220 c 0
 52 238 46 259 46 280 c 0
 46 296 49 311 54 323 c 0
 62 346 75 363 92 375 c 0
 108 386 129 392 150 392 c 0
 172 392 190 385 202 372 c 0
 216 357 223 340 223 320 c 0
 223 299 216 282 203 268 c 0
 191 253 173 246 150 246 c 0
 139 246 128 250 118 254 c 1
 107 257 103 260 103 261 c 1
 103 261 103 261 104 261 c 1
 104 245 114 233 134 223 c 0
 155 212 175 208 195 207 c 1
 195 158 l 1
 167 158 148 153 137 141 c 0
 125 131 120 115 120 94 c 2
 120 59 l 1
 247 59 l 2
 262 59 272 61 277 66 c 0
 280 69 282 78 282 92 c 2
 282 384 l 1
 349 384 l 1
 349 73 l 2
 349 43 344 23 333 14 c 0
 322 5 299 0 267 0 c 2
 54 0 l 1
 54 94 l 2
 54 116 59 134 67 148 c 0
 75 162 82 171 90 176 c 0
 98 181 105 183 108 184 c 1
151 292 m 0
 160 292 167 294 172 299 c 0
 176 305 179 311 179 319 c 0
 179 327 176 332 172 338 c 0
 167 344 160 346 151 346 c 0
 142 346 136 344 131 338 c 0
 125 332 123 325 123 319 c 0
 123 312 125 306 131 301 c 0
 136 295 142 292 151 292 c 0
EndSplineSet
EndChar
StartChar: uni0E23
Encoding: 195 3619 164
Width: 351
Flags: HW
HStem: -5 23
VStem: 12 331
Fore
298 190 m 2
 298 73 l 2
 298 51 290 33 276 18 c 0
 260 3 241 -5 218 -5 c 0
 194 -5 175 3 163 18 c 0
 149 33 142 51 142 71 c 0
 142 92 149 110 163 124 c 0
 176 139 194 147 218 148 c 0
 224 148 228 148 232 147 c 1
 232 190 l 2
 232 202 231 212 228 220 c 0
 226 228 219 237 209 245 c 0
 202 251 190 255 171 260 c 0
 151 263 127 267 96 270 c 0
 67 272 38 273 12 273 c 1
 12 308 l 1
 25 332 42 353 66 370 c 0
 88 386 116 396 151 396 c 0
 175 396 201 391 229 383 c 0
 258 374 276 370 286 370 c 0
 299 370 314 373 329 381 c 1
 344 332 l 1
 324 324 306 320 287 320 c 0
 270 320 247 324 217 333 c 0
 186 342 163 347 145 347 c 0
 127 347 113 344 104 336 c 0
 95 328 89 322 86 316 c 1
 172 316 233 303 268 275 c 0
 288 258 298 229 298 190 c 2
219 42 m 0
 228 42 235 44 241 50 c 0
 246 55 249 63 249 71 c 0
 249 79 246 87 242 93 c 0
 236 98 229 101 219 101 c 0
 209 101 202 97 197 92 c 0
 191 86 189 79 189 71 c 0
 189 63 191 56 197 51 c 0
 202 45 210 42 219 42 c 0
EndSplineSet
EndChar
StartChar: uni0E24
Encoding: 196 3620 165
Width: 416
Flags: HW
HStem: 344 50<194 217>
VStem: 63 67<145 186 186 191> 297 66<-200 261 261 267>
Fore
130 145 m 1
 139 145 l 2
 163 145 182 137 195 122 c 0
 209 106 216 88 216 69 c 0
 216 49 209 31 195 16 c 0
 182 1 163 -7 139 -7 c 0
 116 -7 98 1 85 16 c 0
 70 31 63 47 63 69 c 2
 63 186 l 2
 63 208 66 225 71 237 c 0
 77 250 86 261 99 270 c 1
 94 272 85 276 72 279 c 0
 60 282 45 286 29 287 c 1
 29 308 l 1
 32 312 36 318 43 325 c 0
 50 333 61 342 76 354 c 0
 90 364 110 374 132 382 c 0
 154 390 180 393 209 393 c 0
 240 393 266 389 288 380 c 0
 311 370 329 356 342 337 c 0
 356 318 363 295 363 267 c 2
 363 -200 l 1
 297 -200 l 1
 297 261 l 2
 297 288 288 310 271 323 c 0
 253 338 231 344 203 344 c 0
 171 344 139 333 108 314 c 1
 112 313 116 312 123 311 c 0
 131 310 140 306 151 303 c 0
 163 298 174 293 184 285 c 1
 184 253 l 1
 172 253 160 250 148 242 c 0
 136 234 130 217 130 191 c 2
 130 145 l 1
139 36 m 0
 149 36 158 40 164 46 c 0
 170 52 172 60 172 69 c 0
 172 90 160 102 139 102 c 0
 129 102 121 98 116 93 c 0
 111 86 107 78 107 69 c 0
 107 61 111 53 116 46 c 0
 122 40 129 36 139 36 c 0
EndSplineSet
EndChar
StartChar: uni0E25
Encoding: 197 3621 166
Width: 400
Flags: HW
HStem: -8 23 342 50<171 199>
VStem: 280 67<171 263 263 264>
Fore
137 -8 m 0
 114 -8 96 -1 81 12 c 0
 67 26 58 42 56 61 c 0
 54 87 54 121 54 160 c 1
 58 193 67 220 84 242 c 0
 99 263 121 275 149 275 c 0
 179 276 202 268 221 253 c 0
 241 238 254 223 264 203 c 0
 273 184 279 174 280 171 c 1
 280 263 l 2
 280 289 272 308 255 322 c 0
 238 336 215 342 184 342 c 0
 158 342 137 337 118 324 c 0
 98 312 84 297 72 282 c 1
 35 315 l 1
 47 336 67 353 93 368 c 0
 118 383 148 392 184 392 c 0
 231 392 270 381 301 358 c 0
 331 336 347 304 347 264 c 2
 347 0 l 1
 280 0 l 1
 276 24 268 52 258 87 c 0
 246 122 232 155 214 183 c 0
 195 211 175 226 153 225 c 0
 124 224 110 194 110 140 c 1
 113 141 116 141 121 142 c 0
 125 144 131 144 137 144 c 0
 160 142 180 136 192 123 c 0
 205 110 212 92 212 70 c 0
 214 47 206 29 192 15 c 0
 180 0 160 -7 137 -8 c 0
137 37 m 0
 147 37 154 41 159 46 c 0
 164 52 166 59 166 68 c 0
 166 76 164 84 159 89 c 0
 154 95 147 97 137 97 c 0
 127 97 120 94 115 88 c 0
 110 82 107 76 107 68 c 0
 107 60 110 53 115 47 c 0
 121 41 128 37 137 37 c 0
EndSplineSet
EndChar
StartChar: uni0E26
Encoding: 198 3622 167
Width: 452
Flags: HW
VStem: 332 66<-200 261 261 267>
Fore
90 144 m 0
 93 144 95 144 96 144 c 0
 97 142 97 142 98 142 c 1
 98 186 l 2
 98 208 102 225 107 237 c 0
 113 251 121 262 133 270 c 1
 128 272 119 276 106 279 c 0
 94 282 79 286 63 287 c 1
 63 308 l 1
 67 312 71 318 78 325 c 0
 85 333 96 342 111 354 c 0
 125 364 145 374 166 382 c 0
 189 390 215 393 244 393 c 0
 273 393 299 389 323 379 c 0
 347 370 365 355 377 336 c 0
 391 316 398 293 398 267 c 2
 398 -200 l 1
 332 -200 l 1
 332 261 l 2
 332 288 323 310 306 323 c 0
 288 338 266 344 238 344 c 0
 224 344 207 341 190 336 c 0
 173 331 158 324 144 314 c 1
 150 313 162 311 176 306 c 0
 191 303 205 295 219 285 c 1
 219 253 l 1
 208 253 197 250 184 242 c 0
 172 234 165 217 165 191 c 2
 165 69 l 2
 165 46 158 28 146 15 c 0
 133 0 115 -7 90 -8 c 1
 67 -7 47 0 35 15 c 0
 21 29 15 46 15 67 c 0
 15 88 21 106 35 121 c 0
 47 136 67 144 90 144 c 0
90 35 m 0
 101 35 110 38 115 45 c 0
 121 51 123 59 123 68 c 0
 123 89 112 101 90 101 c 0
 80 101 72 97 67 92 c 0
 61 85 58 77 58 68 c 0
 58 60 61 52 67 45 c 0
 72 38 80 35 90 35 c 0
EndSplineSet
EndChar
StartChar: uni0E27
Encoding: 199 3623 168
Width: 361
Flags: HW
HStem: -8 23 339 54<153 166>
VStem: 242 66<142 261 261 262>
Fore
231 144 m 0
 235 144 238 144 242 142 c 1
 242 261 l 2
 242 289 234 308 217 320 c 0
 200 332 179 339 153 339 c 0
 108 340 72 318 42 273 c 1
 -3 308 l 1
 11 332 32 353 58 370 c 0
 84 385 115 393 154 393 c 0
 202 393 241 382 268 358 c 0
 294 334 307 303 307 262 c 2
 307 70 l 2
 307 49 301 29 286 15 c 0
 271 0 253 -8 231 -8 c 0
 207 -8 188 0 174 15 c 0
 160 29 153 49 154 71 c 0
 154 92 163 108 176 123 c 0
 190 137 208 144 231 144 c 0
231 37 m 0
 241 37 247 41 253 46 c 0
 258 52 260 59 260 68 c 0
 260 76 258 84 253 89 c 0
 247 95 241 97 231 97 c 0
 220 97 214 94 209 88 c 0
 203 82 201 76 201 68 c 0
 201 60 203 53 209 47 c 0
 215 41 221 37 231 37 c 0
EndSplineSet
EndChar
StartChar: uni0E28
Encoding: 200 3624 169
Width: 413
Flags: HW
HStem: 0 23
VStem: 89 67<0 67 67 75> 294 66<0 245 245 261>
Fore
315 357 m 0
 316 357 320 363 327 374 c 0
 332 385 338 398 341 412 c 1
 398 386 l 1
 394 371 388 355 377 340 c 0
 367 324 359 313 351 306 c 1
 353 303 355 298 356 292 c 0
 358 285 359 275 359 261 c 2
 359 0 l 1
 294 0 l 1
 294 245 l 1
 294 263 l 1
 282 255 271 251 259 247 c 1
 260 246 260 243 261 238 c 0
 262 234 263 228 263 221 c 0
 262 200 255 182 243 167 c 0
 231 153 211 146 188 145 c 0
 184 145 177 146 170 147 c 0
 160 149 156 150 156 151 c 2
 156 0 l 1
 89 0 l 1
 89 67 l 2
 89 84 87 99 81 113 c 0
 76 127 68 142 58 160 c 0
 47 179 40 194 34 208 c 0
 28 221 26 237 26 257 c 0
 27 287 36 313 52 333 c 0
 67 354 87 370 113 380 c 0
 138 390 164 396 192 397 c 0
 208 397 224 396 240 392 c 0
 255 389 270 383 284 376 c 0
 298 370 308 363 315 357 c 0
232 285 m 1
 240 285 247 288 257 295 c 0
 264 301 271 306 276 310 c 1
 267 321 254 330 238 336 c 0
 221 341 205 344 185 344 c 0
 159 342 136 334 115 318 c 0
 94 301 82 280 82 254 c 0
 82 240 86 226 92 211 c 0
 96 198 98 191 99 191 c 1
 99 191 99 191 99 192 c 0
 99 209 105 232 116 258 c 0
 127 284 150 297 188 298 c 0
 201 298 211 297 218 294 c 0
 225 290 229 287 232 285 c 1
188 191 m 0
 198 191 205 194 210 200 c 0
 215 206 217 212 217 221 c 0
 217 229 215 237 210 243 c 0
 205 249 198 251 188 251 c 0
 179 251 172 247 166 242 c 0
 160 236 158 229 158 221 c 0
 158 214 160 206 166 200 c 0
 172 194 179 191 188 191 c 0
EndSplineSet
EndChar
StartChar: uni0E29
Encoding: 201 3625 170
Width: 437
Flags: HW
HStem: 0 59<56 106 172 281>
VStem: 106 66<59 241 241 241> 318 66<92 131 131 131 198 384>
Fore
469 278 m 1
 469 257 466 237 459 221 c 0
 452 205 444 192 434 182 c 0
 425 172 415 164 405 158 c 0
 394 153 386 148 383 146 c 1
 383 75 l 2
 383 45 375 26 359 16 c 0
 344 6 318 0 281 0 c 2
 56 0 l 1
 56 59 l 1
 106 59 l 1
 106 241 l 1
 102 240 94 240 82 240 c 0
 63 242 47 251 36 266 c 0
 24 280 18 297 18 316 c 0
 18 337 25 355 38 370 c 0
 51 384 70 391 94 391 c 0
 120 391 139 384 151 370 c 0
 165 355 172 336 172 313 c 2
 172 59 l 1
 284 59 l 2
 298 59 308 61 312 66 c 0
 315 69 318 78 318 92 c 2
 318 131 l 1
 276 131 245 137 226 147 c 1
 211 157 201 165 195 173 c 0
 190 181 186 194 185 212 c 0
 185 227 190 241 200 253 c 0
 210 266 225 272 246 272 c 0
 263 272 278 267 288 257 c 0
 298 245 305 232 305 216 c 0
 306 198 301 183 292 173 c 1
 306 173 314 173 318 174 c 1
 318 384 l 1
 383 384 l 1
 383 198 l 1
 402 208 412 234 412 278 c 1
 469 278 l 1
246 193 m 0
 254 193 260 195 263 200 c 0
 267 205 269 210 269 216 c 0
 269 221 267 227 262 232 c 0
 259 235 253 237 246 237 c 0
 240 237 234 235 231 231 c 0
 226 226 224 221 224 216 c 0
 224 210 226 206 231 200 c 0
 234 195 238 193 246 193 c 0
94 285 m 0
 104 285 111 288 116 294 c 0
 121 299 123 306 123 315 c 0
 123 323 121 331 116 337 c 0
 111 342 104 345 94 345 c 0
 85 345 78 341 72 336 c 0
 67 330 64 323 64 315 c 0
 64 307 67 299 72 294 c 0
 78 288 85 285 94 285 c 0
EndSplineSet
EndChar
StartChar: uni0E2A
Encoding: 202 3626 171
Width: 400
Flags: HW
HStem: -8 23 342 50<171 199>
VStem: 35 334
Fore
137 37 m 0
 147 37 154 41 159 46 c 0
 164 52 166 59 166 68 c 0
 166 76 164 84 159 89 c 0
 154 95 147 97 137 97 c 0
 127 97 120 94 115 88 c 0
 110 82 107 76 107 68 c 0
 107 60 110 53 115 47 c 0
 121 41 128 37 137 37 c 0
253 318 m 1
 237 334 215 342 184 342 c 0
 158 342 137 337 118 324 c 0
 98 312 84 297 72 282 c 1
 35 315 l 1
 47 336 67 353 93 368 c 0
 118 383 148 392 184 392 c 0
 219 392 251 385 279 371 c 0
 281 371 288 382 299 403 c 0
 310 425 316 436 319 436 c 0
 322 435 330 431 344 423 c 0
 357 415 366 409 370 405 c 1
 366 399 357 386 345 368 c 0
 332 349 325 339 325 336 c 1
 333 328 339 318 342 306 c 0
 346 296 347 281 347 264 c 2
 347 0 l 1
 280 0 l 1
 276 24 268 52 258 87 c 0
 246 122 232 155 214 183 c 0
 195 211 175 226 153 225 c 0
 124 224 110 194 110 140 c 1
 113 141 116 141 121 142 c 0
 125 144 131 144 137 144 c 0
 160 142 180 136 192 123 c 0
 205 110 212 92 212 70 c 0
 214 47 206 29 192 15 c 0
 180 0 160 -7 137 -8 c 0
 114 -8 96 -1 81 12 c 0
 67 26 58 42 56 61 c 0
 54 87 54 121 54 160 c 1
 58 193 67 220 84 242 c 0
 99 263 121 275 149 275 c 0
 179 276 202 269 219 259 c 0
 220 259 226 269 236 288 c 0
 246 307 252 318 253 318 c 1
278 279 m 1
 276 272 271 263 264 252 c 0
 257 241 253 234 253 233 c 0
 260 224 266 214 270 201 c 0
 275 189 278 179 280 171 c 1
 280 189 280 207 279 225 c 0
 279 243 279 261 278 279 c 1
EndSplineSet
EndChar
StartChar: uni0E2B
Encoding: 203 3627 172
Width: 436
Flags: HW
HStem: 0 23
VStem: 92 66<176 241 241 241> 315 67<0 182>
Fore
157 176 m 1
 172 200 189 219 208 234 c 0
 227 249 241 258 251 263 c 1
 238 278 232 296 232 316 c 0
 232 339 238 357 252 372 c 0
 266 385 286 392 312 392 c 0
 334 392 353 385 365 371 c 0
 377 356 384 338 384 316 c 0
 384 288 374 268 355 254 c 1
 359 253 365 246 372 236 c 0
 379 226 382 208 382 182 c 2
 382 0 l 1
 315 0 l 1
 315 182 l 2
 315 201 313 214 308 219 c 0
 304 225 301 228 297 228 c 1
 254 206 220 174 194 132 c 0
 168 90 156 51 156 15 c 2
 156 0 l 1
 92 0 l 1
 92 241 l 1
 88 240 80 240 68 240 c 0
 49 242 33 251 21 266 c 0
 9 280 3 297 3 316 c 0
 3 337 10 355 24 370 c 0
 36 384 55 391 79 391 c 0
 105 391 124 384 138 370 c 0
 150 355 157 336 157 313 c 2
 157 176 l 1
308 286 m 0
 319 286 325 289 330 295 c 0
 336 301 338 307 338 316 c 0
 338 324 336 332 330 338 c 0
 325 344 319 346 308 346 c 0
 299 346 293 342 287 337 c 0
 281 331 279 324 279 316 c 0
 279 308 281 301 287 295 c 0
 293 289 299 286 308 286 c 0
79 285 m 0
 89 285 96 288 101 294 c 0
 106 299 108 306 108 315 c 0
 108 323 106 331 101 337 c 0
 96 342 89 345 79 345 c 0
 70 345 63 341 58 336 c 0
 52 330 50 323 50 315 c 0
 50 307 52 299 58 294 c 0
 63 288 70 285 79 285 c 0
EndSplineSet
EndChar
StartChar: uni0E2C
Encoding: 204 3628 173
Width: 482
Flags: HW
HStem: 0 23
VStem: 97 66<167 241 241 241> 363 66<0 3 167 306 306 306>
Fore
428 321 m 1
 428 0 l 1
 363 0 l 1
 363 6 362 14 360 25 c 0
 359 35 358 44 354 52 c 2
 262 224 l 1
 171 52 l 2
 167 46 165 37 164 25 c 0
 162 14 160 6 160 0 c 1
 97 0 l 1
 97 241 l 1
 93 240 85 240 72 240 c 0
 53 242 37 251 26 266 c 0
 15 280 9 297 9 316 c 0
 9 329 11 341 17 354 c 0
 23 365 31 374 43 381 c 0
 54 388 68 391 85 391 c 0
 110 391 129 383 142 368 c 0
 156 354 163 334 163 313 c 2
 163 167 l 1
 262 338 l 1
 363 167 l 1
 363 306 l 1
 341 306 324 313 311 327 c 0
 297 339 290 356 289 376 c 0
 289 397 296 414 308 427 c 0
 321 441 339 447 360 447 c 0
 388 447 406 440 416 424 c 0
 425 408 429 396 431 385 c 1
 441 393 449 409 454 433 c 1
 504 410 l 1
 501 394 495 380 485 367 c 0
 475 355 464 344 453 336 c 0
 443 328 434 322 428 321 c 1
360 351 m 0
 368 351 374 354 379 359 c 1
 384 364 386 370 386 377 c 0
 386 384 384 390 380 396 c 0
 375 400 368 402 360 402 c 0
 353 402 347 400 342 396 c 0
 338 390 336 384 336 377 c 0
 336 371 338 365 342 359 c 0
 348 354 354 351 360 351 c 0
85 285 m 0
 94 285 101 288 106 294 c 0
 112 299 114 306 114 315 c 0
 114 323 112 331 106 337 c 0
 101 342 94 345 85 345 c 0
 76 345 69 341 63 336 c 0
 58 330 55 323 55 315 c 0
 55 307 58 299 63 294 c 0
 69 288 76 285 85 285 c 0
EndSplineSet
EndChar
StartChar: uni0E2D
Encoding: 205 3629 174
Width: 405
Flags: HW
HStem: 0 59<153 250 250 257> 340 53<173 184>
VStem: 285 67<92 261 261 262>
Fore
120 120 m 1
 120 92 l 2
 120 78 122 69 125 66 c 0
 129 61 138 59 153 59 c 2
 250 59 l 2
 264 59 275 61 279 66 c 0
 282 69 285 78 285 92 c 2
 285 261 l 2
 285 313 251 339 184 340 c 0
 163 340 142 336 123 327 c 0
 104 316 87 304 75 288 c 1
 33 322 l 1
 46 341 67 358 93 373 c 0
 119 386 149 393 186 393 c 0
 240 393 280 382 308 359 c 0
 337 337 351 304 351 262 c 2
 351 76 l 2
 351 45 346 26 334 16 c 0
 323 6 302 0 269 0 c 2
 137 0 l 2
 114 0 97 2 86 6 c 0
 73 9 66 16 61 26 c 0
 56 36 54 52 54 73 c 2
 54 189 l 2
 54 211 61 231 76 246 c 0
 90 262 110 270 133 270 c 0
 150 270 165 267 176 259 c 0
 188 252 197 243 202 232 c 0
 208 220 210 208 210 195 c 0
 210 175 203 157 190 141 c 0
 176 127 157 119 133 119 c 0
 130 119 128 119 125 120 c 0
 123 120 121 120 120 120 c 1
134 165 m 0
 145 165 151 168 157 174 c 0
 162 180 164 186 164 194 c 0
 164 202 162 210 157 216 c 0
 151 221 145 224 134 224 c 0
 125 224 119 220 113 215 c 0
 107 209 105 202 105 194 c 0
 105 186 107 180 113 174 c 0
 119 168 125 165 134 165 c 0
EndSplineSet
EndChar
StartChar: uni0E2E
Encoding: 206 3630 175
Width: 405
Flags: HW
HStem: 0 59<153 251 251 258> 257 42 353 46<167 190>
VStem: 285 67<92 277 277 277>
Fore
401 364 m 1
 386 344 371 325 351 310 c 1
 351 76 l 2
 351 45 346 26 334 16 c 0
 323 6 302 0 269 0 c 2
 137 0 l 2
 114 0 97 2 86 6 c 0
 73 9 66 15 61 25 c 0
 56 35 54 51 54 71 c 2
 54 158 l 2
 54 182 61 201 75 217 c 0
 88 233 107 241 133 241 c 0
 154 241 171 234 183 220 c 0
 195 206 202 189 203 170 c 0
 203 150 198 132 185 118 c 0
 173 103 155 96 133 95 c 0
 131 95 129 95 127 96 c 0
 123 96 121 96 120 97 c 1
 120 79 l 2
 120 69 121 63 124 61 c 0
 128 60 137 59 153 59 c 2
 251 59 l 2
 266 59 276 61 279 66 c 0
 282 69 285 78 285 92 c 2
 285 277 l 1
 281 273 271 270 254 264 c 0
 237 259 211 257 174 257 c 0
 139 257 107 262 81 272 c 0
 55 282 42 298 42 321 c 0
 42 337 49 350 63 363 c 0
 77 375 94 384 114 390 c 0
 133 396 154 399 174 399 c 0
 214 399 245 393 269 383 c 0
 293 373 307 364 315 357 c 1
 321 363 334 377 355 403 c 1
 401 364 l 1
131 142 m 0
 139 142 146 145 150 150 c 0
 155 156 157 162 157 168 c 0
 157 175 155 181 150 186 c 0
 146 192 139 194 131 194 c 0
 123 194 116 192 112 188 c 0
 107 182 105 176 105 168 c 0
 105 162 107 156 113 150 c 0
 118 145 123 142 131 142 c 0
175 298 m 0
 203 297 227 302 244 307 c 0
 261 314 270 319 270 321 c 1
 266 327 257 332 242 340 c 0
 227 348 205 353 176 353 c 0
 158 353 140 350 121 345 c 0
 103 339 94 332 94 323 c 0
 94 308 121 299 175 298 c 0
EndSplineSet
EndChar
StartChar: uni0E2F
Encoding: 207 3631 176
Width: 384
Flags: HW
HStem: -16 23
VStem: 264 66<124 216 216 216>
Fore
37 296 m 1
 43 359 72 391 128 392 c 0
 141 392 154 389 166 382 c 0
 179 375 188 366 194 354 c 0
 201 341 205 329 205 315 c 0
 205 294 198 276 184 261 c 0
 170 246 151 240 128 240 c 0
 124 240 121 240 118 241 c 0
 114 241 112 241 110 241 c 1
 115 228 138 221 179 221 c 1
 202 225 223 243 240 273 c 0
 257 304 266 341 266 384 c 1
 330 384 l 1
 330 120 l 2
 330 80 321 51 303 32 c 0
 284 12 250 -3 199 -16 c 1
 185 36 l 1
 211 45 229 53 240 59 c 0
 251 64 258 72 260 80 c 0
 263 89 264 104 264 124 c 2
 264 216 l 1
 259 202 246 190 227 180 c 0
 208 168 186 163 164 163 c 0
 158 163 149 164 139 165 c 0
 108 172 85 186 66 210 c 0
 46 234 37 262 37 296 c 1
129 285 m 0
 138 285 145 288 150 294 c 0
 156 299 158 306 158 315 c 0
 158 323 156 331 150 337 c 0
 145 342 138 345 129 345 c 0
 120 345 113 341 107 336 c 0
 102 330 99 323 99 315 c 0
 99 307 102 299 107 294 c 0
 113 288 120 285 129 285 c 0
EndSplineSet
EndChar
StartChar: uni0E30
Encoding: 208 3632 177
Width: 303
Flags: HW
HStem: 0 157 227 157
VStem: 20 262
Fore
95 157 m 0
 118 157 136 150 149 137 c 0
 162 123 168 106 170 85 c 0
 170 80 168 75 167 69 c 0
 166 62 166 58 165 54 c 1
 174 55 185 62 199 75 c 0
 212 87 219 113 219 153 c 1
 282 153 l 1
 282 105 270 68 246 41 c 0
 221 14 181 0 123 0 c 0
 96 0 72 8 52 23 c 0
 32 37 21 58 21 84 c 0
 21 105 28 123 41 137 c 0
 53 150 71 157 95 157 c 0
95 384 m 0
 118 384 137 377 149 364 c 0
 163 349 168 332 170 311 c 0
 170 306 168 301 167 295 c 0
 166 288 166 284 165 280 c 1
 165 280 l 1
 167 280 173 282 181 286 c 0
 191 292 200 302 208 316 c 0
 216 331 219 351 219 379 c 1
 282 379 l 1
 282 347 278 320 268 298 c 0
 258 277 241 259 217 246 c 0
 193 234 163 227 123 227 c 0
 97 227 73 235 52 250 c 0
 31 264 19 284 20 310 c 0
 20 331 28 349 41 364 c 0
 53 377 71 384 95 384 c 0
96 55 m 0
 105 55 112 59 116 64 c 0
 121 70 123 76 123 84 c 0
 123 90 121 97 116 103 c 0
 112 108 105 111 96 111 c 0
 87 111 80 108 76 103 c 0
 70 97 68 90 68 84 c 0
 68 76 70 70 76 64 c 0
 80 59 87 55 96 55 c 0
96 281 m 0
 104 281 111 285 116 290 c 0
 121 296 123 302 123 310 c 0
 123 318 121 324 116 330 c 0
 112 336 105 338 96 338 c 0
 88 338 81 336 76 330 c 0
 70 324 68 318 68 310 c 0
 68 303 70 296 76 290 c 0
 81 285 88 281 96 281 c 0
EndSplineSet
EndChar
StartChar: uni0E31
Encoding: 209 3633 178
Width: 0
Flags: HW
VStem: -251 328
Fore
-177 619 m 0
 -155 619 -138 611 -125 598 c 0
 -113 583 -107 566 -107 545 c 0
 -107 538 -108 531 -111 524 c 0
 -113 518 -115 513 -116 510 c 1
 -115 510 -113 510 -110 508 c 0
 -106 507 -103 507 -99 507 c 0
 -80 507 -60 514 -37 529 c 0
 -15 542 5 568 21 607 c 1
 77 588 l 1
 69 560 56 537 38 518 c 0
 19 498 -2 483 -28 471 c 0
 -54 461 -81 455 -111 455 c 0
 -122 455 -130 455 -136 457 c 0
 -166 460 -193 470 -216 485 c 0
 -240 499 -251 519 -251 545 c 0
 -251 566 -244 584 -232 598 c 0
 -219 612 -201 620 -177 619 c 0
-176 519 m 0
 -168 519 -162 521 -156 527 c 0
 -151 532 -149 538 -149 546 c 0
 -149 554 -151 559 -156 565 c 0
 -162 571 -168 573 -176 573 c 0
 -184 573 -191 571 -197 565 c 0
 -201 559 -203 554 -203 546 c 0
 -203 538 -201 532 -197 527 c 0
 -191 521 -184 519 -176 519 c 0
EndSplineSet
EndChar
StartChar: uni0E32
Encoding: 210 3634 179
Width: 334
Flags: HW
HStem: 0 23 344 52<126 148>
VStem: 215 66<0 279>
Fore
7 292 m 1
 14 316 28 340 50 363 c 0
 71 384 104 396 148 396 c 0
 195 394 229 384 250 365 c 0
 270 346 280 316 280 279 c 2
 280 0 l 1
 215 0 l 1
 215 280 l 2
 215 322 190 344 141 344 c 0
 102 344 76 321 63 276 c 1
 7 292 l 1
EndSplineSet
EndChar
StartChar: uni0E33
Encoding: 211 3635 180
Width: 334
Flags: HW
HStem: 0 23 344 52<126 148> 454 153<-131 -107>
VStem: 215 66<0 279>
Fore
7 292 m 1
 14 316 28 340 50 363 c 0
 71 384 104 396 148 396 c 0
 195 394 229 384 250 365 c 0
 270 346 280 316 280 279 c 2
 280 0 l 1
 215 0 l 1
 215 280 l 2
 215 322 190 344 141 344 c 0
 102 344 76 321 63 276 c 1
 7 292 l 1
-119 607 m 0
 -95 607 -76 600 -63 585 c 0
 -50 571 -43 553 -43 531 c 0
 -43 510 -50 492 -63 477 c 0
 -77 462 -95 454 -119 454 c 0
 -142 454 -160 462 -174 477 c 0
 -188 492 -194 510 -194 531 c 0
 -194 553 -188 571 -174 585 c 0
 -162 600 -142 607 -119 607 c 0
-118 501 m 0
 -108 501 -102 504 -96 510 c 0
 -90 515 -88 523 -88 531 c 0
 -88 539 -90 547 -96 553 c 0
 -102 558 -108 560 -118 560 c 0
 -128 560 -134 558 -139 553 c 0
 -145 547 -147 539 -147 531 c 0
 -147 523 -145 515 -139 510 c 0
 -134 504 -128 501 -118 501 c 0
EndSplineSet
EndChar
StartChar: uni0E34
Encoding: 212 3636 181
Width: 0
Flags: HW
VStem: -355 303
Fore
-193 614 m 0
 -165 612 -141 605 -122 591 c 0
 -104 579 -90 563 -80 546 c 0
 -71 529 -64 511 -61 492 c 0
 -56 472 -53 458 -52 450 c 1
 -63 453 -80 459 -104 466 c 0
 -128 471 -156 477 -186 481 c 0
 -208 485 -233 486 -261 486 c 0
 -282 486 -302 485 -319 484 c 0
 -336 483 -348 481 -355 480 c 1
 -351 505 -342 528 -328 548 c 0
 -313 567 -295 583 -271 596 c 0
 -247 608 -221 614 -193 614 c 0
-193 568 m 1
 -214 568 -232 565 -247 557 c 0
 -263 549 -273 541 -277 531 c 1
 -273 532 -268 532 -259 533 c 0
 -251 533 -242 533 -232 533 c 0
 -221 533 -209 532 -192 531 c 0
 -170 529 -151 525 -139 522 c 0
 -125 518 -116 514 -112 512 c 1
 -129 545 -156 564 -193 568 c 1
EndSplineSet
EndChar
StartChar: uni0E35
Encoding: 213 3637 182
Width: 0
Flags: HW
VStem: -90 59<589 657>
Fore
-170 616 m 0
 -148 616 -130 610 -118 605 c 0
 -104 598 -95 592 -90 589 c 1
 -90 657 l 1
 -32 657 l 1
 -32 501 l 1
 -29 501 -25 484 -18 450 c 1
 -31 453 -51 460 -79 468 c 0
 -107 476 -136 480 -162 484 c 0
 -183 487 -208 488 -236 488 c 0
 -253 488 -267 488 -278 487 c 0
 -312 484 l 0
 -323 483 -330 483 -331 483 c 1
 -328 507 -319 530 -304 550 c 0
 -289 571 -271 586 -247 598 c 0
 -224 610 -198 617 -170 616 c 0
-170 571 m 1
 -189 571 -207 567 -223 559 c 0
 -238 551 -249 542 -252 532 c 1
 -249 533 -243 533 -235 534 c 0
 -227 536 -217 536 -202 536 c 0
 -194 536 -183 534 -168 533 c 0
 -151 531 -138 529 -125 527 c 0
 -114 523 -105 521 -97 518 c 0
 -90 515 -87 514 -87 514 c 1
 -87 514 l 1
 -104 547 -131 565 -170 571 c 1
EndSplineSet
EndChar
StartChar: uni0E36
Encoding: 214 3638 183
Width: 0
Flags: HW
VStem: -364 312
Fore
-53 607 m 1
 -53 573 -63 551 -82 541 c 1
 -79 534 -73 523 -67 508 c 0
 -60 493 -55 473 -52 450 c 1
 -64 453 -85 460 -113 468 c 0
 -141 476 -170 480 -195 484 c 0
 -217 487 -242 488 -270 488 c 0
 -287 488 -301 488 -312 487 c 0
 -324 486 -334 485 -345 484 c 0
 -355 483 -362 483 -364 483 c 1
 -359 507 -350 530 -336 550 c 0
 -322 571 -304 586 -280 598 c 0
 -257 610 -231 616 -202 616 c 0
 -199 616 -194 616 -189 615 c 0
 -183 614 -181 614 -181 612 c 0
 -170 646 -148 663 -116 663 c 0
 -98 663 -84 659 -72 649 c 0
 -62 638 -55 624 -53 607 c 1
-203 571 m 1
 -223 571 -241 567 -257 559 c 0
 -273 551 -282 544 -286 533 c 1
 -282 534 -277 534 -268 536 c 0
 -260 536 -251 536 -241 536 c 0
 -233 536 -219 534 -201 533 c 0
 -180 531 -162 528 -148 524 c 0
 -134 520 -125 516 -121 514 c 1
 -138 547 -166 565 -203 571 c 1
-118 580 m 0
 -112 580 -107 582 -104 586 c 0
 -101 590 -98 594 -98 600 c 0
 -98 605 -99 609 -103 612 c 0
 -106 617 -112 619 -118 619 c 0
 -130 619 -137 612 -137 600 c 0
 -137 586 -130 580 -118 580 c 0
EndSplineSet
EndChar
StartChar: uni0E37
Encoding: 215 3639 184
Width: 0
Flags: HW
VStem: -88 56<586 657>
Fore
-88 586 m 1
 -88 657 l 1
 -32 657 l 1
 -32 501 l 1
 -29 501 -25 484 -18 450 c 1
 -31 453 -51 460 -79 468 c 0
 -107 476 -136 480 -162 484 c 0
 -183 487 -208 488 -236 488 c 0
 -253 488 -267 488 -278 487 c 0
 -312 484 l 0
 -323 483 -330 483 -331 483 c 1
 -318 537 -295 573 -264 590 c 0
 -234 607 -201 616 -167 616 c 1
 -167 657 l 1
 -114 657 l 1
 -114 602 l 1
 -112 601 -108 600 -103 597 c 0
 -97 593 -93 590 -88 586 c 1
-170 571 m 1
 -189 571 -207 567 -223 559 c 0
 -238 551 -249 542 -252 532 c 1
 -249 533 -243 533 -235 534 c 0
 -227 536 -217 536 -202 536 c 0
 -194 536 -183 534 -168 533 c 0
 -151 531 -138 529 -125 527 c 0
 -114 523 -105 521 -97 518 c 0
 -90 515 -87 514 -87 514 c 1
 -87 514 l 1
 -104 547 -131 565 -170 571 c 1
EndSplineSet
EndChar
StartChar: uni0E38
Encoding: 216 3640 185
Width: 0
Flags: HW
VStem: -115 61<-282 -197 -197 -197>
Fore
-54 -282 m 1
 -115 -282 l 1
 -115 -197 l 1
 -121 -198 -130 -198 -142 -198 c 0
 -156 -197 -167 -192 -177 -184 c 0
 -188 -176 -194 -167 -200 -156 c 0
 -205 -146 -207 -134 -207 -122 c 0
 -207 -102 -200 -84 -186 -69 c 0
 -173 -53 -154 -45 -129 -45 c 0
 -116 -45 -104 -47 -93 -53 c 0
 -81 -59 -72 -68 -66 -78 c 0
 -58 -89 -54 -102 -54 -115 c 2
 -54 -282 l 1
-130 -151 m 0
 -121 -151 -113 -148 -107 -142 c 0
 -102 -137 -99 -130 -99 -122 c 0
 -99 -114 -102 -106 -107 -101 c 0
 -113 -95 -120 -92 -130 -92 c 0
 -140 -92 -147 -95 -153 -101 c 0
 -158 -106 -160 -114 -160 -122 c 0
 -160 -130 -158 -137 -153 -142 c 0
 -147 -148 -139 -151 -130 -151 c 0
EndSplineSet
EndChar
StartChar: uni0E39
Encoding: 217 3641 186
Width: 0
Flags: HW
VStem: -115 61<-216 -51>
Fore
-215 -225 m 2
 -215 -197 l 1
 -219 -198 -227 -198 -238 -198 c 0
 -252 -197 -263 -192 -273 -184 c 0
 -284 -176 -290 -167 -296 -156 c 0
 -301 -146 -303 -134 -303 -122 c 0
 -303 -102 -296 -84 -282 -69 c 0
 -269 -53 -250 -45 -225 -45 c 0
 -206 -45 -188 -52 -173 -64 c 0
 -158 -77 -150 -94 -150 -115 c 2
 -150 -215 l 2
 -150 -227 -145 -234 -132 -234 c 0
 -121 -234 -115 -228 -115 -216 c 2
 -115 -51 l 1
 -54 -51 l 1
 -54 -225 l 2
 -54 -244 -62 -260 -79 -271 c 0
 -96 -284 -114 -289 -133 -289 c 0
 -153 -289 -172 -284 -189 -271 c 0
 -206 -260 -215 -244 -215 -225 c 2
-226 -151 m 0
 -216 -151 -209 -148 -203 -141 c 0
 -198 -136 -195 -129 -195 -121 c 0
 -195 -113 -198 -106 -203 -99 c 0
 -209 -94 -216 -90 -226 -90 c 0
 -236 -90 -243 -94 -249 -99 c 0
 -254 -106 -257 -113 -257 -121 c 0
 -257 -129 -254 -136 -249 -141 c 0
 -243 -148 -236 -151 -226 -151 c 0
EndSplineSet
EndChar
StartChar: uni0E3A
Encoding: 218 3642 187
Width: 0
Flags: HW
HStem: -141 23
VStem: -131 78<-108 -99>
Fore
-92 -63 m 0
 -84 -63 -77 -66 -71 -69 c 0
 -66 -72 -61 -77 -58 -84 c 0
 -54 -89 -53 -96 -53 -103 c 0
 -53 -113 -56 -122 -63 -130 c 0
 -70 -138 -79 -141 -92 -141 c 0
 -104 -141 -113 -138 -120 -130 c 0
 -128 -122 -131 -113 -131 -103 c 0
 -131 -93 -128 -82 -120 -75 c 0
 -113 -67 -104 -63 -92 -63 c 0
EndSplineSet
EndChar
StartChar: dottedcircle
Encoding: 221 9676 188
Width: 699
Flags: HW
HStem: -10 55<364 365> 17 55<254 259> 25 55<453 462> 85 55<181 186> 94 55<520 524> 189 55<546 550> 194 55<154 160> 288 55<520 524> 293 55<186 189> 355 55<444 453> 360 55<261 262> 385 55<357 366>
VStem: 127 55<221 223> 154 55<106 114> 159 55<321 325> 226 55<45 46> 234 55<388 389> 337 55<17 18 414 417> 423 55<382 388> 432 55<52 53> 493 55<115 122 311 322> 519 55<211 223>
Fore
179 332 m 6
253 400 m 6
245 56 m 6
173 124 m 6
451 64 m 6
512 133 m 6
512 329 m 6
442 394 m 6
538 229 m 6
146 234 m 6
355 425 m 6
186 348 m 0
 202 348 214 336 214 321 c 0
 214 305 202 293 186 293 c 0
 171 293 159 305 159 321 c 0
 159 336 171 348 186 348 c 0
186 321 m 0
 186 321 l 0
 186 321 l 0
 186 321 l 0
 186 321 l 0
261 416 m 0
 277 416 289 403 289 388 c 0
 289 373 277 360 261 360 c 0
 246 360 234 373 234 388 c 0
 234 403 246 416 261 416 c 0
261 388 m 0
 261 388 l 0
 261 388 l 0
 261 388 l 0
 261 388 l 0
254 72 m 0
 269 72 281 60 281 45 c 0
 281 29 269 17 254 17 c 0
 238 17 226 29 226 45 c 0
 226 60 238 72 254 72 c 0
254 45 m 0
 254 45 l 0
 254 45 l 0
 254 45 l 0
 254 45 l 0
181 140 m 0
 197 140 209 128 209 112 c 0
 209 96 197 85 181 85 c 0
 165 85 154 96 154 112 c 0
 154 128 165 140 181 140 c 0
181 112 m 0
 181 112 l 0
 181 112 l 0
 181 112 l 0
 181 112 l 0
459 80 m 0
 475 80 487 68 487 52 c 0
 487 37 475 25 459 25 c 0
 444 25 432 37 432 52 c 0
 432 68 444 80 459 80 c 0
459 52 m 0
 459 52 l 0
 459 52 l 0
 459 52 l 0
 459 52 l 0
520 148 m 0
 536 148 547 137 547 121 c 0
 547 105 536 94 520 94 c 0
 504 94 493 105 493 121 c 0
 493 137 504 148 520 148 c 0
520 121 m 0
 520 121 l 0
 520 121 l 0
 520 121 l 0
 520 121 l 0
520 344 m 0
 536 344 547 331 547 316 c 0
 547 301 536 288 520 288 c 0
 504 288 493 301 493 316 c 0
 493 331 504 344 520 344 c 0
520 316 m 0
 520 316 l 0
 520 316 l 0
 520 316 l 0
 520 316 l 0
450 410 m 0
 466 410 478 398 478 382 c 0
 478 367 466 355 450 355 c 0
 435 355 423 367 423 382 c 0
 423 398 435 410 450 410 c 0
450 382 m 0
 450 382 l 0
 450 382 l 0
 450 382 l 0
 450 382 l 0
546 244 m 0
 562 244 574 233 574 217 c 0
 574 201 562 189 546 189 c 0
 531 189 519 201 519 217 c 0
 519 233 531 244 546 244 c 0
546 217 m 0
 546 217 l 0
 546 217 l 0
 546 217 l 0
 546 217 l 0
154 250 m 0
 170 250 182 237 182 221 c 0
 182 207 170 194 154 194 c 0
 139 194 127 207 127 221 c 0
 127 237 139 250 154 250 c 0
154 221 m 0
 154 221 l 0
 154 221 l 0
 154 221 l 0
 154 221 l 0
364 45 m 0
 380 45 392 33 392 17 c 0
 392 1 380 -10 364 -10 c 0
 349 -10 337 1 337 17 c 0
 337 33 349 45 364 45 c 0
364 17 m 0
 364 17 l 0
 364 17 l 0
 364 17 l 0
 364 17 l 0
363 441 m 0
 379 441 391 428 391 414 c 0
 391 398 379 385 363 385 c 0
 348 385 336 398 336 414 c 0
 336 428 348 441 363 441 c 0
363 414 m 0
 363 414 l 0
 363 414 l 0
 363 414 l 0
 363 414 l 0
EndSplineSet
EndChar
StartChar: uni0E3F
Encoding: 223 3647 189
Width: 463
Flags: HW
HStem: 0 80<149 262 262 264> 201 80<149 259 259 264> 389 80<149 149 149 261 261 263>
VStem: 53 96<80 201 281 389> 209 45<-40 514 514 514>
Fore
53 0 m 1
 53 469 l 1
 261 469 l 2
 278 469 298 466 321 460 c 0
 342 454 360 445 373 433 c 1
 386 423 397 411 402 401 c 0
 405 397 407 388 410 375 c 0
 414 362 415 351 416 346 c 0
 416 329 412 313 405 296 c 0
 398 279 386 263 371 250 c 1
 385 240 398 225 408 208 c 0
 418 190 425 171 427 151 c 1
 427 124 424 102 416 82 c 0
 408 63 396 46 379 32 c 0
 353 10 315 0 264 0 c 2
 53 0 l 1
209 514 m 1
 254 520 l 1
 254 -40 l 1
 209 -40 l 1
 209 514 l 1
149 201 m 1
 149 80 l 1
 262 80 l 2
 281 80 298 84 313 92 c 0
 328 99 336 118 334 146 c 0
 334 168 328 183 315 190 c 0
 303 198 286 201 264 201 c 2
 149 201 l 1
149 389 m 1
 149 281 l 1
 259 281 l 2
 279 281 295 286 306 296 c 0
 318 306 323 319 323 334 c 0
 322 371 302 389 263 389 c 2
 149 389 l 1
EndSplineSet
EndChar
StartChar: uni0E40
Encoding: 224 3648 190
Width: 212
Flags: HW
HStem: -5 23
VStem: 54 66<148 384>
Fore
130 -5 m 0
 106 -5 87 3 73 18 c 0
 61 33 54 51 54 73 c 2
 54 384 l 1
 120 384 l 1
 120 148 l 1
 130 148 l 2
 155 148 174 139 186 127 c 0
 199 113 205 95 206 73 c 0
 206 52 200 33 186 18 c 0
 173 2 154 -5 130 -5 c 0
131 42 m 0
 140 42 147 44 153 50 c 0
 158 55 160 63 160 71 c 0
 160 79 158 87 154 93 c 0
 148 98 141 101 131 101 c 0
 122 101 114 97 108 92 c 0
 103 86 101 79 101 71 c 0
 101 63 104 56 110 51 c 0
 115 45 122 42 131 42 c 0
EndSplineSet
EndChar
StartChar: uni0E41
Encoding: 225 3649 191
Width: 393
Flags: HW
HStem: -5 23
VStem: 54 66<148 384> 236 66<148 384>
Fore
130 -5 m 0
 106 -5 87 3 73 18 c 0
 61 33 54 51 54 73 c 2
 54 384 l 1
 120 384 l 1
 120 148 l 1
 130 148 l 2
 155 148 174 139 186 127 c 0
 199 113 205 95 206 73 c 0
 206 52 200 33 186 18 c 0
 173 2 154 -5 130 -5 c 0
312 -5 m 0
 288 -5 269 3 257 18 c 0
 243 33 236 51 236 73 c 2
 236 384 l 1
 302 384 l 1
 302 148 l 1
 312 148 l 2
 336 148 354 139 366 125 c 0
 379 112 386 95 388 73 c 0
 388 52 381 33 367 18 c 0
 354 3 336 -5 312 -5 c 0
131 42 m 0
 140 42 147 44 153 50 c 0
 158 55 160 63 160 71 c 0
 160 79 158 87 154 93 c 0
 148 98 141 101 131 101 c 0
 122 101 114 97 108 92 c 0
 103 86 101 79 101 71 c 0
 101 63 104 56 110 51 c 0
 115 45 122 42 131 42 c 0
312 42 m 0
 322 42 329 44 333 50 c 0
 339 55 341 63 341 71 c 0
 341 79 339 87 333 93 c 0
 329 98 322 101 312 101 c 0
 302 101 295 97 290 92 c 0
 285 86 282 79 282 71 c 0
 282 63 285 56 290 51 c 0
 296 45 303 42 312 42 c 0
EndSplineSet
EndChar
StartChar: uni0E42
Encoding: 226 3650 192
Width: 266
Flags: HW
HStem: -5 23
VStem: 99 66<148 519>
Fore
165 519 m 2
 165 148 l 1
 175 148 l 2
 200 148 219 139 232 125 c 0
 244 112 250 95 251 73 c 0
 251 52 244 33 232 18 c 0
 218 3 199 -5 175 -5 c 0
 151 -5 132 3 119 18 c 0
 106 33 99 51 99 73 c 2
 99 521 l 2
 99 537 98 548 97 555 c 0
 95 562 90 567 85 573 c 0
 78 579 68 584 53 591 c 0
 38 598 11 609 -26 625 c 1
 -23 631 -15 638 -3 649 c 0
 7 659 21 670 41 681 c 0
 60 692 79 697 101 697 c 0
 114 697 124 696 131 694 c 0
 138 690 149 686 166 679 c 0
 183 671 195 668 205 668 c 0
 217 668 229 673 244 684 c 1
 267 634 l 1
 246 619 226 611 206 611 c 0
 191 611 173 616 153 625 c 0
 132 634 120 638 114 640 c 0
 106 641 102 642 98 642 c 0
 93 642 88 641 85 640 c 0
 81 637 80 636 79 635 c 1
 106 622 125 611 136 605 c 0
 146 597 153 588 158 575 c 0
 163 563 165 544 165 519 c 2
175 44 m 0
 184 44 191 46 195 52 c 0
 200 58 202 63 202 71 c 0
 202 79 200 85 195 90 c 0
 191 96 184 98 175 98 c 0
 167 98 160 96 156 90 c 0
 150 85 148 79 148 71 c 0
 148 63 150 58 156 52 c 0
 160 46 167 44 175 44 c 0
EndSplineSet
EndChar
StartChar: uni0E43
Encoding: 227 3651 193
Width: 266
Flags: HW
HStem: -5 23 514 186
VStem: 99 67<147 598>
Fore
166 598 m 2
 166 147 l 1
 176 147 l 2
 200 147 219 138 232 125 c 0
 244 112 251 95 252 73 c 0
 252 52 245 33 233 18 c 0
 219 3 200 -5 176 -5 c 0
 151 -5 132 3 119 18 c 0
 106 33 99 52 99 73 c 2
 99 599 l 2
 99 616 98 629 95 637 c 0
 92 645 84 650 70 650 c 0
 59 650 51 649 47 645 c 0
 43 642 40 638 38 636 c 1
 55 636 68 631 77 618 c 0
 86 606 90 590 90 568 c 1
 87 532 69 514 36 514 c 0
 21 514 9 518 -2 524 c 0
 -15 531 -23 540 -26 553 c 0
 -29 566 -32 579 -32 590 c 0
 -32 620 -21 646 -2 668 c 0
 17 689 41 701 71 701 c 0
 102 701 125 692 141 672 c 0
 158 653 166 628 166 598 c 2
176 44 m 0
 184 44 191 46 197 52 c 0
 201 58 203 63 203 71 c 0
 203 79 201 85 197 90 c 0
 191 96 184 98 176 98 c 0
 168 98 162 96 157 90 c 0
 151 85 149 79 149 71 c 0
 149 63 151 58 157 52 c 0
 162 46 168 44 176 44 c 0
29 596 m 0
 25 596 21 593 18 590 c 0
 15 586 14 582 14 577 c 0
 14 573 15 568 18 565 c 0
 21 562 25 559 29 559 c 0
 41 559 46 565 46 577 c 0
 46 590 41 596 29 596 c 0
EndSplineSet
EndChar
StartChar: uni0E44
Encoding: 228 3652 194
Width: 303
Flags: HW
HStem: -5 23
VStem: 138 66<148 597 597 597>
Fore
138 597 m 1
 106 492 l 2
 101 472 89 462 71 462 c 0
 61 462 53 466 47 471 c 0
 42 478 36 488 33 502 c 2
 -3 635 l 2
 -7 649 -14 658 -26 663 c 1
 11 701 l 1
 28 694 38 681 44 662 c 1
 72 559 l 1
 105 669 l 1
 111 689 128 699 153 699 c 0
 167 699 179 695 189 687 c 0
 199 679 203 667 203 651 c 2
 203 148 l 1
 212 148 l 2
 237 148 257 139 269 127 c 0
 281 113 288 95 289 73 c 0
 289 52 282 33 269 18 c 0
 255 3 236 -5 212 -5 c 0
 189 -5 170 3 157 18 c 0
 145 33 138 51 138 73 c 2
 138 597 l 1
214 44 m 0
 223 44 229 46 234 52 c 0
 238 58 241 63 241 71 c 0
 241 79 238 85 234 90 c 0
 229 96 223 98 214 98 c 0
 205 98 198 96 193 90 c 0
 189 85 186 79 186 71 c 0
 186 63 189 58 193 52 c 0
 198 46 205 44 214 44 c 0
EndSplineSet
EndChar
StartChar: uni0E45
Encoding: 229 3653 195
Width: 334
Flags: HW
HStem: 344 52<126 148>
VStem: 215 66<-200 279>
Fore
7 292 m 1
 14 316 28 340 50 363 c 0
 71 384 104 396 148 396 c 0
 195 394 229 384 250 365 c 0
 270 346 280 316 280 279 c 2
 280 -200 l 1
 215 -200 l 1
 215 280 l 2
 215 322 190 344 141 344 c 0
 102 344 76 321 63 276 c 1
 7 292 l 1
EndSplineSet
EndChar
StartChar: uni0E46
Encoding: 230 3654 196
Width: 445
Flags: HW
VStem: 325 66<-17 271 271 278>
Fore
202 334 m 1
 190 329 182 320 177 308 c 0
 172 298 170 289 168 284 c 1
 171 285 175 287 182 290 c 0
 188 293 197 294 207 294 c 0
 228 294 245 288 258 276 c 0
 269 263 275 246 275 227 c 0
 275 208 269 191 258 177 c 0
 245 164 228 157 207 157 c 0
 179 158 156 168 138 188 c 0
 120 207 110 232 108 264 c 0
 108 295 118 323 137 348 c 0
 155 372 177 386 205 392 c 1
 214 388 225 382 237 376 c 0
 250 370 257 365 257 364 c 1
 301 392 l 1
 333 386 356 373 371 354 c 0
 384 334 391 308 391 278 c 2
 391 -21 l 2
 391 -58 379 -86 354 -106 c 0
 328 -127 296 -140 258 -147 c 1
 241 -89 l 1
 244 -88 255 -84 275 -78 c 0
 293 -72 306 -66 314 -56 c 0
 322 -49 325 -35 325 -17 c 2
 325 271 l 2
 325 289 324 303 321 311 c 0
 318 320 311 328 301 334 c 1
 257 306 l 1
 257 306 l 1
 257 306 250 310 236 316 c 0
 223 324 211 330 202 334 c 1
207 205 m 0
 212 205 218 207 221 211 c 0
 225 215 227 219 227 225 c 0
 227 231 226 236 223 240 c 0
 219 243 214 245 207 245 c 0
 200 245 194 243 191 240 c 0
 188 236 186 231 186 225 c 0
 186 219 189 215 192 211 c 0
 195 207 201 205 207 205 c 0
EndSplineSet
EndChar
StartChar: uni0E47
Encoding: 231 3655 197
Width: 0
Flags: HW
VStem: -334 294
Fore
-115 452 m 0
 -127 452 -137 455 -146 461 c 0
 -156 467 -166 473 -177 483 c 0
 -190 493 -199 499 -206 504 c 0
 -212 507 -220 510 -229 510 c 0
 -237 510 -244 503 -250 490 c 0
 -255 477 -258 463 -258 450 c 1
 -273 450 l 1
 -290 458 -304 472 -316 494 c 0
 -329 513 -334 533 -334 554 c 0
 -334 566 -332 576 -329 584 c 0
 -321 603 -308 617 -293 625 c 0
 -278 633 -257 636 -229 636 c 0
 -224 636 -219 636 -216 636 c 0
 -212 636 -209 636 -206 635 c 0
 -185 633 -167 632 -151 632 c 0
 -132 632 -118 635 -110 642 c 0
 -101 650 -96 663 -96 684 c 1
 -41 684 l 1
 -41 647 -50 623 -68 607 c 0
 -85 592 -115 583 -158 583 c 0
 -179 583 -194 584 -207 585 c 0
 -233 585 -251 582 -261 576 c 0
 -271 570 -276 556 -276 537 c 1
 -275 541 -270 547 -262 554 c 0
 -254 559 -242 563 -224 563 c 0
 -209 563 -197 560 -189 555 c 0
 -180 549 -174 544 -171 540 c 1
 -163 563 -145 574 -115 574 c 0
 -96 574 -80 568 -70 557 c 0
 -60 547 -54 532 -54 514 c 0
 -54 497 -60 483 -71 470 c 0
 -82 458 -97 452 -115 452 c 0
-115 495 m 0
 -103 495 -97 502 -97 514 c 0
 -97 520 -98 524 -102 528 c 0
 -105 531 -110 532 -115 532 c 0
 -121 532 -127 530 -130 527 c 0
 -133 523 -134 519 -134 514 c 0
 -134 502 -128 495 -115 495 c 0
EndSplineSet
EndChar
StartChar: uni0E48
Encoding: 232 3656 198
Width: 0
Flags: HW
HStem: 699 132<-113 -54>
VStem: -113 59<699 832>
Fore
-113 699 m 1
 -113 832 l 1
 -54 832 l 1
 -54 699 l 1
 -113 699 l 1
EndSplineSet
EndChar
StartChar: uni0E49
Encoding: 233 3657 199
Width: 0
Flags: HW
VStem: -208 234
Fore
-88 770 m 0
 -89 750 -92 738 -95 730 c 0
 -98 722 -102 716 -105 715 c 1
 -103 715 -97 716 -89 719 c 0
 -81 721 -73 724 -64 730 c 0
 -56 736 -50 742 -44 750 c 0
 -36 763 -32 774 -31 784 c 0
 -29 794 -28 809 -28 828 c 1
 26 828 l 1
 26 758 3 711 -43 689 c 0
 -71 676 -102 670 -132 670 c 0
 -142 670 -153 671 -160 672 c 0
 -168 673 -173 673 -176 675 c 1
 -176 694 l 1
 -173 695 -168 698 -164 702 c 0
 -159 705 -156 710 -155 715 c 1
 -156 715 -163 716 -173 720 c 0
 -183 723 -191 729 -198 739 c 0
 -205 749 -208 760 -208 775 c 0
 -208 791 -202 805 -191 816 c 0
 -181 827 -166 833 -149 833 c 0
 -130 833 -114 826 -104 814 c 0
 -94 800 -88 785 -88 770 c 0
-150 755 m 0
 -145 755 -139 757 -136 760 c 0
 -132 764 -131 768 -131 774 c 0
 -131 780 -133 784 -137 788 c 0
 -140 791 -145 793 -150 793 c 0
 -163 793 -170 786 -170 774 c 0
 -170 770 -167 765 -164 760 c 0
 -160 757 -156 755 -150 755 c 0
EndSplineSet
EndChar
StartChar: uni0E4A
Encoding: 234 3658 200
Width: 0
Flags: HW
VStem: -289 278
Fore
-225 667 m 0
 -244 667 -259 675 -271 692 c 0
 -284 709 -290 728 -289 749 c 0
 -289 770 -281 786 -271 800 c 0
 -260 814 -244 820 -225 820 c 0
 -212 820 -202 818 -195 814 c 0
 -189 808 -184 805 -182 801 c 1
 -180 805 -174 808 -166 814 c 0
 -159 818 -150 820 -140 820 c 0
 -121 820 -107 815 -97 803 c 0
 -87 791 -82 775 -82 756 c 0
 -82 742 -84 733 -86 729 c 0
 -88 723 -92 716 -96 707 c 1
 -93 709 -89 712 -84 716 c 0
 -78 720 -72 725 -69 733 c 0
 -61 750 -56 766 -55 781 c 0
 -55 789 -56 798 -59 807 c 1
 -16 823 l 1
 -12 812 -11 802 -11 792 c 0
 -11 762 -20 734 -35 713 c 0
 -46 697 -59 687 -78 683 c 0
 -97 677 -121 673 -147 673 c 1
 -147 677 -147 680 -147 683 c 0
 -147 685 -147 687 -148 690 c 1
 -145 694 -140 699 -134 707 c 0
 -129 716 -125 728 -125 741 c 0
 -125 753 -127 762 -129 768 c 0
 -132 775 -139 779 -149 779 c 0
 -157 779 -163 777 -166 774 c 0
 -171 771 -174 767 -176 765 c 1
 -176 765 l 1
 -176 766 -180 768 -188 773 c 0
 -195 779 -205 781 -215 781 c 0
 -232 781 -241 773 -242 758 c 1
 -241 759 -238 759 -235 760 c 0
 -232 762 -227 762 -219 762 c 0
 -206 760 -195 756 -188 747 c 0
 -180 737 -176 725 -176 711 c 0
 -176 699 -181 689 -190 680 c 0
 -200 671 -212 667 -225 667 c 0
-226 729 m 0
 -236 729 -242 724 -242 714 c 0
 -242 704 -236 699 -226 699 c 0
 -216 699 -211 704 -211 714 c 0
 -211 724 -216 729 -226 729 c 0
EndSplineSet
EndChar
StartChar: uni0E4B
Encoding: 235 3659 201
Width: 0
Flags: HW
HStem: 728 52<-167 -111 -54 2>
VStem: -111 56<679 728 780 829>
Fore
-111 728 m 1
 -167 728 l 1
 -167 780 l 1
 -111 780 l 1
 -111 829 l 1
 -54 829 l 1
 -54 780 l 1
 2 780 l 1
 2 728 l 1
 -54 728 l 1
 -54 679 l 1
 -111 679 l 1
 -111 728 l 1
EndSplineSet
EndChar
StartChar: uni0E4C
Encoding: 236 3660 202
Width: 0
Flags: HW
VStem: -241 211
Fore
-84 759 m 0
 -112 755 -131 755 -142 754 c 0
 -155 753 -163 753 -166 753 c 0
 -149 753 -137 748 -127 738 c 0
 -118 728 -112 715 -112 701 c 0
 -111 684 -116 670 -127 659 c 0
 -137 646 -150 640 -167 640 c 0
 -190 638 -208 646 -220 659 c 0
 -234 671 -241 687 -241 709 c 0
 -241 746 -226 772 -197 785 c 0
 -183 791 -165 796 -141 797 c 0
 -118 798 -102 801 -92 805 c 0
 -81 808 -77 818 -77 834 c 1
 -29 834 l 1
 -29 815 -34 798 -43 785 c 0
 -51 772 -64 762 -84 759 c 0
-171 715 m 0
 -183 715 -190 710 -190 697 c 0
 -190 685 -183 678 -171 678 c 0
 -165 678 -160 680 -157 684 c 0
 -154 687 -153 692 -153 697 c 0
 -153 703 -154 706 -157 710 c 0
 -160 713 -165 715 -171 715 c 0
EndSplineSet
EndChar
StartChar: uni0E4D
Encoding: 237 3661 203
Width: 0
Flags: HW
HStem: 454 153<-144 -120>
VStem: -209 153<521 541>
Fore
-132 607 m 0
 -108 607 -89 599 -76 584 c 0
 -63 570 -56 551 -56 531 c 0
 -56 511 -63 493 -77 477 c 0
 -90 462 -108 454 -132 454 c 0
 -156 454 -175 462 -189 477 c 0
 -202 493 -209 511 -209 531 c 0
 -209 551 -202 570 -189 584 c 0
 -175 599 -156 607 -132 607 c 0
-132 501 m 0
 -123 501 -116 504 -111 510 c 0
 -105 515 -103 523 -103 531 c 0
 -103 539 -105 546 -111 551 c 0
 -116 557 -123 560 -132 560 c 0
 -141 560 -148 558 -154 553 c 0
 -159 547 -162 539 -162 531 c 0
 -162 523 -159 515 -154 510 c 0
 -148 504 -141 501 -132 501 c 0
EndSplineSet
EndChar
StartChar: uni0E4E
Encoding: 238 3662 204
Width: 0
VWidth: 2048
Flags: HW
HStem: 507 45<-206 -190> 621 62<-189 -179> 692 56<-87 -69>
VStem: -284 69<577 588> -159 51<651 679>
Fore
-9 659 m 1
 -17 661 l 2
 -21 663 -25 666 -27 669 c 0
 -33 676 -38 681 -43 685 c 0
 -50 689 -59 692 -69 692 c 0
 -79 692 -88 688 -95 683 c 0
 -104 676 -108 664 -108 651 c 0
 -108 643 -105 634 -99 624 c 0
 -96 622 -95 616 -95 608 c 0
 -95 603 -98 599 -104 594 c 0
 -108 590 -113 589 -118 589 c 0
 -125 589 -133 593 -138 602 c 0
 -144 611 -149 616 -156 618 c 0
 -160 620 -168 622 -179 622 c 0
 -189 622 -197 618 -205 612 c 0
 -212 606 -216 596 -216 584 c 0
 -216 574 -212 567 -208 562 c 0
 -202 555 -197 551 -190 551 c 0
 -181 551 -174 554 -168 557 c 1
 -157 570 l 1
 -138 562 l 1
 -142 533 l 1
 -158 516 -180 507 -206 507 c 0
 -229 507 -249 515 -263 531 c 0
 -278 546 -284 565 -284 588 c 1
 -282 609 l 1
 -282 610 l 1
 -281 617 -278 625 -273 633 c 0
 -264 649 -252 660 -237 670 c 0
 -223 679 -207 684 -189 684 c 0
 -180 684 -170 683 -159 679 c 1
 -159 698 -153 714 -139 728 c 0
 -124 741 -106 748 -87 748 c 0
 -70 748 -54 745 -41 739 c 0
 -26 732 -15 723 -5 709 c 0
 -2 706 0 701 3 692 c 0
 7 686 8 680 8 676 c 0
 8 664 2 659 -9 659 c 1
EndSplineSet
EndChar
StartChar: uni0E4F
Encoding: 239 3663 205
Width: 407
VWidth: 2048
Flags: HW
HStem: 0 49<192 207> 95 51<188 198> 293 46<188 198> 385 49<192 207>
VStem: -24 47<217 231> 71 47<211 221> 263 50<211 221> 362 47<217 231>
Fore
191 293 m 4
 151 293 119 259 119 219 c 0
 119 179 151 146 191 146 c 0
 232 146 263 179 263 219 c 4
 263 259 232 293 191 293 c 4
192 0 m 0
 125 0 72 21 34 64 c 0
 -5 108 -24 159 -24 217 c 0
 -24 277 -5 328 33 371 c 0
 70 412 123 434 192 434 c 0
 237 434 278 424 311 403 c 1
 345 382 368 355 384 323 c 0
 400 290 409 255 409 217 c 0
 409 179 400 142 384 111 c 0
 368 79 345 52 311 31 c 1
 278 10 237 0 192 0 c 0
192 385 m 0
 139 385 97 368 69 336 c 0
 38 302 24 261 24 217 c 0
 24 188 29 160 43 134 c 0
 55 108 75 88 101 72 c 1
 124 56 156 49 192 49 c 0
 228 49 260 56 285 72 c 0
 312 89 331 111 345 136 c 0
 356 159 362 188 362 217 c 0
 362 262 347 302 318 336 c 0
 288 368 246 385 192 385 c 0
192 95 m 0
 167 95 145 101 125 112 c 0
 106 124 94 140 85 158 c 0
 76 177 71 197 71 217 c 0
 71 236 76 257 85 276 c 0
 93 294 106 308 125 321 c 0
 146 332 167 338 192 338 c 0
 217 338 238 332 259 321 c 0
 278 308 290 294 299 276 c 0
 308 257 313 236 313 217 c 0
 313 184 303 156 282 131 c 0
 260 107 229 95 192 95 c 0
EndSplineSet
EndChar
StartChar: uni0E50
Encoding: 240 3664 206
Width: 395
Flags: HW
HStem: -5 58<185 215> 219 59<185 215>
VStem: 38 324<125 149>
Fore
200 -5 m 0
 149 -5 110 10 81 38 c 0
 53 67 38 99 38 137 c 0
 38 160 44 184 56 206 c 0
 69 227 87 245 112 259 c 0
 137 271 166 278 200 278 c 0
 234 278 263 271 288 259 c 0
 313 245 332 227 345 206 c 0
 357 184 363 160 363 137 c 0
 363 113 356 89 344 68 c 0
 331 46 313 29 288 16 c 0
 264 3 235 -5 200 -5 c 0
200 219 m 0
 171 219 148 211 131 194 c 0
 114 177 106 158 106 137 c 0
 106 114 114 95 131 78 c 0
 147 61 170 53 200 53 c 0
 229 53 253 61 270 78 c 0
 287 95 295 114 295 136 c 0
 295 158 287 177 270 194 c 0
 253 211 229 219 200 219 c 0
EndSplineSet
EndChar
StartChar: uni0E51
Encoding: 241 3665 207
Width: 405
Flags: HW
HStem: 227 61<185 199>
VStem: 41 62<129 139>
Fore
103 139 m 0
 103 119 108 103 119 90 c 0
 130 78 140 71 150 71 c 1
 146 72 140 77 134 85 c 0
 129 93 125 105 124 124 c 0
 124 144 131 162 146 176 c 0
 160 191 177 199 199 199 c 0
 225 200 245 191 258 176 c 0
 270 162 276 144 276 120 c 0
 276 89 266 63 246 43 c 0
 227 21 199 11 163 11 c 1
 125 15 96 27 73 50 c 0
 51 72 41 103 41 141 c 0
 41 168 47 193 62 216 c 0
 77 238 96 257 121 269 c 0
 145 281 171 288 199 288 c 0
 254 287 297 272 327 244 c 0
 356 215 372 175 372 124 c 0
 373 60 342 6 284 -38 c 1
 243 2 l 1
 262 17 277 35 289 56 c 0
 302 78 307 101 307 124 c 0
 307 145 303 163 295 177 c 0
 287 193 275 205 258 214 c 0
 242 221 223 227 199 227 c 0
 171 227 148 219 131 202 c 0
 113 185 104 165 103 139 c 0
199 147 m 0
 193 147 188 145 184 140 c 0
 180 136 177 131 177 125 c 0
 177 120 180 115 184 110 c 0
 188 105 192 103 199 103 c 0
 207 103 212 105 216 110 c 0
 219 114 221 120 221 125 c 0
 221 131 219 137 215 141 c 0
 211 145 206 147 199 147 c 0
EndSplineSet
EndChar
StartChar: uni0E52
Encoding: 242 3666 208
Width: 482
Flags: HW
HStem: 0 59<181 182 182 328 328 337> 73 214<216 221>
VStem: 54 66<121 134 134 311 311 318> 374 67<106 189 189 196>
Fore
288 189 m 1
 271 217 253 231 234 231 c 0
 227 231 221 229 217 227 c 0
 214 224 210 221 208 220 c 1
 224 220 237 217 250 210 c 0
 261 203 270 194 277 182 c 0
 282 171 286 158 286 144 c 0
 285 122 277 105 264 93 c 0
 252 80 233 73 209 73 c 0
 186 73 167 81 153 98 c 0
 137 115 129 136 129 160 c 0
 129 197 139 227 158 251 c 0
 177 275 202 287 231 287 c 0
 250 287 266 282 276 275 c 0
 286 267 292 260 295 254 c 1
 298 260 305 267 315 275 c 0
 325 282 341 287 363 287 c 0
 392 287 412 278 424 260 c 0
 435 243 441 224 441 202 c 2
 441 89 l 2
 441 59 433 37 418 23 c 0
 403 8 376 0 339 0 c 2
 182 0 l 2
 134 0 102 9 82 28 c 0
 63 47 54 78 54 120 c 2
 54 311 l 2
 54 325 52 338 49 347 c 0
 45 356 38 365 26 373 c 1
 76 414 l 1
 88 407 99 397 107 383 c 0
 115 368 120 353 120 334 c 2
 120 134 l 2
 120 107 123 88 130 76 c 0
 138 64 155 59 181 59 c 2
 328 59 l 2
 347 59 360 62 366 69 c 0
 372 76 374 88 374 106 c 2
 374 189 l 2
 374 203 373 214 370 219 c 0
 366 225 358 228 348 228 c 0
 338 228 331 226 325 221 c 0
 320 216 316 210 314 202 c 0
 312 194 311 191 310 190 c 2
 288 189 l 1
212 173 m 0
 205 173 198 171 193 165 c 0
 190 160 188 155 188 148 c 0
 188 141 190 136 194 130 c 0
 198 124 205 122 212 122 c 0
 229 123 238 131 238 147 c 0
 238 154 236 159 232 165 c 0
 227 171 220 173 212 173 c 0
EndSplineSet
EndChar
StartChar: uni0E53
Encoding: 243 3667 209
Width: 468
Flags: HW
HStem: -2 23 231 56<146 171>
VStem: 42 68<151 163> 218 66<0 163> 365 64
Fore
164 231 m 0
 128 231 110 202 110 146 c 0
 110 147 112 147 115 148 c 0
 118 149 123 150 133 150 c 0
 157 150 176 142 189 127 c 0
 202 111 210 92 209 69 c 0
 209 47 201 31 186 18 c 0
 172 5 153 -2 129 -2 c 0
 71 -2 41 49 42 151 c 0
 42 174 47 195 56 217 c 0
 67 238 80 255 97 268 c 0
 114 280 133 287 157 287 c 0
 185 287 207 281 221 270 c 0
 236 260 245 251 249 243 c 1
 249 245 251 250 257 258 c 0
 261 264 269 271 280 278 c 0
 290 284 305 287 323 287 c 0
 363 287 390 272 406 242 c 0
 421 211 431 174 429 130 c 0
 428 72 418 28 401 0 c 1
 333 0 l 1
 341 10 349 29 355 58 c 0
 362 86 365 113 365 141 c 0
 365 167 362 188 355 203 c 0
 348 219 338 227 323 227 c 0
 307 227 297 221 292 211 c 0
 286 201 284 184 284 163 c 2
 284 0 l 1
 218 0 l 1
 218 165 l 2
 218 184 214 200 203 212 c 0
 193 225 181 231 164 231 c 0
133 98 m 0
 125 98 119 96 115 92 c 0
 111 86 108 80 108 73 c 0
 108 68 111 62 115 56 c 0
 119 51 125 49 133 49 c 0
 141 49 147 51 151 56 c 0
 156 62 158 68 158 73 c 0
 158 80 156 86 153 92 c 0
 148 96 141 98 133 98 c 0
EndSplineSet
EndChar
StartChar: uni0E54
Encoding: 244 3668 210
Width: 477
Flags: HW
HStem: -9 23
VStem: 37 441
Fore
105 138 m 0
 105 108 118 88 139 78 c 0
 160 68 185 63 215 63 c 1
 195 69 182 78 173 92 c 0
 165 104 160 120 160 139 c 0
 160 158 167 175 180 192 c 0
 192 208 210 216 235 216 c 0
 260 216 279 208 292 192 c 0
 305 175 312 158 312 141 c 0
 312 124 308 113 303 105 c 0
 297 97 292 93 288 90 c 1
 298 82 312 77 328 76 c 0
 342 75 359 72 377 70 c 0
 396 67 415 60 435 49 c 1
 410 -9 l 1
 402 -2 391 3 375 8 c 0
 359 11 342 14 324 14 c 0
 307 14 285 11 259 7 c 0
 233 2 208 0 184 0 c 0
 165 0 147 3 130 9 c 0
 113 15 97 24 82 36 c 0
 68 49 58 63 50 81 c 0
 42 98 37 120 37 144 c 0
 37 170 44 194 58 217 c 0
 71 238 92 257 118 270 c 0
 144 282 175 289 210 289 c 0
 217 289 228 288 245 287 c 0
 277 284 297 282 306 282 c 0
 332 284 353 288 367 297 c 0
 382 305 392 321 400 344 c 0
 408 366 412 398 415 440 c 1
 478 433 l 1
 478 418 477 401 475 382 c 0
 472 363 468 340 460 315 c 0
 452 290 440 271 425 258 c 0
 398 233 365 220 328 220 c 0
 316 220 302 221 284 224 c 0
 267 225 252 226 241 227 c 0
 235 228 228 228 218 228 c 0
 185 228 158 221 137 208 c 0
 115 193 104 171 105 138 c 0
236 115 m 0
 251 115 259 123 259 139 c 0
 259 145 257 150 253 155 c 0
 250 159 244 162 236 162 c 0
 228 162 223 159 219 155 c 0
 216 149 214 145 214 139 c 0
 214 133 216 128 219 122 c 0
 223 118 228 115 236 115 c 0
EndSplineSet
EndChar
StartChar: uni0E55
Encoding: 245 3669 211
Width: 491
Flags: HW
HStem: -9 23 220 62<324 340>
VStem: 40 441
Fore
314 282 m 1
 365 282 396 306 406 355 c 0
 411 382 415 410 417 440 c 1
 480 433 l 1
 480 427 479 417 478 401 c 0
 477 385 475 368 471 351 c 0
 468 334 463 318 455 301 c 0
 449 284 440 269 427 258 c 0
 400 233 367 220 330 220 c 0
 318 220 304 221 287 224 c 0
 270 225 257 226 244 227 c 0
 238 228 232 228 221 228 c 0
 188 228 160 221 140 208 c 0
 119 193 106 171 107 138 c 0
 107 108 120 89 141 79 c 0
 163 69 188 63 217 63 c 1
 198 69 184 78 175 92 c 0
 167 104 163 120 163 139 c 0
 163 158 170 175 182 192 c 0
 194 208 212 216 237 216 c 0
 262 216 281 208 294 192 c 0
 307 175 314 158 314 141 c 0
 314 124 311 113 305 105 c 0
 299 97 294 93 290 90 c 1
 301 82 314 77 330 76 c 0
 345 75 362 72 380 70 c 0
 398 67 417 60 437 49 c 1
 412 -9 l 1
 405 -3 393 2 377 7 c 0
 362 11 345 14 327 14 c 0
 310 14 287 11 261 7 c 0
 235 2 210 0 186 0 c 0
 167 0 149 3 132 9 c 0
 115 15 99 24 85 36 c 0
 70 49 60 63 52 81 c 0
 44 98 40 120 40 144 c 0
 40 194 55 229 88 250 c 0
 120 270 146 281 167 285 c 1
 165 294 164 302 164 310 c 0
 164 332 172 350 188 365 c 0
 202 380 220 386 242 386 c 0
 264 385 282 379 297 364 c 0
 312 349 319 331 319 310 c 0
 319 301 318 292 314 282 c 1
238 115 m 0
 253 115 261 123 261 139 c 0
 261 145 259 150 255 155 c 0
 252 159 246 162 238 162 c 0
 231 162 225 159 220 155 c 0
 217 149 215 145 215 139 c 0
 215 123 223 115 238 115 c 0
241 286 m 0
 249 286 254 288 259 293 c 0
 262 297 264 303 264 308 c 0
 264 315 262 321 259 325 c 1
 254 329 249 331 241 331 c 0
 234 331 228 329 224 324 c 0
 220 320 218 314 218 308 c 0
 218 303 220 298 224 293 c 0
 228 288 234 286 241 286 c 0
EndSplineSet
EndChar
StartChar: uni0E56
Encoding: 246 3670 212
Width: 351
Flags: HW
HStem: -5 23
VStem: 272 66<140 149>
Fore
206 62 m 1
 209 62 216 66 226 71 c 0
 237 78 247 88 258 101 c 0
 268 113 272 130 272 149 c 0
 271 179 263 201 247 216 c 0
 232 231 207 238 173 237 c 0
 154 237 137 232 124 224 c 0
 111 216 102 210 97 205 c 1
 72 205 l 1
 71 224 68 246 61 272 c 0
 54 298 46 324 36 350 c 0
 26 375 16 396 7 411 c 1
 63 438 l 1
 71 427 80 403 93 368 c 0
 105 332 114 304 120 282 c 1
 149 295 177 302 205 302 c 0
 233 302 257 296 277 281 c 0
 296 268 312 249 322 226 c 0
 332 202 338 177 338 150 c 0
 338 97 321 59 286 34 c 0
 251 8 212 -5 170 -5 c 0
 151 -5 134 0 118 8 c 0
 101 16 86 27 73 42 c 0
 62 56 56 75 56 94 c 0
 56 115 63 134 77 151 c 0
 90 168 111 177 137 176 c 0
 151 176 165 172 176 165 c 0
 189 159 198 150 203 140 c 0
 209 130 212 119 214 106 c 0
 214 92 212 80 211 75 c 0
 209 69 207 64 206 62 c 1
134 75 m 0
 142 75 148 77 153 82 c 0
 156 87 158 93 158 98 c 0
 158 114 150 122 134 122 c 0
 119 122 111 114 111 98 c 0
 111 93 113 87 118 82 c 0
 121 77 127 75 134 75 c 0
EndSplineSet
EndChar
StartChar: uni0E57
Encoding: 247 3671 213
Width: 485
Flags: HW
HStem: -12 23
VStem: 386 62<294 316>
Fore
347 70 m 1
 364 78 375 90 381 110 c 0
 386 129 390 153 390 182 c 0
 390 190 390 198 390 207 c 0
 389 215 389 231 388 253 c 0
 386 275 386 290 386 298 c 0
 386 358 398 400 420 425 c 1
 429 419 438 416 447 410 c 0
 457 406 466 400 475 394 c 1
 458 374 449 340 449 293 c 0
 449 285 450 275 450 264 c 0
 450 254 451 245 451 236 c 0
 451 227 451 219 452 214 c 0
 452 208 452 200 452 188 c 0
 452 157 449 130 443 106 c 0
 437 82 426 62 410 45 c 0
 397 31 379 19 356 9 c 0
 333 -1 315 -9 301 -12 c 1
 263 28 l 1
 273 36 281 47 288 62 c 0
 295 76 301 90 304 106 c 0
 307 121 310 137 310 153 c 0
 310 172 306 188 301 200 c 0
 295 212 285 218 271 218 c 0
 245 218 233 197 233 154 c 1
 181 154 l 1
 180 170 175 184 168 198 c 0
 163 211 153 218 140 218 c 0
 125 218 114 210 105 193 c 0
 96 176 92 160 92 145 c 0
 92 137 93 130 95 127 c 1
 96 129 99 132 105 136 c 0
 111 139 122 140 139 140 c 0
 162 140 180 133 192 119 c 0
 205 104 210 87 210 66 c 0
 210 44 203 27 191 14 c 0
 177 -1 159 -8 136 -8 c 0
 113 -8 94 0 77 15 c 0
 60 29 47 47 40 71 c 0
 32 94 27 118 27 144 c 0
 27 166 33 188 43 209 c 0
 53 228 68 245 86 258 c 0
 103 269 122 275 142 275 c 0
 164 275 180 270 189 262 c 0
 198 254 203 246 206 241 c 1
 209 246 216 254 226 263 c 0
 236 272 252 277 273 277 c 0
 296 277 315 271 330 259 c 0
 345 246 356 232 362 215 c 0
 368 198 372 179 372 158 c 0
 372 141 370 127 366 113 c 0
 362 99 357 88 354 80 c 0
 350 73 348 70 347 70 c 1
 347 70 l 1
137 43 m 0
 144 43 149 45 154 50 c 0
 157 54 159 60 159 66 c 0
 159 71 157 76 154 81 c 0
 149 86 144 88 137 88 c 0
 130 88 124 86 121 81 c 0
 118 77 115 71 115 66 c 0
 115 60 118 54 121 50 c 0
 124 45 130 43 137 43 c 0
EndSplineSet
EndChar
StartChar: uni0E58
Encoding: 248 3672 214
Width: 462
Flags: HW
HStem: 0 279<180 191>
VStem: 37 409
Fore
241 101 m 0
 269 64 295 46 318 46 c 0
 321 46 324 46 328 47 c 0
 330 49 331 50 332 51 c 1
 311 51 294 59 280 73 c 0
 266 88 258 106 259 129 c 0
 259 148 268 164 282 179 c 0
 297 192 314 199 333 199 c 0
 350 199 366 193 380 183 c 0
 393 173 403 158 411 141 c 0
 418 124 421 107 421 89 c 0
 421 61 412 37 393 19 c 0
 374 0 349 -9 321 -9 c 0
 298 -9 278 -5 261 3 c 0
 244 12 223 32 198 60 c 0
 188 72 181 78 176 78 c 0
 171 78 168 73 168 63 c 0
 168 55 171 44 175 32 c 0
 180 19 185 9 191 0 c 1
 112 0 l 1
 62 44 37 93 37 146 c 1
 43 190 61 223 90 245 c 0
 120 268 157 279 202 279 c 0
 210 279 221 278 236 277 c 0
 251 275 264 272 277 271 c 0
 288 270 298 269 306 268 c 0
 313 267 321 267 329 267 c 0
 362 267 380 278 383 302 c 0
 384 307 384 315 384 325 c 0
 384 338 383 349 381 362 c 0
 380 374 377 385 375 397 c 0
 373 408 372 416 371 419 c 1
 433 419 l 1
 436 414 438 398 442 372 c 0
 445 346 447 323 446 304 c 0
 445 269 434 244 417 229 c 0
 400 215 373 208 337 208 c 0
 318 208 289 210 250 216 c 0
 235 218 221 219 209 219 c 0
 181 219 158 215 141 206 c 0
 124 197 113 182 107 163 c 0
 104 150 103 140 103 132 c 0
 103 115 107 102 118 93 c 1
 118 101 120 110 125 122 c 0
 130 134 140 142 156 147 c 1
 175 147 191 142 206 133 c 0
 220 123 232 113 241 101 c 0
332 102 m 0
 340 102 346 104 349 108 c 0
 353 113 355 119 355 124 c 0
 355 131 353 137 349 141 c 0
 346 145 340 147 332 147 c 0
 325 147 320 145 316 141 c 0
 313 137 311 131 311 124 c 0
 311 119 313 113 316 108 c 0
 320 104 325 102 332 102 c 0
EndSplineSet
EndChar
StartChar: uni0E59
Encoding: 249 3673 215
Width: 419
Flags: HW
HStem: -7 23
VStem: 33 379
Fore
113 191 m 0
 101 176 95 158 95 139 c 0
 95 128 97 118 101 107 c 0
 104 97 107 92 108 92 c 1
 112 107 120 121 132 133 c 0
 145 146 162 151 183 151 c 0
 200 151 215 148 226 140 c 0
 236 132 245 123 251 112 c 0
 257 99 259 88 260 76 c 0
 260 51 251 31 234 16 c 0
 217 1 195 -7 170 -7 c 0
 144 -7 116 3 89 21 c 0
 62 40 45 63 37 94 c 0
 34 106 33 121 33 138 c 0
 33 170 41 197 55 220 c 0
 70 244 93 261 121 271 c 0
 136 277 151 280 168 280 c 0
 190 280 207 277 219 269 c 0
 232 261 241 255 245 250 c 1
 249 273 260 285 280 285 c 0
 297 285 311 280 323 271 c 0
 333 263 340 259 344 259 c 0
 350 259 354 272 354 299 c 0
 353 328 348 356 341 382 c 0
 333 408 329 420 328 420 c 2
 390 420 l 1
 393 412 398 400 402 383 c 0
 407 365 411 345 411 321 c 0
 412 280 408 250 402 231 c 0
 397 210 382 199 358 198 c 0
 349 198 338 202 325 210 c 0
 312 218 303 221 298 221 c 0
 295 220 294 217 294 212 c 0
 296 202 299 192 304 184 c 2
 392 25 l 1
 332 -5 l 1
 236 176 l 2
 229 190 220 200 208 207 c 0
 195 214 183 217 170 217 c 0
 146 217 127 208 113 191 c 0
183 51 m 0
 191 51 197 53 200 58 c 0
 203 62 206 68 206 75 c 0
 206 81 203 87 200 92 c 0
 197 95 191 97 183 97 c 0
 175 97 170 95 166 90 c 0
 163 86 160 80 160 75 c 0
 160 69 163 63 166 58 c 0
 170 53 175 51 183 51 c 0
EndSplineSet
EndChar
StartChar: uni0E5A
Encoding: 250 3674 216
Width: 461
VWidth: 2048
Flags: HW
HStem: -27 59<191 214> 284 54<110 112> 392 52<106 110> 431 11G<353 354>
VStem: 249 71<87 229> 362 72<69 360>
Fore
108 392 m 4
 95 392 88 385 82 364 c 5
 84 348 89 342 110 338 c 5
 118 338 124 341 129 345 c 5
 131 350 134 357 136 365 c 5
 133 384 129 390 108 392 c 4
308 423 m 5
 325 433 l 4
 332 437 341 441 353 442 c 4
 354 442 l 4
 382 442 406 433 420 412 c 4
 425 405 428 396 432 383 c 4
 432 382 432 382 432 382 c 4
 434 360 l 4
 434 359 434 359 434 359 c 4
 434 88 l 4
 435 35 408 -3 359 -21 c 4
 358 -21 358 -21 358 -21 c 4
 344 -27 l 4
 338 -27 333 -27 330 -23 c 4
 312 14 l 4
 310 23 304 26 312 31 c 4
 321 33 l 4
 327 34 330 36 333 38 c 4
 353 54 l 4
 357 59 360 66 362 69 c 5
 362 356 l 4
 362 364 359 367 359 368 c 4
 356 373 353 375 341 375 c 4
 330 375 323 368 320 364 c 5
 320 94 l 4
 320 62 311 34 293 10 c 4
 272 -15 245 -27 214 -27 c 4
 210 -27 208 -26 206 -23 c 4
 183 17 l 4
 181 28 181 26 191 31 c 4
 206 31 219 37 235 53 c 4
 243 61 249 73 249 95 c 4
 249 229 l 5
 249 229 249 220 223 208 c 4
 205 194 182 189 154 189 c 4
 108 189 71 206 47 238 c 4
 24 268 14 306 14 351 c 4
 14 353 14 353 14 353 c 4
 16 377 26 399 44 417 c 4
 62 435 85 444 110 444 c 4
 122 444 133 442 140 440 c 5
 168 431 189 414 189 367 c 4
 189 345 182 324 167 308 c 4
 153 293 133 284 111 284 c 4
 90 284 l 5
 89 290 l 5
 95 273 l 5
 99 267 104 262 107 260 c 5
 131 252 l 5
 151 250 l 5
 166 251 176 254 188 263 c 5
 205 282 l 5
 224 314 l 4
 229 325 234 339 236 354 c 5
 242 414 l 4
 242 415 242 415 242 415 c 4
 244 432 259 444 276 443 c 4
 284 443 292 442 298 436 c 4
 301 435 l 4
 307 425 l 4
 307 424 307 424 308 424 c 4
 308 423 l 5
EndSplineSet
EndChar
StartChar: uni0E5B
Encoding: 251 3675 217
Width: 818
VWidth: 2048
Flags: HW
HStem: 28 54<173 182> 169 47<677 810> 173 44<785 810> 251 36<146 149> 356 54<156 164>
VStem: 14 53<212 232> 93 42<221 232> 228 53<258 276>
Fore
195 184 m 1
 217 201 228 229 228 269 c 0
 228 327 205 356 156 356 c 0
 129 356 106 339 89 306 c 0
 73 279 67 250 67 220 c 0
 67 186 76 156 94 129 c 0
 114 98 140 82 173 82 c 0
 218 82 251 108 271 159 c 0
 282 186 294 224 306 271 c 2
 336 384 l 1
 365 384 l 1
 399 236 l 1
 421 367 l 1
 452 367 l 1
 481 231 l 1
 520 353 l 1
 558 240 l 1
 585 327 l 1
 616 255 640 218 655 218 c 2
 677 217 l 1
 810 217 l 1
 810 173 l 1
 662 170 l 1
 628 173 l 1
 620 175 612 181 605 191 c 1
 606 195 l 1
 598 200 l 1
 557 70 l 1
 522 190 l 1
 480 66 l 1
 441 188 l 1
 417 53 l 1
 386 53 l 1
 349 227 l 1
 330 160 312 116 296 93 c 0
 268 50 226 28 173 28 c 0
 122 28 82 49 53 89 c 0
 27 124 14 168 14 221 c 0
 14 269 25 311 49 347 c 0
 75 389 111 410 156 410 c 0
 195 410 227 396 250 367 c 0
 271 341 281 307 281 268 c 0
 281 231 273 200 258 174 c 0
 238 142 211 127 177 127 c 0
 154 127 132 138 114 160 c 1
 99 183 93 203 93 221 c 0
 93 238 97 254 106 266 c 0
 116 280 130 287 147 287 c 0
 165 287 180 280 190 268 c 0
 201 255 206 240 205 221 c 2
 203 202 l 2
 203 197 200 190 195 184 c 1
134 221 m 0
 134 199 141 188 153 188 c 0
 157 188 160 190 160 195 c 1
 163 221 l 1
 165 240 159 250 149 251 c 1
 140 251 134 241 134 221 c 0
EndSplineSet
EndChar
StartChar: uni0E38.low
Encoding: 252 63256 218
Width: 0
Flags: HW
VStem: -123 62<-454 -367 -367 -367>
Fore
-61 -454 m 1
 -123 -454 l 1
 -123 -367 l 1
 -128 -368 -137 -368 -149 -368 c 1
 -170 -365 -185 -357 -197 -342 c 0
 -208 -328 -214 -312 -214 -293 c 0
 -214 -272 -207 -254 -192 -240 c 0
 -179 -225 -159 -217 -136 -217 c 0
 -123 -217 -111 -219 -99 -225 c 0
 -89 -231 -80 -240 -72 -250 c 0
 -66 -261 -61 -273 -61 -287 c 2
 -61 -454 l 1
-137 -323 m 0
 -127 -323 -120 -320 -114 -314 c 0
 -108 -308 -106 -302 -106 -293 c 0
 -106 -285 -108 -277 -114 -271 c 0
 -120 -266 -127 -262 -137 -262 c 0
 -147 -262 -154 -266 -159 -271 c 0
 -165 -278 -167 -285 -167 -293 c 0
 -167 -301 -165 -308 -159 -314 c 0
 -154 -320 -147 -323 -137 -323 c 0
EndSplineSet
EndChar
StartChar: uni0E39.low
Encoding: 253 63257 219
Width: 0
Flags: HW
VStem: -123 62<-386 -221>
Fore
-221 -397 m 2
 -221 -367 l 1
 -226 -368 -234 -368 -245 -368 c 1
 -266 -365 -281 -357 -293 -342 c 0
 -304 -328 -310 -312 -310 -293 c 0
 -310 -272 -303 -254 -288 -240 c 0
 -275 -225 -255 -217 -232 -217 c 0
 -219 -217 -207 -219 -195 -225 c 0
 -185 -231 -176 -240 -168 -250 c 0
 -162 -261 -157 -273 -157 -287 c 2
 -157 -386 l 2
 -157 -399 -151 -406 -139 -406 c 0
 -129 -406 -123 -399 -123 -386 c 2
 -123 -221 l 1
 -61 -221 l 1
 -61 -397 l 2
 -61 -410 -66 -421 -73 -432 c 0
 -81 -442 -92 -449 -104 -453 c 0
 -116 -459 -129 -461 -141 -461 c 0
 -160 -461 -179 -455 -195 -444 c 0
 -212 -432 -221 -416 -221 -397 c 2
-233 -323 m 0
 -224 -323 -217 -320 -211 -314 c 0
 -206 -308 -203 -301 -203 -293 c 0
 -203 -285 -206 -277 -211 -271 c 0
 -217 -266 -224 -262 -233 -262 c 0
 -243 -262 -250 -266 -255 -271 c 0
 -261 -278 -263 -285 -263 -293 c 0
 -263 -301 -261 -308 -255 -314 c 0
 -250 -320 -243 -323 -233 -323 c 0
EndSplineSet
EndChar
StartChar: uni0E3A.low
Encoding: 254 63258 220
Width: 0
Flags: HW
VStem: -131 78<-254 -246>
Fore
-92 -209 m 0
 -84 -209 -77 -210 -71 -214 c 0
 -66 -217 -61 -223 -58 -229 c 0
 -54 -236 -53 -243 -53 -249 c 0
 -53 -259 -56 -268 -63 -276 c 0
 -70 -284 -79 -287 -92 -287 c 0
 -104 -287 -113 -284 -120 -276 c 0
 -128 -268 -131 -259 -131 -249 c 0
 -131 -238 -128 -228 -120 -220 c 0
 -113 -212 -104 -209 -92 -209 c 0
EndSplineSet
EndChar
StartChar: exclamdown
Encoding: 256 161 221
Width: 145
VWidth: 2048
Flags: HW
HStem: 330 80<16 124>
Fore
124 411 m 1
 124 330 l 1
 16 330 l 1
 16 411 l 1
 124 411 l 1
108 285 m 1
 133 14 l 1
 133 -98 l 1
 8 -98 l 1
 8 14 l 1
 31 285 l 1
 108 285 l 1
EndSplineSet
EndChar
StartChar: cent
Encoding: 257 162 222
Width: 348
VWidth: 2048
Flags: HW
HStem: 3 77<169 182> 338 70<155 166>
VStem: -21 80<181 217>
DStem: 122 38 261 15 37 -225 175 -247 298 610 449 590 158 173 310 149 428 991 564 970 346 736 483 713
Fore
247 325 m 1
 171 82 l 1
 179 80 l 1
 232 80 262 108 271 165 c 1
 350 147 l 1
 341 105 322 70 289 44 c 0
 258 17 217 3 170 3 c 0
 164 3 156 5 147 7 c 2
 144 8 l 1
 96 -137 l 1
 20 -124 l 1
 68 21 l 1
 23 42 -6 79 -16 131 c 0
 -19 151 -21 176 -21 205 c 0
 -21 263 -7 311 24 348 c 0
 56 388 105 408 166 408 c 1
 191 406 l 1
 236 547 l 1
 311 536 l 1
 267 393 l 1
 296 383 316 363 328 333 c 0
 331 325 334 314 337 303 c 1
 340 286 l 1
 266 271 l 1
 259 310 l 1
 259 311 l 1
 259 311 l 1
 259 312 l 1
 259 312 l 1
 257 318 253 322 247 325 c 1
165 337 m 1
 163 338 l 2
 94 339 59 296 59 209 c 0
 59 165 62 136 68 122 c 0
 71 111 78 102 87 95 c 1
 165 337 l 1
EndSplineSet
EndChar
StartChar: sterling
Encoding: 258 163 223
Width: 341
VWidth: 2048
Flags: HW
HStem: -5 59<244 250> 179 54<-8 54 113 205> 357 60<160 180>
VStem: 24 72<288 304> 58 70<144 154>
Fore
113 233 m 1
 205 233 l 1
 205 179 l 1
 122 179 l 1
 125 172 128 162 128 149 c 2
 128 115 l 1
 127 105 116 92 98 75 c 1
 120 80 l 1
 124 80 l 2
 131 80 141 78 154 71 c 0
 160 70 165 68 171 67 c 0
 208 59 233 54 245 54 c 0
 260 54 280 60 306 70 c 1
 321 12 l 1
 289 1 263 -5 244 -5 c 1
 217 -2 l 1
 176 7 l 1
 134 18 l 1
 104 19 l 1
 70 19 38 11 9 -6 c 1
 -16 45 l 1
 33 70 58 106 58 154 c 1
 54 179 l 1
 -8 179 l 1
 -8 233 l 1
 40 233 l 1
 29 263 24 286 24 301 c 0
 24 336 38 364 67 384 c 1
 93 406 127 417 167 417 c 0
 250 417 297 381 308 311 c 1
 244 289 l 1
 237 322 226 341 209 350 c 0
 199 354 186 357 170 357 c 0
 147 357 128 350 111 336 c 0
 102 329 96 316 96 299 c 0
 96 302 96 298 96 288 c 0
 96 279 99 268 105 253 c 0
 107 246 111 238 113 233 c 1
EndSplineSet
EndChar
StartChar: currency
Encoding: 259 164 224
Width: 374
VWidth: 2048
Flags: HW
HStem: 51 87<166 180> 242 92<162 180>
VStem: 25 95<181 194> 227 99<182 194>
Fore
50 259 m 1
 0 304 l 1
 53 356 l 1
 103 310 l 1
 125 323 145 331 162 332 c 2
 162 332 l 2
 164 332 165 332 167 333 c 2
 175 333 l 2
 197 333 217 328 237 315 c 2
 246 310 l 1
 296 356 l 1
 354 303 l 1
 306 258 l 1
 318 240 325 221 327 205 c 1
 327 203 l 1
 327 193 l 2
 327 166 323 148 319 137 c 1
 310 122 l 1
 358 76 l 1
 301 23 l 1
 250 70 l 1
 233 58 211 52 186 51 c 2
 175 51 l 2
 147 51 124 55 108 66 c 0
 105 67 103 69 99 70 c 1
 50 24 l 1
 -6 78 l 1
 44 123 l 1
 32 141 25 160 25 183 c 1
 25 184 l 1
 25 184 l 1
 25 185 l 1
 25 185 l 1
 25 193 l 2
 25 211 31 229 43 247 c 1
 50 259 l 1
120 190 m 0
 120 175 124 163 134 153 c 0
 145 142 158 138 173 138 c 0
 189 138 201 142 211 153 c 0
 221 163 227 175 227 190 c 0
 227 205 221 217 211 227 c 0
 200 236 188 242 173 242 c 0
 158 242 146 236 136 227 c 0
 125 217 120 205 120 190 c 0
EndSplineSet
EndChar
StartChar: yen
Encoding: 260 165 225
Width: 475
VWidth: 2048
Flags: HW
HStem: 0 11G<185 264> 97 69<0 185 264 446> 199 72<0 185 295 446>
VStem: 185 80<0 97 166 199>
DStem: -49 949 130 949 276 491 364 614
Fore
185 0 m 1
 185 97 l 1
 0 97 l 1
 0 166 l 1
 185 166 l 1
 185 199 l 1
 0 199 l 1
 0 271 l 1
 153 271 l 1
 -27 523 l 1
 71 523 l 1
 201 339 l 1
 224 296 l 1
 246 344 l 1
 368 523 l 1
 475 523 l 1
 295 271 l 1
 446 271 l 1
 446 199 l 1
 264 199 l 1
 264 166 l 1
 446 166 l 1
 446 97 l 1
 264 97 l 1
 264 0 l 1
 185 0 l 1
EndSplineSet
EndChar
StartChar: brokenbar
Encoding: 261 166 226
Width: 94
VWidth: 2048
Flags: HW
VStem: 6 79<-163 76 181 419>
Fore
85 419 m 1
 85 181 l 1
 6 181 l 1
 6 419 l 1
 85 419 l 1
85 76 m 1
 85 -163 l 1
 6 -163 l 1
 6 76 l 1
 85 76 l 1
EndSplineSet
EndChar
StartChar: section
Encoding: 262 167 227
Width: 445
VWidth: 2048
Flags: HW
HStem: -127 70<201 219> 521 11G<188 234>
VStem: -16 128<223 236> 304 101<-15 1> 321 114<167 175>
Fore
14 -5 m 1
 110 5 l 1
 124 -19 136 -34 144 -41 c 2
 145 -42 l 2
 156 -49 175 -54 201 -56 c 1
 228 -56 251 -52 271 -43 c 0
 293 -32 304 -18 304 1 c 0
 304 11 298 19 289 26 c 1
 289 26 l 1
 288 26 l 2
 282 32 269 40 246 50 c 1
 142 97 l 2
 94 120 59 139 37 154 c 0
 1 179 -16 207 -16 236 c 0
 -16 284 19 316 89 331 c 1
 49 358 28 386 28 415 c 0
 28 447 47 473 82 495 c 0
 115 513 141 524 160 529 c 0
 171 531 182 532 193 532 c 0
 276 532 333 510 368 466 c 0
 382 447 391 427 396 405 c 1
 304 394 l 1
 292 417 282 432 273 437 c 0
 262 446 245 451 223 453 c 0
 202 454 182 450 158 440 c 1
 144 433 137 419 136 399 c 0
 136 391 141 384 153 377 c 0
 132 389 142 383 186 360 c 2
 198 355 l 1
 272 311 l 1
 327 287 363 269 381 258 c 0
 417 233 435 206 435 175 c 0
 435 132 400 99 330 78 c 1
 379 52 403 20 403 -15 c 0
 403 -50 384 -78 345 -99 c 0
 311 -118 269 -127 219 -127 c 0
 101 -127 32 -86 14 -5 c 1
272 125 m 1
 305 138 321 151 321 168 c 0
 321 188 290 210 229 235 c 1
 202 247 180 259 162 269 c 1
 129 255 112 240 112 223 c 0
 112 205 140 183 195 159 c 0
 232 145 257 133 272 125 c 1
EndSplineSet
EndChar
StartChar: dieresis
Encoding: 263 168 228
Width: 292
VWidth: 2048
Flags: HW
HStem: 434 80<7 104 173 269>
Fore
7 434 m 1
 7 515 l 1
 104 515 l 1
 104 434 l 1
 7 434 l 1
173 434 m 1
 173 515 l 1
 269 515 l 1
 269 434 l 1
 173 434 l 1
EndSplineSet
EndChar
StartChar: copyright
Encoding: 264 169 229
Width: 439
VWidth: 2048
Flags: HW
HStem: 0 58<207 219> 95 52<201 212> 289 58<201 212> 386 58<207 219>
VStem: -19 62<211 229> 88 58<211 223> 371 64<211 229>
Fore
207 444 m 0
 271 444 324 423 368 379 c 1
 412 337 434 284 434 221 c 0
 434 160 412 108 367 64 c 1
 323 21 270 0 207 0 c 0
 144 0 90 20 46 63 c 0
 2 106 -19 159 -19 221 c 0
 -19 284 2 337 45 380 c 0
 89 423 142 444 207 444 c 0
207 386 m 0
 162 386 122 371 92 338 c 0
 59 306 43 267 43 220 c 0
 43 174 59 136 92 104 c 0
 122 72 162 58 207 58 c 0
 253 58 292 72 323 104 c 0
 354 136 371 174 371 220 c 0
 371 267 354 305 323 337 c 0
 290 371 252 386 207 386 c 0
260 191 m 1
 318 175 l 1
 302 121 264 95 207 95 c 0
 170 95 140 106 120 130 c 0
 98 154 88 184 88 221 c 0
 88 259 99 289 121 312 c 0
 142 336 172 347 211 347 c 0
 263 347 297 324 312 277 c 1
 258 255 l 1
 247 278 232 289 207 289 c 0
 188 289 172 282 160 268 c 0
 151 254 146 237 146 217 c 0
 146 171 165 147 205 147 c 0
 234 147 252 162 260 191 c 1
EndSplineSet
EndChar
StartChar: ordfeminine
Encoding: 265 170 230
Width: 205
VWidth: 2048
Flags: HW
HStem: 329 38<76 94> 480 43<95 103>
VStem: -3 59<382 391> 131 54<406 460>
Fore
134 346 m 1
 120 334 104 329 86 329 c 1
 86 329 l 1
 84 329 81 329 78 329 c 2
 70 329 l 2
 21 329 -3 347 -3 385 c 0
 -3 410 11 427 40 436 c 1
 70 442 l 1
 113 447 l 1
 141 453 l 1
 137 467 131 473 123 477 c 0
 119 479 110 480 95 480 c 0
 73 481 60 477 52 468 c 2
 51 468 l 1
 50 467 l 1
 45 460 l 1
 5 469 l 1
 12 505 43 523 95 523 c 0
 155 523 185 502 185 460 c 2
 185 381 l 1
 184 358 189 341 197 332 c 1
 141 332 l 1
 136 342 l 1
 134 346 l 1
131 415 m 1
 87 407 l 2
 67 403 55 397 55 388 c 0
 55 374 66 367 85 367 c 0
 115 367 131 383 131 415 c 1
EndSplineSet
EndChar
StartChar: guillemotleft
Encoding: 266 171 231
Width: 436
VWidth: 2048
Flags: HW
Fore
108 203 m 1
 241 7 l 1
 149 7 l 1
 -15 203 l 1
 149 399 l 1
 242 399 l 1
 108 203 l 1
289 203 m 1
 425 7 l 1
 330 7 l 1
 186 203 l 1
 330 399 l 1
 425 399 l 1
 289 203 l 1
EndSplineSet
EndChar
StartChar: logicalnot
Encoding: 267 172 232
Width: 318
VWidth: 2048
Flags: HW
HStem: 312 51<-10 235>
VStem: 235 75<247 363>
Fore
310 247 m 1
 235 247 l 1
 235 312 l 1
 -10 312 l 1
 -10 363 l 1
 310 363 l 1
 310 247 l 1
EndSplineSet
EndChar
StartChar: uni00AD
Encoding: 268 173 233
Width: 175
VWidth: 2048
Flags: HW
HStem: 159 58<2 164>
Fore
2 159 m 1
 2 217 l 1
 164 217 l 1
 164 159 l 1
 2 159 l 1
EndSplineSet
EndChar
StartChar: registered
Encoding: 269 174 234
Width: 501
VWidth: 2048
Flags: HW
HStem: -12 50<245 270> 113 25<124 137 251 251 406 415> 113 163<221 244> 242 33<221 224> 356 32<128 235> 360 27<128 144> 440 49<245 270>
VStem: -19 58<225 253> 164 59<339 346> 164 60<155 242 157 347> 467 61<238 253>
Fore
528 238 m 0
 528 194 515 153 492 114 c 0
 467 75 433 44 392 23 c 0
 348 -1 302 -12 255 -12 c 0
 209 -12 164 -1 119 23 c 0
 77 45 43 75 19 114 c 0
 -7 155 -19 197 -19 238 c 0
 -19 284 -7 325 19 364 c 1
 41 400 73 431 119 454 c 0
 163 478 208 489 255 489 c 0
 294 489 329 483 360 470 c 0
 394 458 424 440 447 417 c 0
 473 393 493 366 506 336 c 0
 520 306 528 275 528 238 c 0
467 238 m 0
 467 268 462 294 451 316 c 0
 441 339 425 360 405 381 c 0
 384 400 362 415 336 425 c 0
 311 435 282 440 253 440 c 0
 215 440 180 431 147 411 c 1
 113 394 87 371 68 339 c 0
 47 306 38 273 38 237 c 0
 38 203 47 170 68 138 c 0
 85 107 112 82 147 66 c 1
 180 46 215 37 254 37 c 0
 292 37 328 46 359 66 c 1
 393 81 419 106 440 138 c 0
 458 170 467 203 467 238 c 0
223 242 m 1
 223 159 l 2
 223 149 227 142 234 140 c 0
 237 139 243 138 251 138 c 1
 251 113 l 1
 124 113 l 1
 124 138 l 1
 150 138 164 144 164 157 c 2
 164 339 l 2
 164 350 162 356 157 358 c 0
 151 359 141 360 128 360 c 1
 128 389 l 1
 260 389 l 2
 288 389 307 385 321 381 c 1
 340 374 354 365 362 353 c 1
 367 346 371 334 371 321 c 0
 371 299 363 281 347 268 c 0
 330 254 311 247 292 247 c 1
 385 148 l 2
 392 141 401 138 415 138 c 1
 415 113 l 1
 315 113 l 1
 224 242 l 1
 223 242 l 1
221 346 m 2
 221 275 l 1
 243 275 258 276 268 278 c 0
 294 285 306 298 305 321 c 0
 304 341 293 353 272 354 c 0
 268 354 l 2
 235 356 l 2
 226 356 221 353 221 346 c 2
EndSplineSet
EndChar
StartChar: macron
Encoding: 270 175 235
Width: 187
VWidth: 2048
Flags: HW
HStem: 476 42<1 176>
Fore
1 476 m 1
 1 518 l 1
 176 518 l 1
 176 476 l 1
 1 476 l 1
EndSplineSet
EndChar
StartChar: degree
Encoding: 271 176 236
Width: 169
VWidth: 2048
Flags: HW
HStem: 395 37<79 82> 502 37<79 82>
VStem: -7 47<466 469> 119 47<466 469>
Fore
-7 468 m 0
 -7 487 1 504 18 519 c 0
 35 533 55 540 79 540 c 0
 104 540 124 533 141 519 c 0
 158 504 166 487 166 468 c 0
 166 447 158 429 141 416 c 1
 123 401 103 396 79 396 c 0
 55 396 35 401 18 416 c 0
 1 429 -7 447 -7 468 c 0
42 467 m 0
 42 458 45 450 52 443 c 0
 61 436 70 433 79 433 c 0
 90 433 99 436 107 443 c 0
 115 450 119 458 119 467 c 0
 119 476 115 485 107 492 c 0
 99 498 90 502 79 502 c 0
 70 502 61 498 52 493 c 0
 45 485 42 476 42 467 c 0
EndSplineSet
EndChar
StartChar: plusminus
Encoding: 272 177 237
Width: 455
VWidth: 2048
Flags: HW
HStem: 2 85<-18 446> 249 89<-18 162 267 446>
VStem: 162 105<104 249 338 480>
Fore
162 104 m 1
 162 249 l 1
 -18 249 l 1
 -18 338 l 1
 162 338 l 1
 162 480 l 1
 267 480 l 1
 267 338 l 1
 446 338 l 1
 446 249 l 1
 267 249 l 1
 267 104 l 1
 162 104 l 1
446 2 m 1
 -18 2 l 1
 -18 87 l 1
 446 87 l 1
 446 2 l 1
EndSplineSet
EndChar
StartChar: twosuperior
Encoding: 273 178 238
Width: 124
VWidth: 2048
Flags: HW
HStem: 342 35<61 119> 462 35<54 64>
Fore
-7 342 m 1
 -5 359 11 380 43 405 c 2
 69 424 l 2
 79 433 84 442 81 450 c 0
 79 458 71 462 58 462 c 0
 46 462 40 461 36 459 c 2
 27 450 l 1
 -2 453 l 1
 5 483 25 497 60 497 c 0
 97 497 118 484 118 455 c 0
 118 440 115 429 113 424 c 1
 113 424 l 0
 111 421 108 418 106 416 c 0
 101 410 89 401 71 388 c 0
 67 384 63 381 61 377 c 1
 119 377 l 1
 119 342 l 1
 -7 342 l 1
EndSplineSet
EndChar
StartChar: threesuperior
Encoding: 274 179 239
Width: 131
VWidth: 2048
Flags: HW
HStem: 349 27<54 63> 415 11G<50 53> 415 27<54 62> 473 25<60 63>
VStem: 78 40<457 464> 89 35<392 399>
Fore
-1 391 m 1
 36 394 l 1
 40 382 47 376 61 376 c 0
 79 376 89 383 89 398 c 0
 89 409 79 415 60 415 c 2
 53 415 l 1
 50 415 l 1
 54 442 l 1
 70 442 78 447 78 459 c 0
 78 469 72 473 60 473 c 0
 50 473 43 469 38 458 c 1
 2 462 l 1
 11 486 31 498 60 498 c 0
 98 498 118 486 118 462 c 0
 118 447 108 437 89 432 c 1
 113 425 124 412 124 393 c 0
 124 379 118 368 104 360 c 0
 93 353 78 349 62 349 c 0
 26 349 5 363 -1 391 c 1
EndSplineSet
EndChar
StartChar: acute
Encoding: 275 180 240
Width: 151
VWidth: 2048
Flags: HW
HStem: 445 11G<17 72>
Fore
17 445 m 1
 61 515 l 1
 150 515 l 1
 72 445 l 1
 17 445 l 1
EndSplineSet
EndChar
StartChar: mu
Encoding: 276 181 241
Width: 377
VWidth: 2048
Flags: HW
HStem: 11 77<166 185> 397 11G<-9 80 276 365>
VStem: -9 90<-128 60 -128 407> 282 82<21 407>
Fore
365 407 m 1
 365 21 l 1
 282 21 l 1
 282 67 l 1
 263 38 240 21 214 16 c 0
 203 14 192 11 180 11 c 0
 146 11 118 23 95 45 c 0
 90 49 86 54 80 60 c 1
 80 -128 l 1
 -9 -128 l 1
 -9 407 l 1
 80 407 l 1
 80 243 l 2
 80 201 84 171 92 149 c 0
 102 120 118 102 139 95 c 1
 139 95 l 1
 149 92 162 89 175 89 c 0
 210 89 235 101 250 122 c 0
 254 129 259 138 263 148 c 0
 272 170 276 201 276 242 c 2
 276 407 l 1
 365 407 l 1
EndSplineSet
EndChar
StartChar: paragraph
Encoding: 277 182 242
Width: 482
VWidth: 2048
Flags: HW
HStem: 447 90<192 313 192 467>
VStem: 153 99<-86 447> 313 97<-86 447>
Fore
153 -86 m 1
 153 278 l 1
 108 278 70 289 38 312 c 0
 37 312 37 313 36 313 c 0
 3 338 -12 368 -12 405 c 0
 -12 449 7 483 45 506 c 1
 81 527 130 538 192 538 c 2
 467 538 l 1
 467 447 l 1
 410 447 l 1
 410 -86 l 1
 313 -86 l 1
 313 447 l 1
 253 447 l 1
 253 -86 l 1
 153 -86 l 1
EndSplineSet
EndChar
StartChar: periodcentered
Encoding: 278 183 243
Width: 101
VWidth: 2048
Flags: HW
HStem: 237 75<6 90>
Fore
6 237 m 1
 6 312 l 1
 90 312 l 1
 90 237 l 1
 6 237 l 1
EndSplineSet
EndChar
StartChar: cedilla
Encoding: 279 184 244
Width: 190
VWidth: 2048
Flags: HW
HStem: -72 44<43 79> -16 11G<87 87>
Fore
45 -2 m 1
 68 52 l 1
 130 52 l 1
 115 23 l 1
 157 19 179 6 181 -19 c 1
 181 -37 167 -51 139 -61 c 0
 118 -69 92 -72 61 -72 c 0
 38 -72 18 -71 0 -69 c 1
 3 -28 l 1
 43 -29 l 2
 72 -29 90 -28 94 -26 c 1
 96 -24 l 1
 96 -24 l 1
 98 -16 l 1
 98 -9 94 -6 87 -5 c 1
 87 -5 l 1
 86 -3 l 1
 86 -3 l 1
 86 -3 l 2
 79 -2 66 -2 45 -2 c 1
EndSplineSet
EndChar
StartChar: onesuperior
Encoding: 280 185 245
Width: 141
VWidth: 2048
Flags: HW
VStem: 70 54<329 484>
Fore
70 329 m 1
 70 427 l 1
 46 415 25 407 9 405 c 1
 9 445 l 1
 29 450 50 461 70 477 c 0
 71 478 71 478 71 478 c 0
 72 478 72 478 72 479 c 1
 72 479 l 1
 72 479 l 1
 72 479 l 1
 73 479 l 1
 78 484 l 1
 124 484 l 1
 124 329 l 1
 70 329 l 1
EndSplineSet
EndChar
StartChar: ordmasculine
Encoding: 281 186 246
Width: 155
VWidth: 2048
Flags: HW
HStem: 338 46<72 76> 460 49<72 76>
VStem: -3 50<423 427> 103 51<417 427>
Fore
73 508 m 0
 99 508 119 499 133 483 c 0
 147 467 154 447 154 424 c 0
 154 399 147 380 133 364 c 0
 119 347 99 338 73 338 c 0
 49 338 29 347 15 364 c 0
 2 379 -3 398 -3 423 c 0
 -3 446 2 467 15 481 c 0
 28 499 49 508 73 508 c 0
75 460 m 0
 55 460 46 447 46 423 c 0
 46 398 55 384 75 384 c 0
 94 384 103 398 103 423 c 0
 103 447 94 460 75 460 c 0
EndSplineSet
EndChar
StartChar: guillemotright
Encoding: 282 187 247
Width: 480
VWidth: 2048
Flags: HW
Fore
327 203 m 1
 189 8 l 1
 288 8 l 1
 470 203 l 1
 288 400 l 1
 179 399 l 1
 327 203 l 1
132 203 m 1
 -18 8 l 1
 94 8 l 1
 272 203 l 1
 94 400 l 1
 -18 400 l 1
 132 203 l 1
EndSplineSet
EndChar
StartChar: onequarter
Encoding: 283 188 248
Width: 633
VWidth: 2048
Flags: HW
HStem: -11 11G<490 572> 23 62<414 490 572 596>
VStem: 72 86<240 486> 490 81<-11 23 85 235>
DStem: 825 883 1006 883 69 -35 250 -35 905 426 888 292 644 164 750 154
Fore
38 -19 m 1
 455 487 l 1
 555 487 l 1
 138 -19 l 1
 38 -19 l 1
72 240 m 1
 72 409 l 1
 49 392 31 382 18 377 c 2
 0 373 l 1
 0 425 l 1
 25 432 49 447 72 470 c 2
 87 486 l 1
 158 486 l 1
 158 240 l 1
 72 240 l 1
490 -11 m 1
 490 23 l 1
 355 23 l 1
 355 90 l 1
 499 235 l 1
 572 235 l 1
 572 85 l 1
 596 85 l 1
 596 23 l 1
 572 23 l 1
 572 -11 l 1
 490 -11 l 1
490 85 m 1
 490 162 l 1
 414 85 l 1
 490 85 l 1
EndSplineSet
EndChar
StartChar: onehalf
Encoding: 284 189 249
Width: 635
VWidth: 2048
Flags: HW
HStem: -21 58<488 586>
VStem: 75 85<240 486> 394 191<-21 -11> 524 60<139 158>
DStem: 825 884 999 884 69 -35 243 -35 933 223 1010 171 825 143 914 91
Fore
38 -19 m 1
 455 488 l 1
 551 488 l 1
 134 -19 l 1
 38 -19 l 1
75 240 m 1
 75 409 l 1
 50 392 31 381 15 376 c 2
 1 373 l 1
 1 425 l 1
 27 433 52 447 77 472 c 2
 89 486 l 1
 159 486 l 1
 159 240 l 1
 75 240 l 1
394 -21 m 1
 394 15 415 47 455 79 c 1
 515 123 l 1
 521 129 524 134 524 139 c 0
 523 151 520 159 516 162 c 0
 513 165 505 166 494 167 c 1
 473 165 463 162 461 153 c 1
 461 153 l 1
 460 150 l 1
 401 154 l 1
 412 201 444 225 495 225 c 0
 555 225 585 202 585 158 c 0
 585 137 575 115 557 94 c 1
 504 50 l 1
 488 37 l 1
 586 37 l 1
 586 -21 l 1
 394 -21 l 1
EndSplineSet
EndChar
